<?xml version="1.0" standalone="no"?>
<!DOCTYPE svg PUBLIC "-//W3C//DTD SVG 1.1//EN" "http://www.w3.org/Graphics/SVG/1.1/DTD/svg11.dtd" >
<svg xmlns="http://www.w3.org/2000/svg" xmlns:xlink="http://www.w3.org/1999/xlink" version="1.1">
<metadata></metadata>
<defs>
<font id="amarilloregular" horiz-adv-x="1400" >
<font-face units-per-em="2048" ascent="1536" descent="-512" />
<missing-glyph horiz-adv-x="1024" />
<glyph horiz-adv-x="0" />
<glyph unicode="&#xd;" horiz-adv-x="1024" />
<glyph horiz-adv-x="0" />
<glyph horiz-adv-x="0" />
<glyph unicode=" "  horiz-adv-x="1024" />
<glyph unicode="&#x09;" horiz-adv-x="1024" />
<glyph unicode="&#xa0;" horiz-adv-x="1024" />
<glyph unicode="!" horiz-adv-x="466" d="M-105 121q5 -31 18 -49.5t33.5 -26.5t45.5 -8q27 0 55.5 9t53 26.5t42 43t23.5 58.5q14 59 -25 133q-23 37 -46 52.5t-48 15.5q-27 0 -51.5 -16.5t-44 -42t-33.5 -57.5t-20 -64q-8 -43 -3 -74zM18 739.5q-2 55.5 7.5 114.5t23 113.5t19.5 87.5q51 238 86.5 399.5 t58.5 265t34 157.5t15 77q16 53 29.5 114.5t9.5 120.5q4 29 -5 50.5t-7 27.5q-4 14 10 19.5t31 1.5q63 -12 103 -20.5t59 -43.5q25 -33 30.5 -84t1.5 -106.5t-13 -105.5t-15 -79q-55 -231 -93 -392t-63 -267.5t-37 -165.5t-18 -86q-20 -61 -34.5 -130t-14.5 -138 q-4 -33 4 -57.5t10 -30.5q0 -16 -13.5 -22.5t-29.5 -2.5q-59 14 -103.5 31.5t-60.5 58.5q-23 37 -25 92.5z" />
<glyph unicode="&#x22;" horiz-adv-x="870" d="M61.5 1973q8.5 71 33 141.5t59 132t65.5 92.5q20 25 47 34t53.5 7t51 -13.5t43.5 -29.5q45 -39 50 -64.5t-28 -48.5q-51 -51 -97 -103.5t-81 -101.5t-54.5 -94t-19.5 -78q4 -27 -3 -45t-17 -24q-16 -10 -39 5t-49 66q-23 53 -14.5 124zM452.5 1973q8.5 71 33 141.5 t59.5 132t65 92.5q20 25 47 34t53.5 7t51 -13.5t43.5 -29.5q45 -39 50 -64.5t-28 -48.5q-51 -51 -97 -103.5t-81 -101.5t-54.5 -94t-19.5 -78q4 -27 -3 -45t-17 -24q-16 -10 -38.5 5t-49.5 66q-23 53 -14.5 124z" />
<glyph unicode="#" horiz-adv-x="1525" d="M0 776q4 47 28.5 81t59.5 54q59 33 153.5 42.5t180.5 9.5l16 122q-70 2 -140.5 5.5t-147.5 -7.5q-33 -6 -60 -13t-33 -11q-23 -2 -26.5 6t-3.5 20q4 47 29.5 81t60.5 55q29 16 70.5 26t89 15.5t95.5 7.5t91 2q2 20 3 39.5t5 40.5q10 84 19.5 174t5.5 178q0 43 -12.5 70.5 t-14.5 37.5q0 39 49 39q72 2 118 -17t71 -56q33 -39 45 -106.5t13 -141.5t-5 -143.5t-10 -112.5v-6q57 -4 113.5 -6t113.5 -5q2 18 3 38t5 40q10 84 19.5 174t5.5 179q0 43 -12.5 70.5t-14.5 37.5q0 39 51 39q137 2 189 -74q33 -39 45 -106.5t12 -141t-6 -143.5t-10 -113v-4 h48t68 2q35 4 60.5 13.5t36.5 7.5q23 6 28.5 -2t3.5 -23q-10 -47 -32.5 -78.5t-55.5 -54.5q-35 -18 -82 -29.5t-98 -15.5l-18 -129h53t78 2q35 4 60.5 13.5t35.5 7.5q23 6 28 -2.5t5 -22.5q-10 -47 -33 -79t-55 -54q-37 -20 -89.5 -30.5t-107.5 -16.5q-2 -23 -5 -47.5 t-5 -46.5q-2 -18 -4 -41t-5 -62t-7.5 -98t-10.5 -152q2 -43 15.5 -69.5t11.5 -38.5q4 -18 -9.5 -28.5t-35.5 -10.5q-74 -2 -118 18.5t-73 55.5q-33 39 -45 106.5t-13 140t5 142t12 112.5l2 15q-59 0 -116.5 2t-114.5 6q-2 -23 -4 -42t-4 -40q-4 -18 -6 -40.5t-4 -61.5 t-6.5 -98.5t-10.5 -151.5q2 -43 15.5 -69.5t11.5 -39.5q4 -18 -10.5 -28.5t-36.5 -10.5q-72 -2 -117 18.5t-74 55.5q-31 39 -43 106.5t-13 140.5t5 142.5t12 112.5l2 16q-66 2 -135 5t-143 -7q-31 -6 -57.5 -13t-34.5 -11q-23 -2 -26 6t-3 20zM707 958q59 -4 116.5 -6 t114.5 -4q4 29 7 59.5t7 59.5q-59 0 -115.5 2t-113.5 4z" />
<glyph unicode="$" horiz-adv-x="1390" d="M35 645q2 18 9 49t22.5 60.5t37 52t50.5 22.5q10 0 19 -11t5 -27l-4 -3q-10 -14 -13 -37.5t7 -56.5q33 -96 116 -146t193 -59q4 31 7 60t8 57q6 39 6 62l30 254q-72 12 -139 30.5t-123.5 50t-99.5 77.5t-68 112q-12 35 -18 81t-2 97t18.5 108.5t36.5 116.5 q35 86 91.5 166t126 146.5t148.5 115t160 68.5v29q2 29 -3 50t-9 32v-4q-4 2 -5 10t1 12q2 23 20.5 40t47.5 7h-2l22 -8q47 -10 80 -25.5t53 -56.5v2q20 -37 29 -80q98 -20 185 -80.5t148.5 -144.5t92.5 -183.5t18 -199.5q-10 -74 -50 -137.5t-96 -110.5t-121.5 -73.5 t-127.5 -26.5q-35 0 -62.5 6t-56.5 29l-16 -115q27 -10 49.5 -19.5t44.5 -19.5q66 -31 121 -82t84 -127q10 -29 13 -63.5t-1 -67.5q-6 -66 -34.5 -125t-73.5 -110.5t-103.5 -91.5t-120.5 -66q-14 -6 -36.5 -14.5t-40.5 -12.5q-2 -37 0 -76q0 -4 1 -6t-1 -6q0 -25 3 -47.5 t7 -38.5q-6 8 -10 -6l-4 -16l20 2q4 -37 -17.5 -52.5t-50.5 -5.5q-49 16 -97 46t-60 79l2 -2q-27 49 -33 117q-90 12 -172 45t-143.5 84t-94 117.5t-24.5 146.5zM377 1559q-6 -154 37 -248q23 -53 59.5 -90t81.5 -64l45 379q27 229 37 283q6 39 11 76.5t9 78.5l2 8 q-72 -10 -124 -49t-85.5 -97t-52 -131t-20.5 -146zM739 522l4 2q41 14 92.5 41t92.5 60.5t64.5 74.5t11.5 84h2q-10 27 -47.5 44.5t-84.5 31.5q-25 6 -44 10t-46 9q-6 -66 -15 -128.5t-15 -125.5q-2 -14 -4 -25.5t-2 -21.5q-4 -18 -5.5 -32t-3.5 -24zM838 1296 q41 -53 92 -53q33 0 65.5 19.5t57 54.5t39 83t12.5 105q-6 109 -57.5 216.5t-137.5 179.5q-2 -29 -3 -57.5t-5 -53.5q-2 -16 -4 -32.5t-2 -31.5l-4 -40q-16 -113 -29.5 -208.5t-23.5 -181.5z" />
<glyph unicode="%" horiz-adv-x="1667" d="M70 1651q4 53 31.5 120.5t75.5 128t117 101.5t155 41q102 0 157.5 -32t80 -81t25.5 -109.5t-3 -115.5q-6 -59 -31 -130t-71 -132.5t-115.5 -102.5t-165.5 -41q-90 0 -142.5 36t-79 89.5t-32.5 114.5t-2 113zM197 180q-2 57 19.5 127t53 137.5t66.5 126t57 95.5 q27 45 87.5 145t136 228t160.5 268.5t161 266.5t133 222t82 137q47 70 92 147t80 161q18 41 23.5 72.5t9.5 41.5q6 20 19.5 21.5t27.5 -13.5q92 -82 88 -188q4 -55 -17.5 -125t-53 -137.5t-66.5 -128t-58 -96.5q-27 -45 -87 -144.5t-137 -226.5t-161 -266.5t-160.5 -264 t-136 -222t-84.5 -138.5q-10 -16 -20 -36.5t-28.5 -53.5t-47.5 -85t-74 -134q-16 -41 -20 -73t-12 -42q-4 -20 -17.5 -21t-25.5 13q-49 43 -68.5 89t-21.5 97zM269 1527.5q-1 -34.5 5.5 -69.5t22.5 -59.5t51 -24.5q39 0 72 36t58.5 91t42 122t22.5 128q8 92 -13.5 150.5 t-74.5 58.5q-41 0 -74 -49t-56.5 -113.5t-37 -126t-15.5 -86.5q-2 -23 -3 -57.5zM924 637q4 53 31.5 120.5t76.5 128t118 101.5t155 41q102 0 157.5 -31.5t80 -81t25.5 -110t-3 -115.5q-6 -59 -31 -130t-72 -132t-116.5 -102t-165.5 -41q-90 0 -142.5 35.5t-79 89t-32.5 115 t-2 112.5zM1125 513.5q-1 -34.5 5.5 -69t22.5 -59.5t51 -25q39 0 72 36t58.5 91.5t42 122t22.5 127.5q8 92 -13.5 150.5t-74.5 58.5q-41 0 -74 -49t-56.5 -113.5t-37 -126t-15.5 -86.5q-2 -23 -3 -57.5z" />
<glyph unicode="&#x26;" horiz-adv-x="1763" d="M20 473q8 102 47 205.5t97.5 206t132.5 205t154 204.5q-70 139 -107 287t-37 322q0 29 1 63.5t5 67.5q12 123 65.5 260t143.5 251.5t217 190.5t285 76q115 0 188.5 -49t115.5 -123t58.5 -160t16.5 -160v-33.5t-2 -31.5q-18 -145 -72.5 -284.5t-129.5 -269.5t-164 -251 t-177 -231l-98 -121q61 -90 131 -180.5t141 -182.5q49 -66 97.5 -126t95.5 -126q59 68 100 146t51 155q4 51 -10 109t-49 111q-23 35 -8.5 91t71.5 97q49 33 109 33q31 0 60.5 -16.5t45.5 -53.5q29 -66 37 -136.5t4 -131.5q-14 -154 -102 -290t-217 -245l4 -4 q49 -74 100.5 -156.5t91 -171t65.5 -182.5t26 -192v-27.5t-2 -30.5q-4 -35 -16.5 -90t-40 -108.5t-76 -92t-121.5 -38.5q-43 0 -71 24.5t-24 75.5q2 18 7.5 38.5t15.5 43.5q53 111 79.5 187.5t33.5 140.5q6 96 -48.5 207.5t-152.5 265.5l-8 10q-168 -111 -355.5 -171.5 t-353.5 -60.5q-102 0 -189 26t-148.5 80t-92.5 140t-21 207zM393 371q-4 -57 8.5 -98.5t39 -67t64.5 -37.5t85 -12q55 0 119.5 15t131 43t133 68t128.5 87q-49 70 -101.5 137t-105.5 133q-63 78 -123.5 155.5t-120.5 159.5q-102 -137 -173 -282t-85 -301zM459 1886 q0 -104 20.5 -205.5t61.5 -199.5q4 -10 6 -19.5t6 -15.5q4 -8 6 -14l2 -2q90 113 176 223t156 219.5t116 214t54 205.5q4 31 4 57.5v50.5q0 145 -38 201.5t-95 56.5q-90 0 -171 -64.5t-144.5 -163.5t-105.5 -218t-50 -230q-4 -25 -4 -48v-48z" />
<glyph unicode="'" horiz-adv-x="509" d="M61.5 1973q8.5 71 33 141.5t59 132t65.5 92.5q20 25 47 34t53.5 7t51 -13.5t43.5 -29.5q45 -39 50 -64.5t-28 -48.5q-51 -51 -97 -103.5t-81 -101.5t-54.5 -94t-19.5 -78q4 -27 -3 -45t-17 -24q-16 -10 -39 5t-49 66q-23 53 -14.5 124z" />
<glyph unicode="(" horiz-adv-x="669" d="M-44 429.5q-17 191.5 17.5 414.5t110.5 442q53 154 124 299.5t154.5 271t180 225t199 161t211 78t218.5 -22.5l-2 -2q16 -10 20.5 -25.5t-2.5 -30t-22.5 -22.5t-40.5 -4q-104 23 -201.5 -30.5t-184.5 -162t-161.5 -261t-134.5 -326.5q-18 -49 -51 -164t-66.5 -261.5 t-58 -308t-24.5 -306t32.5 -255t114.5 -153.5q6 -6 18.5 -13.5t23.5 -15.5t17.5 -19.5t2.5 -23.5q-8 -14 -34 -21.5t-55.5 -9.5t-56 1t-37.5 10q-145 59 -220 201.5t-92 334z" />
<glyph unicode=")" horiz-adv-x="669" d="M-311 -96q2 12 12 20t24.5 14.5t29 9.5t24.5 7q72 14 133 72.5t112.5 146.5t94.5 197.5t76.5 225.5t59.5 231.5t43 216t27.5 176t14.5 114.5q18 180 13 342t-41 287t-105.5 201t-177.5 82q-25 2 -36 14t-11 27.5t11 29t30 19.5l-3 2q121 8 216.5 -36t167 -128t119.5 -203 t74 -259t30 -295.5t-11 -313.5q-14 -152 -46.5 -300.5t-82 -285.5t-115 -256t-145.5 -209t-175 -146.5t-202 -68.5q-12 -4 -38.5 0t-53 13.5t-47 22.5t-22.5 30z" />
<glyph unicode="*" horiz-adv-x="983" d="M37 1155q14 59 65 86q23 10 55.5 15.5t67.5 6.5t69 -1t58 -5l-20 39q-29 47 -55.5 97.5t-65.5 97.5q-16 16 -30.5 26.5t-18.5 14.5q-8 12 -6 18t10 17q29 29 57.5 36t55.5 -1q29 -10 58.5 -40t56 -67t49 -73t36.5 -60q12 -25 31 -49l82 80q39 39 83 81t79 93q18 23 25 45 t12 30q8 10 17 6.5t17 -18.5q33 -47 42.5 -87t2.5 -77q-4 -33 -19 -66.5t-36.5 -65t-46.5 -61.5t-47 -54q18 -4 51 -5.5t92 -3.5q23 0 39.5 5.5t20.5 5.5q14 0 16 -6.5t2 -14.5q-16 -57 -63 -86q-23 -12 -54.5 -17t-67.5 -5t-70 2t-58 4l37 -62q6 -12 13 -24.5t19.5 -33 t32.5 -52t53 -82.5q16 -20 29.5 -29.5t17.5 -15.5q12 -10 9.5 -19.5t-11.5 -17.5q-31 -27 -57.5 -34t-52.5 -3q-29 10 -58.5 41t-57.5 67.5t-50.5 74.5t-34.5 63l-22 33q-29 -27 -57.5 -52.5t-55.5 -54.5q-10 -8 -20.5 -19.5t-27 -30t-44 -48t-70.5 -74.5 q-18 -25 -24.5 -48.5t-12.5 -29.5q-6 -10 -16 -6t-16 16q-33 47 -42.5 87t-5.5 79q6 43 31 87t55.5 84t62.5 73t52 53l12 13q-12 0 -18 2q-45 4 -90 9t-98 1q-16 0 -34 -3t-22 -7q-12 0 -15 5t-3 15z" />
<glyph unicode="+" horiz-adv-x="1294" d="M29 913q6 47 27.5 78t49.5 51q33 20 83.5 30.5t103.5 15t102 3.5t80 -1h62l18 137q10 66 17.5 138.5t0.5 141.5q-2 35 -13 56.5t-15 29.5q0 16 13 23.5t36 7.5q70 2 114 -13.5t68 -43.5q33 -31 45.5 -85.5t14.5 -112.5t-3.5 -113.5t-9.5 -90.5l-12 -88q23 -2 44.5 -2 h43.5q14 0 30.5 -1t44 -1t71.5 1t112 1q31 4 51.5 12.5t28.5 6.5q18 6 23.5 -2.5t3.5 -20.5q-8 -45 -26.5 -74.5t-47.5 -52.5q-35 -20 -86 -30.5t-104.5 -14.5t-102.5 -3t-80 1h-31l-26 -201q-2 -16 -4 -33.5t-3 -48t-4.5 -78t-9.5 -120.5q4 -35 16.5 -55.5t12.5 -30.5 q4 -16 -10.5 -23.5t-34.5 -7.5q-72 -2 -114 13.5t-70 43.5q-31 33 -44.5 86.5t-14.5 111.5t4 112.5t10 89.5l18 151l-121 6q-63 0 -125.5 4.5t-134.5 -6.5q-27 -4 -48.5 -11t-29.5 -11q-16 -2 -19 6t-5 18z" />
<glyph unicode="," horiz-adv-x="518" d="M-147 -180q-10 16 5 16h42q51 0 95 29t79 74t62.5 99t45.5 105q8 20 12.5 50t9.5 58t12.5 50.5t19.5 32.5q25 20 63.5 16t71 -27.5t50 -64.5t-0.5 -94q-18 -49 -62.5 -119t-102.5 -134.5t-125 -111.5t-130 -53q-41 -4 -79 12.5t-68 61.5z" />
<glyph unicode="-" horiz-adv-x="997" d="M35 942q6 98 51 137q23 25 60.5 37t77.5 17.5t77 4.5t61 -1q86 -4 163 -7.5t155 -7.5h22.5h33t53 1t81.5 1q25 4 41.5 14.5t22.5 10.5q10 4 14 -5t2 -24q-4 -51 -16 -82.5t-35 -54.5q-25 -25 -61.5 -37t-76.5 -17t-77 -4t-61 1q-86 4 -164 7t-154 7q-47 2 -96 4t-96 -8 q-23 -4 -40.5 -13.5t-21.5 -11.5q-20 -2 -16 31z" />
<glyph unicode="." horiz-adv-x="436" d="M63 195q2 33 14.5 64.5t30 57t41 42t52.5 16.5q25 0 50 -15.5t50 -52.5q23 -39 32 -71.5t5 -61.5q-6 -66 -57.5 -101.5t-106.5 -35.5q-47 0 -83 34.5t-28 123.5z" />
<glyph unicode="/" horiz-adv-x="1230" d="M-35 180q-2 57 19.5 127t52.5 137.5t65.5 126t57.5 95.5l87 145t136 228t161 268.5t160.5 266.5t133 222t82.5 137q47 70 92 147t80 161q18 41 23 72.5t9 41.5q6 20 19.5 21.5t27.5 -13.5q92 -82 89 -188q4 -55 -17.5 -125t-53.5 -137.5t-67 -128t-57 -96.5 q-27 -45 -87 -144.5t-137 -226.5t-161 -266.5t-161 -264t-136 -222t-84 -138.5q-10 -16 -20.5 -36.5t-29 -53.5t-47 -85t-73.5 -134q-16 -41 -20.5 -73t-12.5 -42q-4 -20 -17 -21t-26 13q-47 43 -66.5 89t-21.5 97z" />
<glyph unicode="0" horiz-adv-x="1554" d="M28 877.5q-1 119.5 9 222.5q10 111 44 242t90 264t133 256t175.5 219t215 153.5t251.5 57.5q154 0 258.5 -44t171 -120t101 -176.5t46 -213t7.5 -232.5t-14 -232q-10 -121 -41 -260.5t-84.5 -277.5t-129 -267t-174 -227.5t-222.5 -156.5t-271 -58q-133 0 -229.5 51 t-162 136t-102.5 195.5t-54 229.5t-18 238.5zM427 608q1 -82 10 -164t34 -147.5t67 -106t107 -40.5q72 0 136.5 55t123 150.5t107.5 221t88 267t65.5 290t38.5 287.5q14 164 6 301.5t-37.5 235.5t-81.5 153.5t-128 55.5t-142.5 -79t-123 -202t-101.5 -273.5t-78 -292.5 t-53.5 -260t-24.5 -177q-4 -47 -9 -120t-4 -155z" />
<glyph unicode="1" horiz-adv-x="997" d="M98 1493q-8 14 2 25v-2q-4 -4 8.5 4t22.5 18q18 12 49 38t66 58q66 70 119 130.5t104 125.5l250 359q8 20 26.5 26t40.5 4q76 -6 123 -38.5t70 -81.5q20 -51 25.5 -117t-3.5 -137q-4 -55 -13 -113.5t-20.5 -112t-22.5 -98.5t-19 -78l-84 -346q-27 -104 -53.5 -203.5 t-51.5 -199.5q-12 -53 -22 -104.5t-18.5 -103.5t-16.5 -108.5t-14 -124.5q-6 -80 0 -134t12 -87q2 -12 4 -21.5t0 -15.5q0 -14 -15.5 -19t-27.5 -5q-76 10 -126 60t-78.5 121t-37 154t-2.5 158q6 74 24.5 176.5t44 220t56.5 245.5t62 253q35 141 59.5 249t42.5 206 q-66 -84 -126 -158t-103 -121q-29 -31 -63 -59.5t-69.5 -51t-69.5 -35.5t-63 -13q-55 0 -88 45v-2q-4 2 -4 14z" />
<glyph unicode="2" horiz-adv-x="1273" d="M-82 80q-4 29 1 51.5t18 54.5l40 66l7 6v-2q47 61 107.5 130t131.5 149q82 90 175.5 191t184.5 208.5t175 219.5t150.5 219.5t108.5 210t50 194.5q2 33 0 63.5t-13.5 57t-34 46t-61.5 29.5q-63 6 -144 -17.5t-166 -69.5t-166 -110.5t-144.5 -139t-103 -155.5t-39.5 -161 v2q8 -31 1.5 -46t-18.5 -19.5t-27.5 1t-27.5 15.5q-41 41 -55.5 94t-8.5 115q6 68 33 141.5t65 143t83 131t88 104.5q131 131 263 192.5t249 61.5q94 0 175 -39t136 -112.5t82 -181t14 -243.5q-4 -49 -13 -102t-26 -109q-45 -156 -127 -307t-178 -291.5t-197.5 -264.5 t-187.5 -222l-63 -70l202 -18l158 -14q66 -2 121 1t137 21q49 8 82 24.5l53 26.5q18 12 23 13l-2 -2q23 4 18 -35q-2 -74 -30.5 -130.5t-70.5 -96t-91 -64.5t-94 -35q-41 -8 -90.5 -10t-102.5 -2q-84 0 -179 5t-190 13q-84 6 -164.5 12.5t-146.5 6.5q-16 0 -32.5 -1 t-28.5 -3q-41 -4 -72 1t-37 54v-2z" />
<glyph unicode="3" horiz-adv-x="1433" d="M-35 440q2 14 5 30.5t12 35.5q6 10 21 18t31.5 8t28 -8t11.5 -28h2q12 -59 46 -105.5t83 -81.5t109.5 -56.5t127.5 -29.5q113 -14 216.5 25t185.5 114.5t133 183t59 230.5q8 137 -22.5 237.5t-95 161t-159.5 79t-216 -8.5q-35 -8 -63.5 -6t-51.5 18q-23 14 -27 27.5 t1.5 26t17.5 25t26 28.5q49 59 91.5 109.5t80.5 95.5q131 156 202 241.5t102.5 126.5t35 48.5t0.5 7.5q-104 -10 -211.5 -22.5t-220.5 -16.5q-33 -4 -85 -6t-107 3t-105.5 22.5t-78.5 54.5q-20 37 -30.5 86t-0.5 127q4 25 11 41t17 14q12 -4 34 -18.5t57 -18.5 q35 -8 103.5 -7t154.5 6t183 11t190.5 11.5t173 4.5t133.5 -12q80 -16 112.5 -63t32.5 -111q0 -98 -40 -188t-99.5 -175t-130 -166t-131.5 -163q84 -2 164.5 -41t145 -102.5t107.5 -145.5t52 -168q16 -209 -40.5 -378t-174 -288.5t-292.5 -184t-395 -64.5q-78 0 -171 30.5 t-174 86t-133 129t-44 159.5z" />
<glyph unicode="4" horiz-adv-x="1497" d="M25 836q4 29 16 62.5t31 55.5h-2l26 13q106 74 223 184.5t230 236t213 258t178 249t124 210t50 140.5l25 -7l2 17q4 23 21.5 32t41.5 5q78 -6 125 -38t70 -81q27 -61 27.5 -152.5t-12.5 -187.5t-33.5 -185t-32.5 -145l-136 -516q27 2 52.5 3t54.5 5q41 8 74.5 16.5 t52.5 14.5q16 8 31 8q10 2 20 -5t12 -19q-2 -49 -31.5 -87t-74.5 -63.5t-99.5 -41t-105.5 -19.5v2q-4 0 -9 -2t-11 -2q-4 0 -7.5 -1t-7.5 -1q-4 -16 -7 -31t-7 -31q-14 -55 -25.5 -107.5t-20.5 -106.5t-17.5 -112.5t-14.5 -127.5q-4 -59 -1 -104.5t8 -78.5t9.5 -54.5 t4.5 -29.5q-2 -18 -37 -14q-82 6 -134.5 55t-80 121t-34.5 157t-1 165q4 59 18.5 136t32.5 167q-59 2 -117.5 4t-117.5 6q-98 4 -196.5 9t-162.5 5q-16 0 -41.5 -2t-50.5 -4l2 2l-14 -4l-49 -10q-4 -2 -8.5 -2h-8.5q-33 -4 -47 6t-20 27zM500 1018h32q88 -4 176.5 -9.5 t174.5 -13.5q4 0 7 -1t7 -1q25 104 51.5 213t52 215.5t50 207t45.5 186.5q-66 -106 -139.5 -218t-151.5 -216.5t-156 -199t-149 -163.5z" />
<glyph unicode="5" horiz-adv-x="1468" d="M-29 481q2 16 5.5 34t11.5 38q6 12 21.5 20.5t32.5 8.5t29.5 -9.5t12.5 -31.5h2q12 -74 51 -131.5t95.5 -96.5t126 -59.5t143.5 -20.5q131 0 231.5 75t171 187.5t111.5 247t51 252.5q8 90 -2 172t-41 143.5t-84 98.5t-129 37q-80 0 -162 -46t-147 -124q-25 -20 -42.5 -41 t-31.5 -37q-14 -18 -24.5 -32.5t-18.5 -22.5q-23 -20 -63.5 -29.5t-83.5 -9.5q-29 0 -54.5 4t-42.5 14h2q-41 25 -42 81.5t5 133.5l3 21q8 70 15 142.5t15 158.5t17.5 189.5t21.5 236.5q6 63 16.5 99t30 53.5t49 19.5t74.5 0q10 0 30.5 -1t37.5 -1q63 0 140 3t155 7 q86 4 168 8t155 4q47 0 91 -2t77 -8q41 -8 84 -29.5t76 -57.5t49 -87t6 -119q-2 -20 -6 -29.5t-20 -7.5q-10 0 -21 11q-14 10 -40.5 24.5t-69.5 20.5q-72 16 -125.5 18t-112.5 2l-86 -8q-82 -8 -166 -15.5t-170 -11.5q-4 0 -9 -1t-9 -1q-16 -2 -37 -3t-41 -1 q-10 -61 -18.5 -144t-18.5 -169q-8 -61 -13 -123.5t-14 -112.5q92 66 187.5 95.5t189.5 33.5q166 4 283 -48t188.5 -144t100 -212t16.5 -251q-12 -154 -78.5 -307.5t-181.5 -277.5t-275.5 -200.5t-361.5 -76.5q-80 0 -177.5 34.5t-180 94t-135 141.5t-44.5 176z" />
<glyph unicode="6" horiz-adv-x="1513" d="M27 776q2 29 2 55.5t4 57.5q12 141 52 299t105.5 313.5t157.5 296.5t209 250t257 173.5t304 64.5q49 0 92 -7q35 -4 70 -13t63.5 -27.5t47 -47t22.5 -67.5q2 -10 -6 -24.5t-20.5 -25t-25.5 -11.5t-26 16v-2q-29 31 -60.5 45t-62.5 16q-98 6 -183 -40t-156.5 -126 t-130 -183t-104.5 -211t-80 -210t-54 -178q53 49 112.5 81t119 50t116.5 25.5t104 7.5q139 0 231.5 -53.5t144.5 -141.5t66.5 -200.5t-3.5 -231.5q-20 -139 -77.5 -261t-148 -215t-213 -153.5t-274.5 -74.5q-16 -2 -32.5 -2.5t-28.5 -0.5q-158 0 -270.5 63.5t-185.5 169 t-105.5 242t-32.5 281.5zM416 643q0 -66 14 -144.5t50 -146t93.5 -112.5t141.5 -45q47 -2 90 14t82 45q70 55 117 149.5t70.5 203t20.5 218t-34 197.5t-91.5 140t-152.5 46q-84 -8 -156.5 -69.5t-127 -147.5t-86 -180t-31.5 -168z" />
<glyph unicode="7" d="M34.5 2167q-14.5 45 4.5 104q4 14 10 25.5t17 7.5q8 0 30 -14q16 -10 45 -22.5t72 -22.5q86 -14 150.5 -18.5t134.5 -6.5l495 6q18 2 41 2h41q49 0 100.5 -6t95.5 -25.5t74.5 -57.5t38.5 -99q6 -59 -14 -137t-53 -159t-73 -157l-70 -133q35 -4 65.5 -13t46.5 -30 q18 -18 27.5 -48t1.5 -75q-4 -16 -12.5 -27.5t-26.5 -7.5q-8 0 -12 1t-9 3q-8 4 -18 7.5t-20 5.5q-12 2 -27.5 2h-34.5h-39.5t-46.5 -2q-84 -141 -159.5 -275.5t-149.5 -267.5q-53 -92 -104.5 -196.5t-92.5 -215.5q-27 -76 -38 -134t-15 -91q0 -25 -4 -37v2 q-6 -18 -21.5 -19t-31.5 7q-45 18 -74 51t-46.5 74t-21.5 90t0 100q4 61 18.5 123t37.5 117q25 57 59.5 132t77.5 159t92 175t102 183q-23 -2 -45 -1t-43 1h-57.5t-46.5 4q-35 6 -71 20.5t-63.5 38t-42 57.5t-5.5 81q4 14 10 24.5t16 0.5q12 -4 23 -9q14 -6 33.5 -14 t48.5 -14q41 -4 75.5 -7.5t63.5 -3.5q16 0 30.5 1t30.5 1l152 13l33 57h-2q86 152 157.5 279t106.5 211q-55 2 -124 2h-136h-166t-160 2t-140.5 6t-109.5 12q-49 8 -97 28.5t-84 52.5t-50.5 77z" />
<glyph unicode="8" horiz-adv-x="1353" d="M-39 489q4 92 38 189.5t94.5 185.5t146.5 161t196 116q-123 45 -192.5 121.5t-94 171t-10 198t61.5 203.5t120.5 190.5t165 157t197.5 102t217 27.5q125 4 222.5 -32.5t162 -101t95 -154t24.5 -189.5q-6 -88 -37 -179t-84 -174t-129 -152.5t-172 -117.5 q90 -23 154.5 -67.5t104.5 -106t56.5 -137.5t12.5 -158q-8 -135 -66.5 -270t-161 -244.5t-245 -180.5t-316.5 -77q-135 -4 -242.5 34t-180 108.5t-108.5 168t-30 207.5zM362 504q-4 -70 12.5 -132.5t49.5 -109.5t82 -75.5t115 -28.5q102 8 184 59t140.5 125t92 162t37.5 172 q2 76 -15.5 145.5t-56 122.5t-100 83t-147.5 28q-31 0 -64 -6l-4 -2q-72 -10 -129 -63.5t-99 -130.5t-66.5 -169t-31.5 -180zM525.5 1712q-15.5 -113 1 -212t64.5 -168.5t130 -80.5q94 8 172 67.5t135 142.5t90 179.5t37 180.5q6 152 -72 243.5t-219 85.5 q-96 -4 -166.5 -68.5t-113.5 -160.5t-58.5 -209z" />
<glyph unicode="9" horiz-adv-x="1517" d="M96 182q-2 10 6.5 24.5t20.5 25t25.5 11.5t25.5 -16v2q29 -31 60.5 -45t62.5 -16q98 -6 183 40t157 126t130 183.5t104.5 211t79 208.5t55.5 179q-53 -49 -112.5 -80.5t-119 -50t-117 -26t-104.5 -7.5q-139 0 -231.5 53.5t-144.5 141.5t-66.5 200.5t4.5 231.5 q20 139 77.5 261t147.5 215t213 152.5t274 76.5q16 2 33 2h29q158 0 270.5 -63.5t184 -169t105.5 -242t34 -281.5q-2 -29 -2 -55.5t-4 -57.5q-12 -141 -52.5 -298.5t-106 -313.5t-157.5 -297t-208.5 -249.5t-257 -173.5t-304.5 -65q-49 0 -92 7q-35 4 -69.5 13t-63.5 27.5 t-47.5 46t-22.5 68.5zM415 1481.5q3 -109.5 33.5 -197.5t91 -140t152.5 -46q84 8 157 69.5t127 147.5t86 180t32 168q0 66 -15.5 144.5t-50.5 146t-92 112.5t-141 45q-47 2 -90 -14t-82 -45q-70 -55 -117 -149.5t-70.5 -203t-20.5 -218z" />
<glyph unicode=":" horiz-adv-x="669" d="M266 580q2 33 14.5 64.5t30 57t41 42t51.5 16.5q25 0 50.5 -15.5t50.5 -52.5q23 -39 32 -71.5t5 -61.5q-2 -33 -17.5 -58.5t-39 -43t-52.5 -26.5t-55 -9q-47 0 -83 35t-28 123zM336 1135q2 33 14 64.5t29.5 57t41 42t52.5 16.5q25 0 50 -15.5t50 -52.5q43 -78 37 -133 q-6 -66 -57 -101.5t-107 -35.5q-47 0 -82.5 35t-27.5 123z" />
<glyph unicode=";" horiz-adv-x="669" d="M-6 233q-10 16 4 16.5t41 0.5q53 0 97 28.5t79 73.5t62.5 99.5t46.5 105.5q8 20 12 50t9 57.5t12.5 50.5t19.5 33q25 20 63.5 16t71.5 -27.5t50.5 -64.5t-1.5 -94q-18 -49 -62 -119t-102.5 -134.5t-126 -111.5t-131.5 -53q-41 -4 -77.5 12t-67.5 61zM348 1135 q2 33 13.5 64.5t29 57t41 42t51.5 16.5q25 0 50.5 -15.5t50.5 -52.5q23 -39 32 -71.5t7 -61.5q-6 -66 -57.5 -101.5t-106.5 -35.5q-47 0 -83 35t-28 123z" />
<glyph unicode="&#x3c;" horiz-adv-x="1017" d="M20 784q4 2 4.5 4.5t2.5 4.5q0 23 14 32q27 41 83 104.5t127 134.5t147.5 145.5t147 139t125 113.5t79.5 72q12 10 39.5 42t59.5 66.5t58.5 62.5t34.5 28q20 0 36.5 -13.5t28 -33t15.5 -42t2 -38.5q-8 -45 -60.5 -113t-128 -146.5t-168 -163.5t-181.5 -165t-164.5 -149.5 t-120.5 -116.5q74 -43 168 -95.5t183 -106.5t158.5 -106.5t92.5 -95.5q6 -12 10 -31.5t4 -40t-4 -37t-14 -22.5q-4 -2 -26.5 12.5t-49.5 33t-50.5 35.5t-31.5 21q-20 8 -60 30t-92.5 50.5t-112 63.5t-115.5 69.5t-105.5 68.5t-79.5 61q-16 6 -26.5 20t-17.5 32.5t-10.5 37 t-1.5 32.5z" />
<glyph unicode="=" horiz-adv-x="1118" d="M59 848q6 98 52 137q23 25 60.5 37t77.5 17t76.5 4t61.5 -1q86 -4 163 -7t155 -7h22h33.5t53.5 1t83 1q23 4 39 14.5t22 10.5q10 4 14.5 -5.5t2.5 -23.5q-4 -51 -16.5 -83t-34.5 -54q-25 -25 -62 -37t-77 -17.5t-76.5 -4.5t-61.5 1q-86 4 -163.5 7.5t-153.5 7.5 q-47 2 -96.5 4t-96.5 -8q-23 -4 -39 -13.5t-22 -11.5q-20 -2 -17 31zM94 1268q6 98 51 137q25 25 62 37t77 17t76.5 4t61.5 -1q86 -4 164 -7t153 -7h22.5h33t53.5 1t82 1q25 4 40 14.5t21 10.5q23 4 19 -29q-4 -51 -16.5 -83t-35.5 -54q-25 -25 -61.5 -37t-76.5 -17.5 t-76.5 -4.5t-61.5 1q-84 4 -163 7.5t-154 7.5q-47 2 -96.5 4t-96.5 -8q-23 -4 -39 -13.5t-22 -11.5q-20 -2 -17 31z" />
<glyph unicode="&#x3e;" horiz-adv-x="1017" d="M-68.5 239.5q0.5 16.5 8 37t19 40t23.5 31.5q37 43 124 95.5t194.5 106.5t220 106.5t200.5 95.5q-29 47 -80 116.5t-111.5 149.5t-123 165t-110.5 163.5t-75.5 146.5t-19.5 113q2 16 14 38.5t29.5 42t38 33t41.5 13.5q8 0 25.5 -28t38 -62.5t37.5 -66.5t26 -42 q16 -23 53 -72t83 -113.5t97 -139t96 -145.5t79 -134.5t46 -104.5q6 -4 6 -13v-19q4 -4 -2 -9q-2 -14 -10 -32.5t-21.5 -37t-30 -32.5t-34.5 -20q-39 -27 -99.5 -61t-128 -68.5t-139 -69.5t-134 -63.5t-110.5 -50t-69 -30.5q-10 -4 -41 -21t-64.5 -35.5t-60 -33t-30.5 -12.5 q-6 6 -5.5 22.5z" />
<glyph unicode="?" horiz-adv-x="1222" d="M111 1577q4 61 27.5 125.5t57 126t73.5 115t79 90.5q119 117 236.5 170t222.5 53q86 0 157.5 -34t121 -98.5t73 -158.5t12.5 -213q-4 -35 -11 -69.5t-24.5 -81t-47 -105.5t-74.5 -139q-47 -70 -117 -174.5t-174 -257.5l-111 -154h-6l-160 -229q-14 -33 -18 -57.5 t-8 -32.5q-4 -16 -19.5 -18.5t-29.5 7.5q-59 29 -85 64t-30 74q-4 31 5 68.5t27.5 77.5t42 78t48.5 73l12 26l2 6v-2q33 45 72 96.5t90 112.5h2q29 45 67 93t78 102l7 -2q43 55 93 117.5t94 131t77 139t39 140.5q4 51 -6 86q-8 43 -34 61.5t-61 24.5q-55 6 -127.5 -15.5 t-147.5 -61.5t-147.5 -96t-130 -121.5t-91.5 -137.5t-34 -141v2q6 -29 1 -42.5t-16 -16.5t-25.5 2t-24.5 14q-37 35 -49.5 82t-7.5 100zM180 162q2 33 14.5 64.5t30 57t41 42t51.5 16.5q25 0 50.5 -15.5t50.5 -52.5q23 -39 32 -71.5t5 -61.5q-6 -66 -57.5 -101.5 t-106.5 -35.5q-47 0 -83 35t-28 123z" />
<glyph unicode="@" horiz-adv-x="1837" d="M6 575q-18 168 26 345.5t133 340t214 299t266 224.5q139 86 289.5 123t291 25.5t259.5 -70t194.5 -163t98 -253t-30.5 -338.5h-86q61 164 49 295t-76.5 226t-172 151.5t-234.5 69t-265.5 -19.5t-265.5 -114q-129 -84 -221 -213t-150.5 -277.5t-81 -303t-12.5 -289.5 q0 -98 33 -180t89.5 -139.5t129 -88t152.5 -26.5t162 45t157 127q6 12 15.5 12t5.5 -21q-37 -111 -128 -189.5t-202 -100.5q-129 -27 -240.5 9t-196.5 109.5t-138.5 176t-63.5 208.5zM514 788q-6 -57 1 -110t29.5 -94t63.5 -65.5t105 -24.5q57 0 113.5 29.5t108.5 76.5 t99 108.5t88 127.5l-2 -7q-6 -61 -2 -119.5t19.5 -105.5t44 -75.5t71.5 -28.5q41 0 80 15t72 42q43 37 89 100.5t90 138t85 153.5t74 147l-84 -2q-35 -68 -77 -145t-85 -146.5t-84 -118.5t-74 -61q-16 4 -23 31.5t-3 76.5q6 63 20.5 125t30.5 121l29 113q4 41 -25 57t-72 16 q-55 0 -82.5 -18.5t-44.5 -71.5v2q-29 -53 -68.5 -127t-85.5 -141.5t-95.5 -114.5t-92.5 -47q-25 0 -39 12.5t-21 31t-8 41t1 44.5q4 41 23.5 109.5t51 146.5t72.5 158t88 144.5t97.5 104.5t101.5 40q39 0 66.5 -20.5t44 -53.5t21.5 -72t3 -78q-2 -14 -4 -27.5t-10 -29.5 q14 -23 35 -22q6 0 19 6t17 10l3 2q14 35 16 80q6 61 -9.5 122.5t-48 111.5t-81.5 81t-113 31q-84 0 -162 -41t-146.5 -108.5t-127 -154.5t-101.5 -179.5t-69.5 -182.5t-32.5 -164z" />
<glyph unicode="A" horiz-adv-x="3440" d="M-66 389q0 160 52.5 326t152 301t243 221t323.5 86q90 0 163.5 -27.5t126 -77t81 -117t28.5 -145.5q0 -86 -35 -182q123 94 265.5 157.5t287.5 95.5t282.5 32t252.5 -33q125 201 240.5 415t215 434t180 442.5t136.5 439.5v-2q4 12 14 23t23 15q25 33 83 33 q92 0 150.5 -29.5t92.5 -80t47.5 -116t13.5 -136.5v-50t-2 -53q-16 -141 -48 -316t-74 -370.5t-90.5 -402.5t-97.5 -412q164 4 317.5 95.5t291.5 277.5q35 27 55 13.5t26 -48.5q-84 -125 -168.5 -208t-174 -133t-183.5 -75.5t-192 -33.5q-27 -145 -40.5 -309.5t-13.5 -329.5 q0 -190 25 -372.5t84 -324t157.5 -227.5t247.5 -86q59 0 134 18.5t157 55.5q59 -20 60 -50q0 -14 -10.5 -34.5t-26.5 -38.5q-125 -53 -234.5 -77t-214.5 -24q-141 0 -253.5 49.5t-197.5 137.5t-145.5 207.5t-98.5 262t-55.5 300t-17.5 319.5q0 133 11.5 273.5t33.5 273.5 q-104 18 -201.5 43t-207.5 55q-180 -281 -389 -536.5t-426 -446.5q-72 -61 -148 -118.5t-159 -101.5t-175 -70.5t-196 -26.5q-152 0 -293 57.5t-249 165t-172.5 258t-64.5 338.5zM292 198q15 -130 70.5 -244t151.5 -190.5t238 -76.5q63 0 125.5 17t132.5 50q119 63 250 174 t268 258.5t275.5 326.5t271.5 380l-4 10q-74 18 -140.5 25.5t-126.5 7.5q-248 0 -463 -119t-399 -328q-12 -8 -28.5 -14t-28.5 -6q-25 0 -44.5 13.5t-17.5 41.5q37 43 72 93.5t59.5 107.5t35.5 117q6 32 6 64q0 29 -5 59q-33 88 -89 124.5t-105 40.5h-5q-75 0 -152 -56 q-79 -58 -147.5 -156.5t-121 -224.5t-74.5 -257q-11 -62 -11 -131q0 -51 6 -107zM2277 985q92 -29 179.5 -53.5t179.5 -44.5q92 416 160.5 745.5t109.5 569.5l-12 4q-111 -272 -267.5 -585.5t-349.5 -635.5z" />
<glyph unicode="B" horiz-adv-x="2686" d="M-250 53q6 61 17.5 122t31.5 124q45 137 133 253t197 199t226.5 130t222.5 47q72 0 132 -22.5t103 -73t63 -128.5q14 -55 13 -126q0 -29 -2 -62q-2 -20 -5 -45t-8 -47q-29 -41 -51 -41t-37 18q2 35 2 66q0 57 -7 102q-11 70 -35.5 114t-59.5 64.5t-78 20.5 q-66 0 -140.5 -41t-145 -109.5t-131 -159.5t-95.5 -192q-23 -70 -38 -140.5t-19 -133.5q-3 -42 -4 -83q-1 -114 25 -216q34 -139 110 -245.5t191.5 -174.5t267.5 -86q25 -4 47 -5t45 -1q147 0 304 50t305.5 138t280.5 208t232.5 259t159.5 289.5t61 302.5v13q0 89 -26 167 q-28 84 -93 148.5t-168.5 108.5t-250.5 61q-8 8 -9 23.5t2 32.5t11 32.5t20 23.5q180 53 313.5 145.5t222.5 210t137 252t61 271.5q2 18 3 35.5t1 34.5v16q0 105 -25 187q-27 88 -75 151t-115.5 104t-147.5 64q-104 31 -231 31q-135 0 -283.5 -34t-284.5 -81 q-176 -72 -301 -151t-184 -144q-33 -37 -51.5 -69.5t-20.5 -59.5q-4 -35 28 -51q16 -8 40 -9q24 0 57 9q39 12 85 32.5t96.5 45t100.5 53t97 55.5q66 39 127.5 73t95.5 48q41 16 80 25.5t68 9.5q45 0 72.5 -18.5t43 -52.5t19.5 -80q3 -31 3 -65q0 -17 -1 -36 q-23 -139 -52.5 -322.5t-62 -382t-67.5 -399.5t-65.5 -378t-56.5 -317.5t-42 -215.5q-23 -61 -54.5 -119t-78.5 -100q-48 -42 -114 -62q-42 -12 -93 -12q-31 0 -66 4q-39 14 -65.5 33.5t-7.5 56.5q0 20 14 41q14 16 27.5 46t29.5 67l-2 -3q37 121 67 266.5t55.5 304.5 t48 321.5t40.5 316.5q16 127 31.5 243.5t31 217t32 182.5t34.5 137q-102 -59 -222 -108.5t-234 -63.5q-23 -2 -45 -2q-40 0 -76 7q-56 11 -96 37t-60 66q-17 33 -17 76q0 8 1 17q4 35 19.5 75.5t49.5 86.5q51 72 129 137t161 119.5t163 96.5t135 66q98 43 212 80t232.5 63.5 t238.5 40.5q105 12 202 11h29q164 -4 310 -47t255.5 -136.5t171.5 -238.5q61 -141 61 -337v-13q0 -14 -1 -33.5t-3 -36.5q-12 -158 -68.5 -310.5t-153.5 -281.5t-237.5 -224t-320.5 -140q229 -90 347 -236.5t138 -316.5q4 -41 5 -85v-17q0 -35 -3 -68q-16 -184 -101 -347 t-218 -299t-302 -244t-351.5 -181.5t-367.5 -112.5t-351 -39q-119 0 -228 23q-190 39 -348 127t-267.5 217t-164.5 296q-43 129 -43 276q0 43 4 87z" />
<glyph unicode="C" horiz-adv-x="2822" d="M152 1735q8 100 40.5 221t84 229.5t121 187t153.5 95.5q23 4 39 -2t26.5 -18.5t14.5 -27t4 -26.5q2 -31 -19 -31q-10 -2 -17 -1t-15 3h-17q-49 -10 -93 -63t-79 -128t-57.5 -160t-30.5 -161v-17q1 -104 23 -203q24 -107 76 -191t132 -132q71 -43 165 -43q12 0 24 1 q61 154 149.5 323.5t200 334.5t245.5 314.5t287.5 263t325.5 180t361 66.5q113 0 210 -48t169 -152q45 -68 77.5 -147t54 -165t31.5 -174q7 -62 6 -121q0 -25 -1 -49q-4 -90 -24.5 -168.5t-57.5 -140t-92.5 -104.5t-128.5 -58q-24 -4 -49 -4q-36 1 -74 9q-64 14 -116 52 t-87 100t-35 151q-68 -78 -163 -160t-209.5 -160t-247 -147.5t-273.5 -122.5q-76 -211 -133 -437.5t-76 -447.5q-4 -35 -5 -68.5t-3 -68.5q-9 -59 -9 -119q0 -34 3 -68q8 -96 39 -183t85 -156.5t130 -108.5q80 -43 168 -43q13 0 25 1q102 7 202 50t194.5 112.5t172.5 145.5 q100 111 199.5 247t191.5 278.5t176 282.5t154 259h-2l84 146q22 14 40 14q31 0 52 -43l-64 -119q-76 -131 -163 -278.5t-180 -295t-189.5 -286.5t-192.5 -254q-111 -129 -249 -232.5t-288 -170.5q-150 -68 -304 -96q-94 -17 -184 -18q-56 0 -111 7q-201 27 -326 127 t-191 250q-64 150 -78 338q-5 74 -6 151q0 115 12 235q20 198 65.5 393.5t101.5 363.5q-121 2 -212 60t-151.5 152.5t-89.5 217.5q-23 99 -23 205q0 25 1 51zM1366 1382q121 41 243 96.5t234.5 129t207.5 167t163 207.5q23 25 41 28t30.5 -6t15.5 -28t-3 -37 q-6 -20 -9 -40.5t-8 -40.5q-2 -20 -2 -40q1 -48 11 -94q14 -64 44 -110q32 -48 78 -72q37 -20 80 -19q10 0 21 1q61 20 99 99t42 189q1 26 1 54q0 62 -6 126q-9 94 -32.5 181.5t-60.5 165.5t-85 134q-49 56 -109 85q-44 21 -92 21q-19 0 -38 -3q-117 -27 -236.5 -138 t-232 -277t-214 -369t-183.5 -410z" />
<glyph unicode="D" horiz-adv-x="2856" d="M-299 -35q0 74 14.5 161t36.5 169q49 129 139.5 242.5t200 198.5t225 135.5t218.5 50.5q66 0 121 -19.5t96 -62.5t64.5 -108.5t23.5 -158.5q0 -84 -15 -153v2q-23 -39 -47 -38t-41 17q2 23 3 43.5t1 38.5q0 150 -49 216.5t-127 66.5q-66 0 -142.5 -41t-148 -110.5 t-132 -162t-93.5 -194.5q-29 -98 -45 -192.5t-16 -174.5q0 -166 52 -304t157 -236q92 -92 213.5 -132t257.5 -40q135 0 270 38t252 103q150 90 292 242.5t265 343t224.5 405.5t170.5 434q33 111 60.5 225.5t48 229.5t31 225.5t10.5 210.5q0 197 -38 366t-118 293t-206 194.5 t-302 70.5q-111 0 -251 -34t-298 -101q-166 -70 -295 -151t-190 -148q-72 -82 -72 -137q0 -31 32 -45q16 -7 38 -7q24 0 55 7q41 12 89 33.5t99.5 47t100.5 53t94 54.5l84 49q45 25 81 44.5t58 27.5q43 16 82 25.5t66 9.5q45 0 71.5 -18.5t41 -52.5t17.5 -80q2 -28 2 -58 q0 -21 -1 -43l-2 -2h2q-20 -141 -50 -323.5t-63 -382.5t-67.5 -401.5t-65.5 -378.5t-56.5 -318.5t-39.5 -217.5v2q-18 -53 -46 -105t-68 -92t-95 -64.5t-131 -24.5h-48.5t-21.5 2h2q-37 14 -61.5 31.5t-7.5 54.5q-4 12 2 23t10 20q10 16 25.5 43.5t31.5 62.5 q35 113 66 263.5t56.5 314.5t48 329.5t40.5 311.5l15 110q14 104 27.5 203.5t26.5 188t27.5 161t30.5 121.5q-49 -29 -107.5 -56.5t-117.5 -51t-118.5 -41t-112.5 -25.5q-23 -2 -45 -2q-35 0 -69 6q-54 10 -94 33.5t-63.5 60.5t-23.5 86q0 72 69 176q53 70 133 135.5 t164 120t162 95.5t131 65q233 104 440 152.5t379 48.5q258 0 445.5 -96.5t310.5 -263t182.5 -390t59.5 -477.5q0 -94 -11.5 -200.5t-30 -217t-44 -219t-54.5 -205.5q-86 -238 -227 -477t-324.5 -450t-401.5 -378t-458 -259q-135 -41 -282.5 -67.5t-282.5 -26.5 q-180 0 -352 50t-314 148q-160 127 -261 312.5t-101 410.5z" />
<glyph unicode="E" horiz-adv-x="2994" d="M305 1905v35.5t2 35.5q6 86 24.5 176.5t51.5 168t80 135t110 81.5q19 5 35 5q27 0 45 -15q29 -24 31 -51q0 -10 -3 -19.5t-13 -13.5q-8 -4 -19.5 -4h-21.5q-14 0 -19 -2q-37 -14 -65.5 -52t-48 -90t-31.5 -113.5t-14 -125.5q-3 -25 -3 -52q0 -14 1 -29q2 -44 8 -81 q18 -84 53 -165.5t85 -151.5t112.5 -120t134.5 -66q-2 27 -3 58.5t1 59.5q8 133 62 275.5t143.5 279t205 260t246.5 222t270.5 165t274.5 89.5q14 2 33.5 2h31.5q186 0 316.5 -83t212.5 -215t118 -295q35 -155 35 -306v-17q-4 -80 -24.5 -159.5t-56 -146.5t-87 -114 t-116.5 -63q-21 -3 -44 -3q-39 0 -81 9q-66 14 -121 52t-93 100.5t-42 150.5q-49 -59 -122 -125.5t-160 -132t-184 -128t-198 -116.5q25 -43 76 -66.5t98 -33.5q18 -4 42 -6t40 -2q31 0 57.5 3t55.5 7q4 0 5 1t5 1t5 1t5 1q39 4 74 6h17q25 0 47 -4q58 -16 58 -60 q0 -4 -1 -9q0 -25 -17.5 -48.5t-48.5 -39.5q-82 -41 -176 -119t-187 -180.5t-178 -223.5t-150.5 -250t-104.5 -258t-39 -245q0 -125 57 -233.5t180 -178.5q94 -45 187 -45q113 0 226.5 55t216.5 139t192.5 183.5t152.5 187.5q154 217 329 509t380 661q34 17 54 17 q11 0 17 -5q14 -10 11 -41q-195 -369 -371 -664t-322 -512q-102 -147 -237 -291.5t-290 -257t-326 -182t-345 -69.5q-69 0 -139 12q-158 27 -270.5 93.5t-183 160.5t-103.5 209.5t-33 242.5q0 170 53.5 350.5t146.5 345.5t221 302t280 221q-121 51 -201 132t-125 167 q-109 10 -204 53t-172 115t-130 171t-76 224q-6 31 -9 70t-3 78zM1325 1364q117 39 236.5 96.5t229.5 133t203 172t158 216.5q12 16 25.5 21.5t24.5 5.5q25 0 36 -24.5t3 -49.5q-4 -25 -7.5 -45t-3.5 -41q-1 -13 -1 -25q1 -55 15 -107q18 -64 50.5 -111t77.5 -74 q37 -22 79 -22q9 0 19 1q55 23 91 102t38 189v26q1 99 -13 207q-16 122 -54 224t-104.5 168.5t-164.5 66.5q-51 0 -115.5 -23.5t-136.5 -68.5q-121 -82 -240.5 -196.5t-217 -245.5t-160 -269.5t-68.5 -265.5q-4 -29 0 -61z" />
<glyph unicode="F" horiz-adv-x="2664" d="M-86 -133q0 145 38 288.5t108.5 266.5t173 217t231.5 141q41 14 81 19.5t77 5.5q96 0 161.5 -40t106.5 -107.5t59.5 -156.5t18.5 -188q0 -72 -4 -127t-9 -96v2q-12 -27 -25 -39t-25.5 -15t-23 0t-16.5 7q-2 10 -1 19.5t1 19.5v131q0 6 1 12t1 15q0 61 -5 122.5 t-23.5 110.5t-52 81t-91.5 34q-7 1 -13 1q-44 1 -88 -23q-50 -26 -99.5 -78t-93.5 -122.5t-80.5 -153.5t-64.5 -174t-42 -183q-8 -53 -10 -88t-2 -56q0 -133 32.5 -251.5t91 -209t138.5 -144.5t176 -56q127 8 232.5 68.5t192.5 157.5t154.5 223t120 265.5t89 285t61.5 280.5 q33 180 49 356l-4 2q-96 -51 -173 -129t-120 -186q-12 -14 -31.5 -2t-23.5 30q27 190 126 323.5t238 195.5q4 51 5.5 104t3.5 109q0 8 1 21t1 22q2 10 2 23v24q0 27 2 52.5t2 51.5q6 145 18 334q-33 -16 -78 -33.5t-97 -31t-107.5 -22.5t-108.5 -9q-76 0 -135.5 31.5 t-73.5 101.5q-8 33 -8 69q0 78 38 151t98.5 131t135 97t150.5 50q8 0 19.5 1t21.5 3q16 2 33.5 3t33.5 1q100 0 193.5 -34t169.5 -108q207 59 434 110.5t461 98.5q168 35 344 74t348 81t337 89t310 98h-2l52 19.5t74 30t70 37t40 42.5q2 10 4 18.5t2 14.5q0 10 2 18.5 t14 12.5h-2q12 4 26.5 -2t22.5 -23q10 -18 10 -38t-11 -42q-21 -43 -60 -83t-83 -70.5t-67 -44.5q-172 -104 -393 -190.5t-455.5 -158t-464 -128t-419.5 -101.5l-103 -24q-111 -25 -204 -47.5t-158 -47.5q0 -12 1 -24t2 -31.5t2 -48.5t1 -72v-91t-2 -122.5t-5 -164 t-11 -214.5h12t14 2h8.5t6.5 2h-2q96 18 192 39t185 50.5t165 69.5t129 97q10 14 18.5 14.5t14.5 -9t10 -23.5t6 -27q-14 -96 -75.5 -163.5t-151.5 -113.5t-202.5 -78t-229.5 -56l-59 -10q-12 -4 -24.5 -7.5t-35.5 -5.5v-45q0 -4 -1 -6t-1 -4v-8h2q-20 -211 -59 -440.5 t-113 -448.5t-189.5 -415.5t-287.5 -340.5q-59 -43 -129 -77.5t-145.5 -59.5t-155.5 -39t-156 -14h-88q-172 25 -308 106.5t-230.5 206.5t-144.5 287t-50 344zM1161 1845q0 -12 19.5 -13t49.5 4t65.5 15.5t72.5 20.5l35 10q61 18 106 34.5t43 27.5v2q-4 70 -39.5 101.5 t-82.5 31.5q-39 0 -82 -17.5t-82 -49.5t-68 -75t-37 -92z" />
<glyph unicode="G" horiz-adv-x="2570" d="M-131 1901q0 25 1 47t3 47q8 111 47 236.5t101.5 234t146.5 180.5t186 72q27 0 44.5 -10.5t28.5 -24.5t15 -30.5t2 -31.5q-4 -31 -20 -30h-18q-27 16 -44 16q-55 0 -106 -49t-93 -124t-71 -164t-41 -171q-2 -16 -2 -38.5v-39.5q0 -117 28.5 -228.5t86 -201.5 t144.5 -149.5t206 -73.5q141 270 321.5 513t385 426t426 290.5t444.5 107.5q170 0 314.5 -71.5t242.5 -233.5q86 -143 130 -320t44 -345q0 -23 -1 -44.5t-3 -41.5q-10 -96 -35.5 -179.5t-69.5 -144.5t-108.5 -97t-150.5 -36q-68 0 -139.5 27.5t-129 81t-93.5 130t-36 173.5 q-82 -70 -196.5 -140.5t-253 -133t-292 -113t-310.5 -76.5q-57 -133 -98.5 -248t-69 -217.5t-44 -192.5t-24.5 -174q-2 -25 -3 -51.5t-1 -48.5q0 -156 50 -249t161 -93q104 0 212.5 52t215 135t205 185.5t180.5 204.5q4 31 4 41.5t-2 32.5q0 16 -8 32.5t-19 29.5q-2 8 -5 9 t-5 9q-4 18 21.5 37.5t62.5 23.5q73 8 127 8q32 0 57 -3q49 -6 84 -21.5t57.5 -37t35 -46t16.5 -47.5q0 -113 -20.5 -251t-54.5 -288.5t-79 -307.5t-94 -308.5t-98 -290.5t-92 -256q-57 -150 -133 -314.5t-176.5 -309t-226.5 -249t-282 -130.5q-23 -2 -41 -4.5t-40 -6.5 q-52 -6 -97 -6q-78 0 -138 18q-93 27 -150 87q-51 47 -72 93t-25 95q-1 16 -1 32q0 29 4 60q8 47 30 94q37 82 103.5 166t152.5 168t186.5 166t202 157t199.5 140.5t182 120.5q78 231 141.5 443t122.5 431l25 119q-45 -45 -88 -86t-88 -78q-111 -94 -224.5 -167.5t-226 -125 t-219 -78t-201.5 -26.5q-113 0 -209 36t-166.5 110.5t-110.5 190.5t-40 273q0 27 2 57.5t6 61.5q8 82 27.5 178.5t49.5 198.5t67.5 209.5t85.5 212.5q-135 20 -235.5 91t-168 172t-101.5 228t-34 263zM548 -1854q3 -53 30.5 -97t75.5 -71.5t114 -27.5q57 2 125 49t119 119 q55 84 111.5 196.5t109.5 234.5t100 241.5t84 218.5q-106 -74 -235 -166t-249 -193.5t-218.5 -204t-143.5 -194.5q-24 -45 -24 -92q0 -6 1 -13zM1112 1386q139 18 288.5 53.5t289 90.5t258 136t198.5 196l8 4q4 0 9.5 -1t9.5 -1h27q-14 -43 -20.5 -81t-10.5 -69 q-2 -20 -2 -40q0 -59 13 -114q18 -73 53.5 -129.5t86 -89t109.5 -32.5q37 0 65.5 22.5t50 60.5t35 90t19.5 111q2 23 4 51.5t2 53.5q0 137 -29.5 283.5t-87 265t-143.5 195.5t-197 77q-135 0 -274 -98.5t-274.5 -258t-259 -363.5t-228.5 -413z" />
<glyph unicode="H" horiz-adv-x="3153" d="M108 1716q10 144 60 285q61 176 166.5 321.5t244 247t303.5 152.5q134 41 276 41q33 0 67 -2q176 -16 329.5 -92t251.5 -201q113 -147 163 -320q51 -174 57 -366q1 -33 1 -66q0 -160 -26 -328q-31 -202 -80 -407q113 -10 226.5 -26.5t228.5 -30.5q51 197 101 392 t93 369.5t72 319t37 238.5q1 16 1 30q0 37 -8 64q-10 37 -8 53q4 27 25 35t49 8q86 0 138.5 -25.5t80 -68.5t34.5 -97q4 -34 4 -68q0 -20 -1 -40q-10 -109 -34.5 -249t-61.5 -301t-81 -335t-89 -350q98 2 187 18.5t169 51.5q18 12 26.5 8t10.5 -15.5t-1 -26.5t-9 -28 q-63 -121 -177 -169t-261 -52q-35 -129 -67 -250t-60 -235q-20 -82 -46 -181.5t-46 -207.5t-32 -220q-9 -77 -8 -151q0 -31 2 -63q6 -102 31 -192.5t79 -155t142 -100.5q75 -31 180 -31q18 0 36 1q37 -27 29.5 -48t-46.5 -48q-88 -11 -165 -11q-134 1 -232 35 q-154 54 -238 164t-112 262q-21 118 -21 246q0 37 2 75q8 169 40 339t65 315q23 109 51.5 229t60.5 249q-111 12 -226.5 28.5t-231.5 26.5q-49 -186 -104.5 -362.5t-98.5 -342.5q-53 -184 -109.5 -347t-109.5 -265q-25 -53 -63 -96t-90 -67q-48 -23 -110 -23h-11 q-68 2 -158 43q-33 10 -51.5 27.5t-8.5 39.5q10 16 44 44t61 81q18 37 44.5 107.5t57.5 167.5q76 242 159 488.5t154 506.5q-143 -16 -269 -67.5t-224 -157.5q-23 -10 -38 11t-1 42q49 100 112.5 171t138.5 118t160 72.5t177 35.5q31 135 61.5 298t43.5 333q8 100 8 199 q0 68 -4 135q-9 164 -58 303t-145.5 241.5t-251.5 147.5q-31 6 -63 6q-76 0 -157 -34q-114 -48 -215.5 -144t-178.5 -230.5t-109 -285.5q-22 -103 -22 -206q0 -34 3 -70q10 -138 48 -248.5t99.5 -183t135.5 -81.5q17 -3 33 -3q42 0 84 18q58 26 114 74.5t105 111t89 128 t66.5 127t38.5 104.5q6 0 19.5 6t28 6t25.5 -10.5t11 -40.5q-27 -98 -75 -196.5t-114.5 -185.5t-148.5 -155t-173 -106.5t-188 -42.5h-14q-90 0 -184 43q-121 61 -195.5 165.5t-107.5 231.5q-26 99 -26 208q1 32 3 64z" />
<glyph unicode="I" horiz-adv-x="2156" d="M31 1174q0 139 58 290.5t159.5 302t239 293t292.5 264.5q111 88 243 170t268 145.5t271.5 101.5t252.5 38q90 0 166.5 -26.5t133 -85t88 -151.5t31.5 -228v-33t-2 -33q-35 -246 -102.5 -520.5t-149.5 -579.5q-68 -264 -116.5 -463.5t-80.5 -354t-48.5 -274.5t-16.5 -225 q0 -121 22.5 -228t79 -186t151.5 -122q83 -38 206 -38q17 0 35 1q36 -29 36 -52q0 -4 -2 -8q-8 -26 -53 -55q-90 -12 -172 -12q-190 0 -315 61.5t-198.5 165t-103.5 241.5t-30 292q0 98 12.5 205.5t35 237.5t57 286t82.5 348q29 113 62.5 242t65 263t61.5 269t53.5 259 t36.5 230.5t13 186.5q1 92 -21 138q-17 36 -51 36q-9 0 -18 -2q-135 -43 -292.5 -135t-309.5 -215q-39 -31 -123 -103.5t-187 -171t-213 -216t-200 -238.5t-148.5 -238t-58.5 -215q0 -25 5.5 -49.5t15.5 -46.5l6 -16q8 -20 14.5 -48t-14.5 -45q-14 -10 -38.5 -0.5 t-50.5 26.5t-47.5 37.5t-29.5 33.5q-29 57 -45 122.5t-16 127.5z" />
<glyph unicode="J" horiz-adv-x="2076" d="M27 1165q0 137 58 288t157.5 300.5t234.5 291.5t289 265q111 86 240 167t263 143.5t265 100.5t246 38q88 0 163.5 -27t130 -85t85 -150.5t30.5 -225.5v-67q-18 -121 -43.5 -248t-54.5 -255t-59.5 -254t-61.5 -241q-8 -29 -14 -56.5t-12 -53.5l-21 -70l-12 -45l-35 -137 q-37 -143 -85 -326.5t-107.5 -376t-132 -380t-156.5 -338t-179.5 -250t-203.5 -117.5h-6q-14 -2 -28.5 -3t-47.5 -1q-129 0 -209 56t-125 151q-72 156 -72 311q0 72 14.5 146.5t34.5 146.5q61 180 179 358t258.5 341t286 305.5t262.5 250.5q41 139 87 312.5t83.5 347.5 t62.5 331.5t25 266.5q0 92 -20 137q-14 32 -44 32q-12 0 -27 -5q-139 -47 -288.5 -136.5t-296.5 -205.5q-47 -37 -132 -112t-185.5 -173t-206 -214t-191.5 -233.5t-140.5 -231.5t-54.5 -208q0 -23 4.5 -45.5t14.5 -46.5l-2 2l4 -14q10 -25 17 -54.5t-15 -44.5 q-16 -10 -42 -1t-51.5 26.5t-46 39t-26.5 34.5q-31 55 -46 118.5t-15 124.5zM666 -399q0 -12 2 -31t6 -47q20 -111 58 -163t89 -52h4q55 0 114 57q61 59 112 170q55 121 115.5 290t118.5 353t110.5 367.5t95.5 335.5q-106 -100 -225 -222t-227.5 -255.5t-196.5 -275.5 t-133 -286q-18 -66 -30.5 -126t-12.5 -115z" />
<glyph unicode="K" horiz-adv-x="2686" d="M-32 1644q9 140 59 279q61 172 165.5 314.5t240.5 241.5t298 149q128 39 265 39q36 0 73 -3q174 -14 324.5 -87.5t248.5 -196.5q111 -143 161 -312q51 -170 57 -356q1 -32 1 -65q0 -156 -26 -320q-31 -199 -80 -397q123 57 256 165.5t262 250.5q35 35 108 121.5 t157.5 201.5t168.5 247t142.5 260t76.5 240q5 29 4 56q0 75 -36 131q-4 6 -11.5 17.5t-12.5 23.5t-6 23.5t7 19.5q12 12 35 8t47.5 -14t46 -24.5t29.5 -22.5q90 -116 93 -276v-15q0 -153 -60 -323q-62 -178 -178.5 -358.5t-266.5 -342.5q-90 -98 -188 -185t-199.5 -158 t-203 -122t-197.5 -76q113 -201 221.5 -428t224 -449.5t246.5 -422t288 -344t345 -216.5q129 -50 280 -51q69 0 142 11q18 4 29.5 12t31.5 -12q16 -23 -1 -45.5t-40 -28.5q-225 -57 -415 -57q-21 0 -41 1q-206 7 -377.5 70.5t-310 173t-249 250t-196.5 304t-151.5 335.5 t-115.5 343t-89 325q-41 -137 -81 -268t-75 -256q-53 -180 -108.5 -339t-106.5 -259q-25 -51 -62.5 -97.5t-89.5 -73.5q-52 -26 -122 -27h-4q-68 0 -154 38q-31 10 -46.5 36.5t-4.5 49.5q27 35 58.5 54.5t57.5 47.5q35 41 67 108.5t54 129.5q49 150 91 298t80 298.5 t75 305.5t76 314q31 131 61.5 292t46.5 329q10 108 10 215q0 59 -4 117q-8 164 -56 303t-142 241.5t-252 147.5q-31 6 -63 6q-75 0 -153 -33q-112 -47 -211 -141t-176 -225t-108 -279q-21 -99 -21 -198q0 -36 2 -71q10 -134 47.5 -242.5t98 -179.5t133.5 -79q17 -3 33 -3 q40 -1 82 17q58 24 113 71.5t103 109t87 125t65.5 123t39.5 102.5q6 0 18 6t26.5 6t26 -9t11.5 -40q-27 -96 -74 -192.5t-112.5 -181.5t-145.5 -151.5t-170 -104.5t-186 -40h-9q-92 0 -186 41q-119 61 -193.5 161.5t-106.5 225.5q-25 98 -25 205q0 30 2 61z" />
<glyph unicode="L" horiz-adv-x="2377" d="M-4 -201q4 84 35.5 164t85.5 146q70 78 165 119.5t187 41.5q66 0 127 -19.5t109.5 -58t79 -97t37.5 -134.5q0 -78 -29 -143q74 53 165 84.5t201 48.5q61 119 113.5 256t96.5 275.5t80 270.5t64 240q4 10 7.5 20.5t5.5 20.5q-49 -16 -96.5 -22t-96.5 -6q-55 0 -108.5 7 t-102.5 17q-145 33 -248.5 114t-169.5 190q-66 108 -94 237q-24 107 -23 216q0 23 1 46q6 135 50 264t120 234.5t182.5 177t239.5 94.5q16 4 37.5 5t37.5 1q111 0 198 -44t145 -111q60 -68 86 -148q18 -55 18 -105q0 -23 -4 -44q-23 -49 -43.5 -49t-38.5 20q-2 72 -19.5 121 t-43 80.5t-53 47t-52.5 21.5q-35 6 -70 6q-109 0 -195.5 -58t-148 -151.5t-97.5 -212t-42 -239.5q-1 -25 -1 -49q0 -55 6 -109q9 -78 32.5 -147.5t60.5 -127t88 -93.5q55 -41 123 -65t144 -24q51 0 111.5 15.5t117.5 38.5l65 229q51 193 108.5 387.5t127.5 365.5t156 304 t196 207q70 41 156 66.5t170 25.5q100 0 182 -45t111 -150q12 -50 12 -110v-17q-6 -100 -49 -221t-112.5 -248t-159 -252t-186.5 -234.5t-195.5 -195.5t-184.5 -133l-59 -241q-29 -109 -59.5 -230t-67.5 -244.5t-82 -248.5t-102 -242q137 -10 265 -43t265 -76 q217 -70 415.5 -172t348.5 -225t238 -263q79 -126 80 -257q0 -13 -1 -27q-2 -18 -4 -39.5t-6 -38.5q-4 -16 -18.5 -40.5t-35 -48t-43 -39t-38.5 -11.5q-14 4 -20.5 16.5t-7.5 26.5t1 28.5t6 22.5v12q0 67 -41 133q-45 72 -121.5 145t-179 141.5t-213 131t-223 116.5t-211 96 t-175.5 71t-116 39q-39 14 -67.5 22.5t-53 13.5t-47 8t-49.5 7q-18 4 -37.5 6t-44.5 6q-76 -94 -176 -171.5t-213.5 -134t-233.5 -88.5t-237 -32q-41 0 -80.5 3.5t-78.5 11.5q-129 29 -218.5 80t-143.5 118q-53 66 -75 142q-18 64 -19 129q0 12 1 24zM244 -207q0 -10 -1 -21 q-1 -83 29 -161q32 -88 111 -135q47 -31 93 -44.5t89 -13.5q70 0 135.5 29t125 75t111.5 102.5t95 113.5q-121 -12 -213 -57.5t-139 -126.5q-16 -14 -34.5 -17.5t-35 1.5t-27 18.5t-8.5 33.5v2q25 31 49.5 68t45 77t34 81t15.5 82q1 8 1 16q0 24 -5 49q-18 76 -74.5 113 t-122.5 37q-51 0 -101 -22.5t-85 -63.5q-41 -47 -62.5 -109.5t-25.5 -126.5zM2023 1348q61 27 136 91t152 153t150.5 195.5t132 217.5t96.5 218.5t42 199.5q1 13 1 26q1 52 -13 91q-16 50 -48 72q-23 16 -54 16q-12 0 -24 -2q-46 -8 -102 -56q-100 -88 -170.5 -219 t-122 -277.5t-84 -294t-57.5 -263.5z" />
<glyph unicode="M" horiz-adv-x="4173" d="M-90 -217q8 117 41 244q43 166 125 317.5t194.5 271t249.5 196.5t289 93q18 1 34 1q125 0 215 -52q102 -59 163 -162.5t83 -239.5q15 -88 15 -179q0 -48 -4 -97q-4 -33 -9.5 -67.5t-11.5 -65.5q0 -6 -4 -18q-4 -25 -11 -58t-18.5 -61.5t-27.5 -49t-39 -20.5 q-35 -4 -45 13.5t-6 41.5q0 14 4 30t8 28q4 8 6 18t2 8q12 43 22.5 94.5t14.5 104.5q3 44 3 88q0 37 -2 73q-5 81 -27.5 147.5t-65.5 111.5t-113 55q-19 5 -39 5q-59 0 -133 -38q-100 -51 -203.5 -149t-198.5 -231.5t-159 -280.5q-29 -78 -49 -166t-29 -162q-4 -46 -4 -90 q0 -73 10 -141q16 -110 56.5 -197.5t104 -145t147.5 -73.5h-2q16 -2 30.5 -2h28.5q168 0 315.5 77t275.5 204t236.5 291.5t198.5 341t162 349.5t125 318q33 86 82 232.5t103 319.5t107.5 356.5t97.5 342t72.5 276.5t30.5 159q5 26 5 50q0 15 -2 29q-5 36 -11 60v-2 q-4 14 -6 25.5t0 25.5q8 35 39 44t70 11q106 -8 170.5 -35.5t103.5 -74.5q45 -51 75.5 -127t51 -161t33 -172t20.5 -161l8 -55q12 -123 22.5 -268.5t20.5 -298.5q12 -197 23.5 -362t30.5 -294q80 172 191.5 374t231 405.5t233.5 395t196 345.5v16q4 29 -1.5 49.5t-9.5 36.5 q-2 10 -4 17.5t0 17.5q0 29 23.5 39t54.5 14q25 2 48 2q50 0 86 -12q52 -18 80 -52t36 -80q5 -31 5 -63q0 -16 -1 -32q-8 -109 -35.5 -260.5t-67.5 -325.5t-86 -359.5t-92 -359.5q-47 -178 -79.5 -308t-54 -228.5t-34 -172t-18.5 -141.5q-5 -57 -5 -112q0 -34 2 -68 q5 -88 31.5 -158.5t79 -120t138.5 -67.5q12 -4 31.5 -3t42.5 1h54.5t50 -4t36.5 -13.5t14 -25.5q0 -27 -49 -64q-131 -25 -238 -25q-24 0 -47 1q-158 8 -253 71.5t-143 162t-60 224.5q-5 59 -5 119q0 69 7 140q10 117 31.5 233.5t44.5 214.5q16 76 36.5 166t43 185.5 t47 192.5t49.5 187q20 80 36.5 146.5t32 128t28.5 123t30 129.5q-16 -35 -37 -73t-52.5 -94.5t-77.5 -138t-116 -205.5t-165 -296t-224 -408v2q-4 -16 -10 -30.5t-11 -28.5q-18 -53 -44.5 -92t-86.5 -54q-26 -6 -49 -6q-16 0 -30 3q-34 7 -57 25.5t-38.5 45.5t-23.5 57 q-23 86 -40.5 213t-30.5 274.5t-23.5 305.5t-18.5 305l-10 207q-41 -129 -78 -245t-72 -224q-59 -199 -114.5 -371t-116.5 -338q-82 -229 -183.5 -452.5t-230.5 -420t-288.5 -358t-358.5 -266.5q-106 -57 -223 -86t-234 -29q-72 0 -141.5 10.5t-134.5 32.5h2 q-152 47 -262.5 140.5t-180.5 218.5t-98 277q-19 102 -19 212q0 54 5 109z" />
<glyph unicode="N" horiz-adv-x="3747" d="M-80 -270q4 47 14.5 102t30.5 121v-2q41 156 122 300t191.5 255.5t247 184.5t287.5 87q18 1 36 1q125 0 213 -49q102 -56 163 -152.5t85 -223.5q16 -84 15 -171q0 -44 -4 -89q-4 -29 -8 -61.5t-8 -61.5q-2 -4 -2 -12t-3 -12q-4 -25 -13 -57.5t-22.5 -60.5t-32 -44 t-42.5 -6q-16 6 -23.5 15t-8.5 20.5t3 23.5t8 25l13 28v-2q8 29 14 72t12 102q3 39 3 78q0 45 -4 90q-7 84 -31.5 152t-67.5 112t-111 48q-19 5 -40 5q-58 0 -130 -37q-98 -50 -200.5 -143.5t-196.5 -220.5t-158 -264q-27 -70 -47 -151.5t-26 -149.5q-4 -40 -4 -79 q0 -70 12 -137q18 -103 61 -186t106.5 -139.5t145.5 -74.5l-2 2h57q164 0 309.5 71.5t272.5 191.5t234.5 275.5t197.5 320.5t161 328.5t124 301.5q100 270 184 549.5t156 535.5l27 92q8 27 16 53.5t14 53.5q33 102 52.5 181t25.5 122q4 35 0 63.5t-10 46.5q-6 20 -8 32 t-2 16q5 29 33 41q24 10 58 10h11q15 1 30 1q87 0 153 -21q77 -24 116 -83q12 -18 22.5 -50t18.5 -68.5t14 -75.5t13 -74l6 -57h2q33 -188 56.5 -380t46 -385.5t49 -387t67.5 -385.5q86 215 163 433t152.5 437t158.5 439.5t181 441.5q49 104 112.5 201.5t138.5 175t163 128 t188 58.5q72 -2 161 -25.5t169 -76.5q16 -35 9 -55.5t-52 -33.5q-86 41 -164 41q-43 0 -96 -16q-55 -20 -104.5 -61t-94.5 -96.5t-84 -120t-71 -132.5q-61 -121 -125 -284.5t-128.5 -343.5t-127 -366.5t-123 -355.5t-114.5 -309.5t-99 -226.5q-31 -61 -82 -111.5t-123 -50.5 q-53 0 -100 23q-25 16 -29 37q-4 4 -8 13t-4 13q-51 168 -81 350.5t-50.5 373t-39 385t-46.5 389.5q-20 -70 -43 -141.5t-47 -143.5q-16 -53 -35 -107.5t-35 -109.5l-45 -139q-43 -147 -97.5 -310.5t-109.5 -310.5q-80 -213 -180.5 -422t-228.5 -395.5t-285.5 -340 t-351.5 -253.5q-100 -51 -217 -79t-234 -28q-145 0 -279 41q-154 45 -266 132.5t-184 205.5q-71 118 -101 264q-20 99 -21 205q0 50 5 101z" />
<glyph unicode="O" horiz-adv-x="2793" d="M-37 -252q12 96 87 193.5t192 181.5q-4 41 -5 81t-1 85q0 88 4 171t12 163q16 199 48 371.5t73 297.5v-2q70 90 172 133t209 43q88 0 171 -30.5t146 -83.5l2 -11q-2 -14 -4 -28.5t-6 -30.5q-16 -74 -35.5 -172t-39 -214t-37 -242t-29.5 -255q37 4 75.5 8.5t77.5 8.5h27 q12 0 20 2q-14 129 -27.5 313t-13.5 404q0 84 2 173t13 177q14 145 43.5 290.5t78 277.5t117 246t161.5 197.5t214 131t275 47.5q199 0 341 -84t234 -231.5t135 -347.5t43 -429q0 -53 -3 -114.5t-7 -118.5q-27 -260 -97.5 -533.5t-181 -531.5t-257 -487.5t-321.5 -401.5 t-378 -272.5t-426 -100.5q-176 0 -313.5 67.5t-236.5 184.5t-161.5 273.5t-89.5 334.5q-72 -53 -123 -112.5t-57 -112.5q-2 -4 0 -17.5t6 -23.5q2 -8 2 -18.5v-14.5q0 -10 -8 -19t-23 -9q-12 0 -25 10t-26.5 23.5t-24 26.5t-12.5 19q-4 25 -8 58t-4 55zM913 205v-27 q-1 -144 19 -276q22 -144 75.5 -253.5t146.5 -175t237 -65.5q156 0 300 82t272 222.5t235.5 329.5t188.5 403t134 442.5t74 449.5q4 55 6 111.5t2 110.5q0 203 -36 380t-111.5 309t-193.5 208.5t-282 76.5q-115 0 -199.5 -79.5t-144 -211t-95.5 -302.5t-54 -351 q-10 -98 -14.5 -200.5t-4.5 -198.5q0 -100 5.5 -206.5t13.5 -208t18.5 -194t20.5 -163.5l22 -125q6 -23 10.5 -40t2.5 -30q-4 -25 -29 -24q-27 0 -86 16q-10 0 -27 4l-24 6q-66 16 -120 21.5t-97 5.5q-76 0 -139.5 -14.5t-125.5 -32.5z" />
<glyph unicode="P" horiz-adv-x="3026" d="M63 1290q0 78 12.5 158t37.5 154q63 186 174.5 350t251 303t298 250.5t316.5 193.5q100 51 208.5 92t220.5 69t223.5 43t215.5 15q197 0 374 -45t321 -139q113 -80 195.5 -183.5t137 -223t80 -250.5t25.5 -269q0 -154 -32 -306t-91 -294.5t-146 -268.5t-198 -224.5 t-244 -163t-284 -84.5q-66 -8 -130.5 -13t-130.5 -5q-55 -215 -127.5 -413t-175 -349.5t-242 -241.5t-325.5 -90q-78 0 -166 16.5t-188 57.5q-32 32 -32 57q0 30 58 47q45 -14 86 -19.5t82 -5.5q125 0 220.5 59.5t165 157t117.5 221.5t81 251q45 174 82 373.5t66.5 402.5 t50 399.5t32.5 364.5q0 31 -6 61.5t-12 46.5q-4 8 -6 15.5t-2 17.5q2 29 25.5 42t54.5 15q14 1 27 1q74 0 122 -20q58 -22 89.5 -61.5t44 -93t14.5 -108.5v-53q0 -201 -26 -421q-30 -249 -79 -550q166 0 300 88t228.5 233.5t144.5 330.5t50 376q0 182 -49 356t-155.5 309.5 t-271.5 217t-394 81.5q-244 0 -563 -110q-164 -66 -311.5 -163t-264.5 -225t-197.5 -285t-111.5 -341q-8 -41 -11.5 -82t-3.5 -80q0 -104 25 -199.5t74 -169t123.5 -117.5t173.5 -44h30.5t30.5 4q66 10 123 42t100 91q18 27 36 69t28 95q14 12 26.5 19.5t24.5 7.5 t24.5 -12.5t24.5 -41.5q0 -47 -21.5 -100t-56.5 -113q-53 -80 -124.5 -132t-151.5 -83q-115 -39 -219 -39q-129 0 -227.5 56.5t-165 150.5t-100.5 217t-34 254z" />
<glyph unicode="Q" horiz-adv-x="2027" d="M18 846v16q0 148 36 316q38 176 113 361t181.5 360.5t243.5 330t299 269t346 177.5q168 59 352 59q17 0 35 -1q211 -8 337 -96t181 -262q49 -154 49 -351v-16q-2 -207 -45 -437.5t-120.5 -470t-180 -462.5t-222.5 -415.5t-247 -327.5q66 -27 119 -53.5t117 -61.5 q178 -100 328.5 -231.5t248 -277.5t127.5 -301q9 -49 9 -97q0 -104 -44 -205q-6 -10 -22 -30.5t-37.5 -41t-43 -33t-34.5 -4.5q-10 6 -12 17.5t1 25t7 25.5t8 20q13 39 13 80q0 54 -23 112q-41 101 -123 202.5t-190.5 196.5t-214 174t-193.5 134.5t-129 77.5 q-31 18 -61.5 33.5t-59.5 32.5q-49 -43 -93 -72t-83 -45q-111 -48 -222 -48h-13q-119 3 -216.5 39t-159.5 97q-59 60 -59 122q0 3 1 6q2 65 81 126t259 98q82 7 156 7q50 0 96 -3q114 -8 247 -47q94 111 183.5 284t166 379t137 431t98.5 442t48 412q3 57 3 110 q0 128 -17 230q-25 147 -93.5 218t-160.5 83q-22 3 -44 3q-96 0 -200 -57q-127 -71 -250 -201t-235.5 -304t-202.5 -364.5t-149.5 -383t-76.5 -359.5q-7 -59 -7 -113q0 -99 21 -182q32 -128 126 -187q12 -8 22.5 -20.5t7.5 -24t-23.5 -19.5t-65.5 -10q-12 -1 -24 -1 q-129 0 -215 59q-95 65 -142.5 180.5t-49.5 269.5zM491.5 -244.5q24.5 -27.5 89 -49t134.5 -21.5q74 0 137 22.5t133 61.5q-96 35 -178 51q-73 14 -144 14h-18q-119 -4 -148.5 -27.5t-5 -51z" />
<glyph unicode="R" horiz-adv-x="3026" d="M86 1286q0 72 13.5 153t41.5 158q63 186 176 350t253.5 304.5t297 253t308.5 194.5q100 51 210.5 92t222 69t223.5 43t214 15q193 0 369 -45t323 -143q115 -78 198 -181.5t136 -223t78.5 -251.5t25.5 -268q0 -223 -72.5 -445t-204.5 -407.5t-315.5 -316.5t-402.5 -172h2 q12 0 7 -1t-15 -2t-24.5 -2t-20.5 -1h-4l135 -262q74 -145 153.5 -294t167 -285t185.5 -255t211.5 -206t245 -137t282.5 -50h56.5t36 1t21.5 2t15 1l2 2q2 2 6 4q10 4 19.5 2t17.5 -12q10 -12 10 -26.5t-7 -26t-16 -19.5t-17 -10q-201 -43 -371 -43q-221 0 -398.5 65.5 t-317.5 176t-246.5 257t-187.5 309.5t-140.5 332t-102.5 326q-55 -195 -127.5 -367.5t-172 -305t-229.5 -209t-302 -76.5q-80 0 -170 18.5t-191 59.5q-28 30 -28 53v6q4 26 61 41q76 -20 166 -20q125 0 220 59t166 155.5t119 219.5t81 250q45 178 82.5 378.5t66.5 402.5 t49.5 396.5t32.5 362.5h-2q0 33 -5 63.5t-11 46.5l-13 35q0 23 23.5 35t58.5 14q14 1 28 1q73 0 121 -18q56 -22 89 -62t44 -92t13 -107v-29q0 -212 -28 -446q-30 -250 -78 -551h15q157 0 283 83q132 87 226 231t144.5 329.5t50.5 378.5q0 184 -49.5 359t-155 310t-270 218 t-396.5 83q-115 0 -257 -26.5t-296 -79.5q-156 -68 -303 -168t-267 -229t-204 -285t-115 -332q-8 -41 -11 -82t-3 -82q0 -102 24.5 -197.5t73.5 -169t124 -117.5t175 -44h64q63 10 119.5 43t101.5 92l-2 -2l2 6q23 29 40 69t26 93q27 20 49 24h3q21 0 42 -53 q0 -51 -18.5 -99t-49.5 -101q-57 -88 -129 -140.5t-156 -83.5q-109 -41 -219 -41q-129 0 -227 56.5t-164.5 150.5t-100.5 216t-34 251z" />
<glyph unicode="S" horiz-adv-x="2410" d="M-18 -274q4 39 18 100t38.5 118.5t59.5 98.5t82 41q29 0 19 -45l-15 -29q-10 -16 -18 -36.5t-8 -49.5q0 -39 20 -100q31 -117 99.5 -202t163 -140t209 -82t237.5 -27q113 0 230.5 21.5t221.5 56.5q51 20 111.5 50t121 66t118 79t100.5 90t69.5 98t26.5 105q0 49 -14 88 q-31 63 -105.5 106t-167.5 70q-86 20 -191 39.5t-194 36.5l-53 8q-166 27 -330.5 63.5t-307 99t-251 163t-161.5 253.5q-16 59 -30.5 130t-14.5 134q0 113 29.5 254.5t86.5 301.5q68 188 179.5 359t251 307t302 227.5t334.5 119.5h-2q57 16 105.5 21.5t93.5 5.5 q133 0 262 -45t243.5 -124t211 -187.5t166 -234.5t108.5 -265t39 -281q0 -27 -1 -58.5t-5 -60.5q-23 -141 -96.5 -262t-176 -211t-222.5 -141t-234 -51q-123 0 -225.5 72.5t-153.5 218.5q-10 29 -7 55.5t23 42.5q27 18 48.5 -5.5t37.5 -58.5q41 -98 105.5 -144t132.5 -46 q70 0 137.5 43t120.5 120t87 182.5t34 232.5h2q-6 117 -40 237.5t-90.5 232t-132 211t-164.5 173t-188.5 116.5t-201.5 43h-8q-165 1 -286 -77q-124 -80 -205 -211.5t-122 -299t-45 -339.5q-2 -27 -3 -52.5t-1 -52.5q0 -121 17.5 -221t56.5 -188q43 -109 116.5 -187 t164.5 -135t192.5 -98t197.5 -76l45 -16q63 -23 126 -47.5t116 -53.5q123 -59 227.5 -159.5t151.5 -245.5q31 -102 31 -205q0 -135 -51.5 -262t-137.5 -235.5t-201.5 -195.5t-244.5 -145q-199 -82 -428 -82q-127 0 -252 27t-237.5 76t-209 118.5t-164 156.5t-103.5 187 q-29 80 -29 169q0 22 2 45z" />
<glyph unicode="T" horiz-adv-x="2580" d="M-1 -300q-12 78 -12 158q0 90 15 183q23 143 82 275.5t149.5 236.5t207 172t255.5 84q21 1 41 1q123 0 215 -54q106 -62 171 -168.5t89 -242.5q16 -90 15 -180q0 -46 -4 -91q-2 -18 -4 -46t-9.5 -54.5t-20.5 -45t-38 -18.5q-23 2 -31 13t-9 25.5t2 32t3 31.5q5 47 5 102 q0 34 -2 72q-5 98 -29.5 186.5t-71.5 155t-123 80.5q-19 4 -38 4q-55 0 -122 -32q-90 -44 -178 -132t-163 -207.5t-115 -252.5q-39 -130 -38 -261v-31q5 -147 50 -267.5t125 -201.5t186 -95q23 -1 45 -1q140 0 257 54q136 63 249 176t201 261.5t156.5 308t118.5 317.5 t87 289q82 307 135.5 600t106.5 583q20 98 28.5 167t10.5 108l-2 24q-158 -53 -315.5 -108.5t-313.5 -101.5q-156 -45 -310 -73q-144 -26 -286 -26h-20q-49 2 -122 7t-146.5 19.5t-135 39t-88.5 65.5q-12 23 -12 48.5t28 33.5q27 6 32 -5t18 -26q18 -18 51 -26t71 -10 q16 -1 30 -1q21 -1 42 1q35 4 57 6q262 20 540 99t565.5 184.5t580.5 223t583.5 217t576.5 165t558 67.5q106 0 204.5 -24.5t181.5 -77t148.5 -133t108.5 -191.5q12 -58 12 -117q0 -43 -6 -85q-14 -104 -61 -195.5t-124 -165.5t-179 -111q-39 -14 -81 -20t-83 -6 q-102 0 -187 38.5t-148.5 101t-103.5 141.5t-52 159q20 43 43.5 42t37.5 -11q6 -41 35 -106.5t76 -125t109 -98.5q50 -31 107 -31q15 0 30 2q82 16 142.5 71.5t98.5 128.5q40 72 56 152q15 71 14 133v15q-12 135 -80 202q-68 66 -176 84q-50 9 -107 9q-65 1 -139 -11 q-138 -22 -288 -63t-301.5 -94t-286.5 -98q-82 -29 -153.5 -53.5t-140.5 -49t-141.5 -49t-158.5 -49.5q-6 -135 -16.5 -246.5t-24.5 -211t-31.5 -190.5t-38.5 -184q-49 -211 -94 -437t-106 -462q-53 -201 -122 -394t-166 -364t-227 -312.5t-305 -235.5q-147 -81 -320 -99 q-52 -6 -104 -5q-120 0 -239 30q-166 45 -290 144.5t-200.5 234.5t-102.5 300z" />
<glyph unicode="U" horiz-adv-x="3323" d="M145 1774q4 59 15.5 113.5t34.5 111.5q57 162 162.5 303t248 245.5t313.5 163t359 58.5q90 0 180 -15.5t172 -45t152.5 -72.5t126.5 -94q88 -90 146.5 -198t89 -226.5t38.5 -246.5q3 -51 3 -103q0 -78 -7 -158q-10 -109 -28.5 -218.5t-45.5 -220.5q-72 -285 -142.5 -549 t-160.5 -524q-18 -53 -26.5 -93t-10.5 -68q-6 -47 2 -60q4 -2 9 -2q18 -1 52 25q44 34 107.5 98.5t140 157t161.5 198t172.5 220t169 227t155.5 216t129 187.5q31 109 62.5 222.5t58.5 218t45.5 190.5t24.5 139q2 29 -3.5 52.5t-9.5 41.5q-4 10 -6 13.5t0 19.5q4 29 29.5 40 t60.5 13h15q80 0 134 -19q58 -21 92 -57t45 -83q9 -40 9 -78v-14q-10 -115 -45 -269.5t-82 -331t-103.5 -364.5t-111.5 -369l-115 -376q-16 -55 -35.5 -122t-37 -139.5t-31.5 -148.5t-20 -150q-5 -48 -4 -95q0 -56 6 -110q12 -98 58 -172.5t132 -119.5t225 -45q20 0 45 2 t47 4q44 -20 44 -41q0 -2 -1 -6q-8 -24 -61 -56q-70 -12 -133.5 -17t-122.5 -5q-203 0 -327 60.5t-189 161.5q-66 102 -82 232q-9 75 -9 152q0 58 5 119q10 127 40 259t62 243q35 147 79 299.5t97 330.5q-195 -260 -347 -460.5t-273 -350t-213 -250t-166 -162t-132 -88 t-112 -26.5q-70 0 -149 43q-52 31 -70 89q-13 43 -14 94q0 18 2 36q2 31 9 67t16.5 72.5t19.5 71.5t18 64q10 35 20.5 66.5t20.5 66.5q74 231 152 481t133 496q23 104 43.5 226t30.5 251q10 113 10 226.5t-16.5 220t-52 201.5t-95 172t-147.5 131t-209 77h2q-18 2 -37 2 q-94 0 -190 -43q-116 -51 -216 -145.5t-174.5 -220.5t-101.5 -265v2q-4 -18 -7 -37.5t-5 -35.5q-3 -36 -3 -71q-1 -80 15 -156q22 -110 68.5 -196.5t110 -139t134.5 -54.5q15 -2 30 -2q65 0 127 36q77 44 143.5 113.5t117.5 152.5t78 153q2 8 4 15t4 15q6 31 18.5 54.5 t57.5 23.5q29 0 38 -17.5t5 -45.5q-2 -27 -10 -51.5t-15 -38.5q-4 -8 -5 -11.5t-1 -5.5q-41 -109 -113.5 -211t-168 -182t-207 -129t-232.5 -49q-43 0 -85 7t-85 22q-104 39 -180 104.5t-123 149t-67 183.5q-14 67 -14 136q0 34 3 68z" />
<glyph unicode="V" horiz-adv-x="3547" d="M125 1450q2 23 10 67t23 91q45 182 148.5 351t249.5 305t325.5 230.5t375.5 124.5q49 6 93.5 10.5t64.5 4.5q162 0 306.5 -45t250.5 -135l-14 10q145 -115 231 -265.5t127 -324.5t46 -366q1 -46 2 -93q0 -148 -13 -301q-4 -43 -7 -85t-9 -83q-16 -143 -39 -300t-47 -300 l-17 -96q-14 -70 -26.5 -145.5t-22.5 -143.5q-23 -137 -53.5 -280.5t-65.5 -266.5q111 102 219.5 239.5t211 289t196.5 309.5t176 305.5t147.5 273t110.5 213.5q78 162 158 344.5t145.5 361.5t111.5 346t58 300q4 47 4 90q0 22 -1 42q-3 62 -13 108q-6 14 -11 35.5t-8 45 t-2 46t11 41.5q18 20 45 14t54.5 -26.5t51 -46t33.5 -42.5q59 -169 59 -384q0 -69 -6 -142q-12 -143 -53 -307t-101.5 -339t-140 -356.5t-171 -359.5t-190.5 -348t-202 -322q-86 -121 -183 -243.5t-196.5 -234t-199 -210t-187.5 -170.5q-63 -49 -130.5 -93t-137.5 -79 t-141.5 -55.5t-141.5 -20.5q-29 0 -57.5 1.5t-44.5 5.5q-33 4 -57.5 19t-16.5 40q2 8 9.5 19.5t13.5 21.5v-2q20 20 40.5 51t31.5 66q20 59 47.5 163.5t58.5 241.5t62.5 299t60.5 335t52.5 350t37.5 347q14 167 18 309q2 67 3 125q0 64 -3 115q-14 164 -57 325t-124 292 t-201.5 218t-290.5 105q-123 -14 -246 -92t-224.5 -195.5t-170 -266t-82.5 -304.5q-3 -41 -3 -80q1 -104 23 -204q32 -138 92 -242.5t142 -163.5q72 -52 148 -52q10 0 20 1q90 2 172 61.5t149.5 148.5t115.5 191.5t71 188.5q0 8 -1.5 17t1.5 17q4 33 15 58.5t56 29.5 q31 4 40 -19.5t5 -53.5q-2 -25 -6 -41.5t-8 -28.5v2q-4 -10 -4 -12v-4l2 2l-4 -8l-2 -2q0 -4 -1 -6.5t-1 -6.5h2q-39 -135 -114 -267t-177.5 -236.5t-230.5 -169t-271 -64.5q-35 0 -65.5 2t-53.5 8q-133 31 -229 103.5t-157.5 173t-87.5 223.5q-17 84 -17 172q0 41 4 84z " />
<glyph unicode="W" horiz-adv-x="4024" d="M125 1253q2 20 9 60.5t20 87.5q43 170 139 326.5t230 282.5t301 210t354 111q47 8 83.5 11t59.5 3q147 0 282.5 -43t233.5 -123q127 -104 206 -240.5t119 -294t47 -330.5q2 -53 2 -106q0 -122 -11 -247q-6 -82 -19 -164q-14 -133 -37.5 -276.5t-46.5 -274.5l-16 -88 q-12 -66 -23.5 -132.5t-19.5 -131.5l-13 -62q-2 -14 -5 -31.5t-5 -31.5q-4 -23 -3 -29t-7 -37q72 141 149.5 289.5t154.5 294t150.5 280.5t139.5 250q-4 16 -15.5 30.5t-21.5 24.5h2q-8 8 -14 21q-4 23 10 34t41 27q29 14 52.5 21.5t47.5 11.5q27 8 54 -2q41 -8 68.5 -42 t37.5 -75q20 -80 39.5 -196.5t36 -249.5t29 -274.5t22.5 -272.5l6 -59q49 147 100.5 317t104.5 354l27 91l26 92v-2q59 209 116.5 408.5t115.5 373.5q39 119 87 254t109.5 270t136 259t164.5 219.5t197.5 152.5t234.5 57q86 0 178.5 -27.5t200.5 -90.5q6 -18 10.5 -32.5 t2.5 -31.5q-2 -18 -15.5 -30.5t-48.5 -22.5q-102 45 -190 45q-106 0 -195.5 -56.5t-163 -149.5t-134 -213t-108 -245t-84 -245.5t-65.5 -216.5l-80 -269l-53 -180q-53 -190 -115.5 -402t-127 -415t-126 -378t-112.5 -292q-31 -61 -84.5 -121.5t-118.5 -83.5q-20 -6 -41 -8 t-35 -2q-55 0 -86 27.5t-46 75t-19 106.5t-7 125l-4 8q-16 111 -26 244t-23 270l-4 41q-10 150 -24.5 278t-30.5 242q-70 -127 -149 -272t-158.5 -293.5t-156.5 -294t-144 -274.5q-6 -10 -14.5 -25.5t-12.5 -25.5q-4 -6 -8 -15.5t-6 -13.5q-47 -92 -107.5 -179t-159.5 -141 q-76 -39 -166 -39q-23 0 -56.5 4.5t-59.5 8.5q-35 4 -58.5 19.5t-17.5 39.5q8 18 25 39q16 18 35.5 46t29.5 59q14 35 31.5 106.5t32.5 165.5l16 80q59 268 115.5 545.5t89.5 562.5h-2l4 51q2 16 4 30.5t2 30.5q12 131 13 277v16q0 138 -18 278q-18 148 -57.5 285.5 t-111.5 246t-177.5 181t-252.5 91.5q-115 -10 -227.5 -80t-206 -177.5t-157 -244.5t-75.5 -281q-3 -34 -2 -68q-1 -99 21 -191q30 -124 86 -219t130 -149q67 -48 138 -48q8 0 16 1q82 2 157 56.5t136.5 136.5t105.5 176t64 174h-2q0 2 2 7t2 16q4 33 15.5 57.5t54.5 28.5 q33 4 42 -18.5t5 -53.5q-4 -29 -11 -57.5t-12 -38.5v2q-35 -125 -104.5 -247t-165.5 -218t-215 -155.5t-250 -59.5q-29 0 -57.5 2t-54.5 8q-123 29 -213.5 94.5t-147.5 157.5q-57 93 -79 205q-16 78 -16 160q0 37 3 75z" />
<glyph unicode="X" horiz-adv-x="3031" d="M96 1660q0 32 2 64q2 23 3 45.5t5 45.5q18 150 81 291t163.5 259.5t233.5 209.5t297 145q101 33 207 48q84 12 162 12q21 0 42 -1q86 -4 168 -22.5t152 -49.5q178 -84 307 -221t221 -309t150.5 -367.5t95.5 -398.5q12 -63 21.5 -119.5t17.5 -117.5q109 160 218.5 320.5 t211.5 309t195.5 280.5t166.5 234q18 6 34.5 6t31.5 -6q21 -9 21 -43q0 -13 -3 -30q-70 -100 -165 -237.5t-205.5 -301.5t-233.5 -346t-250 -371l17 -110q20 -158 40.5 -313.5t47.5 -315.5q25 -123 53.5 -248t64 -240.5t81 -218t102.5 -178.5t130 -122t165 -50q11 -1 22 0 q50 1 108 15q70 18 154 59q55 -2 56 -47q0 -10 -8.5 -26.5t-18.5 -35.5q-160 -92 -291 -129q-118 -33 -221 -33h-22q-172 8 -297 106.5t-216.5 252t-155 347.5t-110.5 390q-18 76 -32.5 159t-26.5 161l-4 30q-57 -86 -132 -196.5t-156 -230t-163 -240.5t-154.5 -228.5 t-131 -193.5t-91.5 -135q-12 -10 -28.5 -18.5t-31.5 -9.5t-27.5 11.5t-14.5 46.5q41 66 106.5 166.5t143.5 219t165 249.5t174 260t167 251t145 220l-24 183l-4 30q-12 102 -25.5 206t-34.5 212q-25 123 -59.5 270.5t-87 297t-124 291t-167.5 252t-220 180t-282 77.5 q-14 1 -28 1q-22 0 -44 -2q-38 -3 -75 -7q-90 -25 -169 -85t-142.5 -145t-105.5 -189.5t-58 -215.5q-2 -16 -4.5 -35.5t-2.5 -38.5q-2 -22 -2 -45q-1 -31 3 -62q6 -54 14 -112q31 -119 90 -226.5t135 -188t160 -130t164 -53.5q18 -2 36.5 -1t32.5 5q74 16 130.5 67.5t96 121 t65.5 151.5t36 162q4 35 6 73t2 66l-8 31q0 2 -1 3t1 5q-4 25 1 45.5t40 30.5h-2q27 8 40 -7t19 -42t7 -54.5t1 -43.5q0 -37 -3 -73t-7 -65q-18 -127 -70.5 -248.5t-136.5 -219t-198.5 -159t-255.5 -65.5q-150 8 -275 68.5t-217 161t-144.5 231.5t-56.5 279l-2 -3 q-4 29 -4 61z" />
<glyph unicode="Y" horiz-adv-x="3280" d="M18 1880q0 98 31 195q43 147 138.5 275t230.5 222t304 147.5t359 53.5h13q186 0 358 -53q178 -56 299 -152q102 -84 173 -182t114 -209t62.5 -228.5t19.5 -240.5q0 -96 -8.5 -194.5t-22.5 -192.5q-16 -119 -46 -253t-63 -263q-25 -100 -47 -198.5t-39 -192.5l-6 -29 q-8 -41 -17 -95t-9 -100q0 -31 6 -52t20 -29q5 -2 11 -2q25 0 66 29q50 34 112 102q59 61 127.5 146t141.5 183.5t146.5 204t142 207.5t129 198.5t105.5 176.5l-2 -2q18 106 30.5 195t12.5 151q0 27 -7 49t-13 41q-4 10 -6 13t-2 18q0 27 24.5 37t59.5 12h16q77 0 130 -18 q58 -19 94 -54t51.5 -79t15.5 -89q-8 -164 -37 -363.5t-72 -415.5t-96 -441.5t-108.5 -441.5t-111 -413.5t-102.5 -359.5q-41 -137 -89 -286.5t-105.5 -293t-123 -274.5t-139 -232.5t-156.5 -167t-173 -75.5q-16 -2 -34.5 -3t-35.5 -1q-123 0 -201.5 52t-125.5 142 q-37 72 -51.5 143.5t-14.5 143.5q0 135 45 264q39 113 103.5 223.5t146.5 217t175 206t187.5 189.5t184.5 169.5t168 147.5q88 324 157.5 632t137.5 620q-199 -301 -361 -523.5t-280 -363.5q-158 -174 -282 -262t-228 -88q-76 0 -154 32q-66 29 -89.5 94.5t-23.5 143.5 q0 61 9.5 124.5t19.5 115.5l35 129q27 102 54.5 212.5t53 223.5t47 225.5t37.5 218.5q10 94 19.5 200.5t9.5 217.5q0 156 -25.5 312.5t-94 288.5t-189.5 225.5t-313 123.5h2q-20 2 -40 2q-95 0 -189 -39q-113 -47 -206.5 -132t-158 -200.5t-78.5 -242.5v2q-3 -29 -3 -58 q0 -85 22 -168q30 -112 85.5 -200t130 -142.5t154.5 -56.5q14 -1 27 -1q66 0 127 32q75 39 136.5 102.5t105.5 138.5t67 140q0 6 2 12t2 13q4 27 16.5 48t55.5 21q31 0 40 -16.5t9 -38.5q0 -27 -4 -46.5t-9 -33.5q-6 -10 -6 -20q-35 -98 -99.5 -190.5t-151.5 -164 t-196.5 -115.5t-234.5 -44q-43 0 -87 5t-91 17q-113 37 -197.5 97.5t-142 138t-87.5 170t-30 190.5zM1638 -1634q0 -16 2 -34t7 -36q16 -102 54 -149.5t85 -47.5h4q51 0 110 53q60 56 109 156q55 113 113.5 266.5t114 320.5t106.5 334t92 304q-98 -90 -212 -201.5 t-218 -234.5t-191.5 -253t-134.5 -257q-16 -57 -28.5 -113.5t-12.5 -107.5z" />
<glyph unicode="Z" horiz-adv-x="2983" d="M164 1892q0 164 70.5 302.5t181.5 240.5q92 80 207.5 141.5t243.5 103.5t258 63.5t249 21.5q43 0 85 -3t83 -7q199 -25 405.5 -79.5t409.5 -113.5q184 -55 368.5 -104.5t354.5 -73.5q127 86 256 137t258 51q70 0 137 -18q53 -16 73 -54q9 -18 9 -37q0 -23 -12 -48 q-33 -72 -101.5 -127.5t-155.5 -94.5t-185.5 -63.5t-190.5 -34.5q-84 -102 -162.5 -227t-149.5 -257t-131.5 -260t-109.5 -235l-12 -22q18 -2 39.5 -3t38.5 -1q53 0 107.5 14t99.5 37q16 12 25 8t11.5 -16.5t0 -29t-8.5 -28.5q-43 -102 -117.5 -141t-170.5 -39 q-27 0 -53.5 1t-55.5 5q-113 -244 -252 -490.5t-311 -459.5q135 -33 273 -91.5t272 -125.5q182 -98 348 -221t293 -259.5t201.5 -278.5t74.5 -280q0 -47 -8 -91t-23 -81q-8 -14 -31.5 -41.5t-52 -52t-57.5 -40t-47 -5.5q-16 8 -19.5 22.5t-1 31t7.5 30.5t9 25q10 35 10 63 q0 96 -67.5 200.5t-173 208t-234.5 201t-250 177t-220 136t-146 81.5q-90 47 -184.5 87t-192.5 74q-135 -123 -289 -200.5t-320 -98.5q-20 -4 -44.5 -4h-47.5q-109 0 -226.5 28t-217.5 82t-173 134t-93 186q-8 33 -9 72q0 57 17.5 114.5t47.5 113t70 104.5t83 90 q70 59 153.5 88t161.5 29q80 0 152.5 -26.5t125.5 -76.5q52 -52 78 -124q17 -49 16 -107q0 -27 -3 -57q-4 -35 -13.5 -66t-29.5 -63q143 71 335 71h25q168 205 302 454t261 511q-23 2 -46 3t-42 1q-109 0 -202 -37t-164 -137l-3 -2q-12 -10 -21 -7t-15.5 12t-7.5 22.5 t6 25.5h-2q37 94 86 156.5t105 99.5t118.5 51.5t130.5 14.5q37 0 72.5 -2t70.5 -9q61 127 126 253t135.5 245t147.5 229.5t163 206.5q-180 29 -377 84.5t-389 112.5q-131 41 -261.5 79t-255 67.5t-242.5 48t-222 18.5q-76 0 -146.5 -10.5t-134.5 -36.5q-86 -31 -147.5 -86.5 t-102.5 -124t-60.5 -147t-19.5 -156.5q0 -49 6.5 -96.5t22.5 -90.5q28 -86 94 -133q64 -45 147 -45h7q47 2 90 44t80 101.5t63.5 126t38.5 121.5q4 4 4 10.5t4 14.5q4 27 12.5 53.5t41.5 22.5q20 -4 29.5 -17.5t11.5 -32t-2.5 -37t-10.5 -30.5q-14 -61 -38.5 -125.5 t-57.5 -126t-75 -117t-93 -96.5q-59 -47 -122.5 -69.5t-123.5 -22.5q-57 0 -110 19.5t-98.5 55.5t-78 84t-46.5 105q-31 117 -31 223zM580 -90q0 -63 23.5 -119.5t66.5 -99.5t101 -67.5t128 -24.5q47 0 99.5 11t105.5 40q61 31 115.5 67.5t109.5 81.5q-158 0 -266 -67 q4 4 -11.5 -7.5t-23.5 -19.5q-16 -12 -30.5 -24.5t-30 -17.5t-30.5 -2t-30 22q-18 22 -18 40q-1 10 5 18q16 23 44 46l27 25q55 62 96 134q37 66 37 131v13q0 45 -16.5 79t-43 56.5t-61.5 33.5t-74 11q-43 0 -87 -14t-77 -43q-86 -72 -122.5 -150.5t-36.5 -152.5zM3348 2320 q61 0 134 11.5t132.5 31t93.5 43t19 45.5q-12 16 -40.5 13.5t-67.5 -16t-81 -34t-81 -40t-69 -35t-40 -19.5z" />
<glyph unicode="[" horiz-adv-x="741" d="M-37 14.5q-4 135.5 11.5 313.5t44 374.5t65.5 403.5t77 400.5t80 362.5t72 294q33 131 92.5 201.5t136 99t166 25.5t178.5 -16t172.5 -28.5t153.5 -11.5q35 -6 74 -10t80 6q20 0 32.5 8t18.5 10q10 4 12.5 -5t-4.5 -25q-14 -51 -23 -82t-34 -51q-23 -25 -56.5 -35.5 t-69.5 -13.5t-68.5 -2t-51.5 3q-188 20 -319 35t-197 19q-4 -57 -14 -119t-21.5 -119t-20.5 -103t-9 -73q-66 -309 -111 -546.5t-76.5 -422t-53 -325t-39 -258t-35 -222t-40.5 -213.5q147 -12 248 -20t164.5 -12t97 -7.5t49.5 -3.5q35 -6 74 -10t78 6q20 0 32.5 8.5 t18.5 10.5q10 4 14.5 -5.5t-6.5 -25.5q-12 -51 -22 -82t-33 -51q-23 -25 -56.5 -35t-69.5 -14t-68.5 -2t-51.5 2q-109 12 -184.5 21t-129.5 14.5t-90 8.5t-67 5q-4 -4 -15 -6t-22 4l-26 8l-47 4q-55 8 -81 90t-30 217.5z" />
<glyph unicode="\" horiz-adv-x="1230" d="M136 2050q-9 70 3 125q14 104 121 188q16 14 29.5 13.5t17.5 -21.5q2 -10 1 -42t11 -72q20 -84 52 -161t67 -147q16 -39 57.5 -136t94.5 -223t112.5 -266.5t114.5 -268.5t97 -228t63 -145q14 -37 37.5 -95.5t44 -126t31 -137t-2.5 -127.5q-10 -51 -38.5 -97t-83.5 -89 q-16 -14 -28.5 -13t-14.5 21q-4 10 -3.5 42t-9.5 73q-31 82 -51 134t-32.5 85t-19.5 53.5t-13 36.5q-18 41 -60.5 138.5t-96.5 222t-113.5 264t-114 266.5t-97.5 226t-63 145q-14 37 -38 97t-44.5 127.5t-29.5 137.5z" />
<glyph unicode="]" horiz-adv-x="636" d="M-719 -308q-2 9 4 25q14 51 23.5 82t34.5 51q20 25 55 35.5t70.5 13.5t68.5 2t51 -3q188 -20 318.5 -35t195.5 -19q2 57 13.5 119t23 119t20.5 103t9 73q66 309 111 546.5t76.5 422t53 325t39 258t35 221t39.5 214.5q-147 12 -247.5 20t-164 12t-97 7.5t-48.5 3.5 q-35 6 -73.5 10t-77.5 -6q-20 0 -32.5 -8.5t-19.5 -10.5q-10 -4 -14 5.5t6 25.5q12 51 22.5 82t33.5 51q23 25 56.5 35t68 14t67.5 2t51 -2q109 -12 184.5 -21t130 -14.5t90.5 -8.5t66 -5q4 4 15.5 6t21.5 -4l27 -8l47 -4q55 -8 81.5 -90t30 -217t-12 -313.5t-43 -375 t-65.5 -403.5t-78 -400.5t-80 -362.5t-73 -294q-33 -131 -92 -201.5t-136 -99t-165 -25.5t-177 16t-173 28.5t-154 11.5q-35 6 -73.5 10t-79.5 -6q-20 0 -32.5 -8t-19.5 -10q-10 -4 -12 5z" />
<glyph unicode="^" horiz-adv-x="1167" d="M66 1765q0 6 7 15.5t19 20.5t27.5 24.5t30.5 25.5q16 14 26 25.5t14 15.5l21 21v-2q31 33 86 91t116.5 119.5t119 115t94.5 75.5q4 8 13 10t24 5q20 4 49.5 -7.5t40.5 -33.5q29 -35 66.5 -88.5t73.5 -108.5t63.5 -101t37.5 -63q2 -4 10.5 -16.5t18.5 -26.5 q16 -23 29.5 -41t9.5 -29q-6 -10 -18.5 -13t-28 -3t-30.5 4t-23 10h2q-27 12 -57.5 47t-62.5 79t-63.5 95.5t-60.5 98.5l-35 59q-29 -27 -64.5 -66.5t-78.5 -84.5q-51 -55 -105.5 -112.5t-105.5 -105.5t-96.5 -81t-77.5 -37q-12 0 -27.5 4t-30 12t-24.5 20.5t-10 26.5z" />
<glyph unicode="_" horiz-adv-x="1560" d="M35 41q2 55 22.5 92t55.5 60q39 27 101 40t130 18t130.5 4t103.5 -1q141 -4 272 -8t264 -8h39h55.5t89 1t138.5 3q39 4 64.5 15t35.5 11q18 4 25.5 -6t7.5 -26q-4 -55 -23.5 -90t-56.5 -60q-41 -27 -102.5 -40t-128 -18t-129 -4t-103.5 1q-141 4 -274.5 7t-262.5 7 q-78 2 -159.5 4t-161.5 -8q-39 -4 -66.5 -14.5t-35.5 -12.5q-16 -2 -23.5 8.5t-7.5 24.5z" />
<glyph unicode="`" horiz-adv-x="608" d="M39 2087q-10 53 14.5 94t61.5 64.5t75.5 27.5t61.5 -16q12 -47 30.5 -120t46 -146.5t70.5 -137t105 -94.5q10 -6 21.5 -6h18.5t8 -1t-5 -9q-41 -45 -80 -61.5t-80 -12.5q-63 6 -121.5 53t-105.5 111.5t-79 134.5t-42 119z" />
<glyph unicode="a" horiz-adv-x="1497" d="M-156 348v28.5t2 31.5q12 102 52.5 227t102.5 253t144 248.5t179.5 214t206 149.5t225.5 56q90 0 159.5 -43t116.5 -111q46 -69 68 -154q17 -66 17 -134q0 -19 -1 -37q-6 -59 -24 -110l-2 -2q-4 -6 -23.5 -12.5t-28.5 -6.5q-25 0 -43 25q8 23 11.5 42t7.5 42v18 q0 43 -8 89q-10 56 -34 101.5t-63 75t-94 29.5q-72 0 -145.5 -56.5t-141 -145.5t-127 -199.5t-105.5 -220t-74.5 -206t-33.5 -155.5q-2 -29 -1 -61.5t11.5 -60t31 -45t57.5 -17.5q63 0 134 64.5t137.5 156.5t123.5 193.5t96 177.5q6 23 20 53q10 24 10 51q0 8 -1 16 q-4 29 22.5 38.5t57.5 11.5q121 -10 169 -56.5t54 -109.5q1 -16 1 -32q-1 -51 -15 -109q-20 -76 -29 -142q-2 -14 -7 -47t-9 -72q-5 -39 -7 -79q-1 -12 0 -24q0 -24 4 -42q6 -26 18.5 -34.5t39.5 13.5q49 49 104.5 128t109.5 168t104.5 180.5t91.5 166.5q23 49 46 93.5 t40 72.5q14 6 30 6q18 0 29.5 -11t19.5 -27l-20 -45q-29 -57 -67 -133t-82 -160t-94 -170t-100 -164t-102.5 -142.5t-99.5 -103.5q-41 -35 -98 -57.5t-113 -22.5q-74 0 -114.5 52.5t-60 125t-21.5 150.5v30q0 58 6 99v5t2 15q-55 -92 -122 -179t-141.5 -154.5t-156.5 -109.5 t-168 -42q-80 0 -135 28.5t-88 76t-47.5 111t-14.5 132.5z" />
<glyph unicode="b" horiz-adv-x="1429" d="M-41 334q2 90 24.5 223t54.5 287.5t72 320.5t76 322q25 106 48.5 205.5t42 182.5t30.5 146.5t17 102.5q2 35 -1.5 59.5t-7.5 42.5q-2 10 -3 19.5t-1 17.5q2 29 23.5 38t50.5 9q80 0 128 -24.5t73.5 -64.5t31.5 -91q4 -32 5 -64q0 -20 -2 -41q-8 -84 -28 -185 t-45.5 -212.5t-55 -229.5t-60.5 -233l-6 -21t-4 -14.5t-4 -16.5t-6 -23q53 80 114.5 151.5t129 125.5t140 86t148.5 32q80 0 135.5 -27.5t89 -74t48 -109t14.5 -129.5q0 -16 -1 -33.5t-3 -34.5q-8 -82 -38 -185.5t-77 -213t-108.5 -218t-133.5 -200.5q94 70 189.5 157 t182.5 185t162 205.5t130 222.5l2 2q25 27 46.5 19.5t41.5 -35.5q-43 -102 -132 -239.5t-211 -276t-271.5 -262t-311.5 -199.5q-84 -39 -185 -72t-204 -33q-51 0 -100 13q-117 33 -187 130q-63 87 -64 225q0 16 1 32zM236 256q0 -57 12 -93t47 -36q25 0 59 18 q66 33 128.5 102.5t119.5 158t106.5 188.5t86 194.5t60.5 176.5t28 135q2 29 1 61.5t-10.5 60t-30 45t-57.5 17.5q-59 0 -121.5 -52t-123 -130t-115.5 -168t-96 -168l2 2l-13 -49q-12 -43 -26 -102.5t-26.5 -122t-21.5 -125t-9 -113.5z" />
<glyph unicode="c" horiz-adv-x="1146" d="M-16 498v52t4 54v-2q10 115 40.5 232.5t79 229.5t112 209t140 171t163.5 116t182 42q90 0 160.5 -42t118.5 -110t70 -153q18 -67 19 -135q0 -18 -2 -36t-5 -40.5t-10 -43t-22.5 -34t-42.5 -13.5q-10 2 -19 6.5t-22 16.5q8 29 13.5 54.5t7.5 47.5q1 14 1 29q0 28 -3 56 q-4 42 -16.5 75t-32 53.5t-46.5 20.5q-41 0 -91 -41t-101 -110.5t-102.5 -162t-93.5 -194t-73.5 -208t-45.5 -202.5q-2 -16 -3.5 -35.5t-1.5 -35.5q0 -49 8.5 -92.5t27 -77t49 -53t77.5 -19.5q80 0 152 46t133 114.5t112.5 148.5t92.5 148v-2q49 86 91 168.5t77 150.5 q16 31 36.5 70t36.5 67q25 10 31 10q18 0 29.5 -11t19.5 -27l-20 -45q-37 -76 -91 -181.5t-120 -218.5q-55 -98 -123 -205.5t-155 -195.5t-198.5 -145.5t-254.5 -57.5q-106 0 -181 45t-121 120t-66.5 172t-20.5 204z" />
<glyph unicode="d" horiz-adv-x="1656" d="M-147 334v32.5t2 32.5q12 102 52 227.5t102.5 253.5t144.5 248.5t179 214t205.5 149.5t225.5 56q55 0 102 -16t88 -47l21 78q23 96 43 184t36.5 161.5t27 129t12.5 86.5q2 35 -1 59.5t-8 42.5q-2 10 -3 19.5t-1 17.5q2 29 25.5 38t52.5 9q80 0 128 -24.5t72.5 -64.5 t30.5 -91q4 -32 5 -64q0 -20 -2 -41q-4 -47 -18.5 -126.5t-37 -181t-50 -219.5t-56.5 -243q-8 -41 -22.5 -99t-30.5 -124q-23 -86 -46.5 -184t-44 -195.5t-33 -186.5t-12.5 -157v-34.5t5 -30.5q12 -84 73 -84q25 0 54.5 12t58.5 31.5t55.5 43t46.5 46.5q53 59 102.5 134 t93.5 152.5t82 154.5t68 138q29 57 48.5 98.5t31.5 57.5q8 6 17.5 8t15.5 2q16 0 27.5 -11t19.5 -28q-20 -37 -39.5 -82t-42.5 -88q-37 -74 -75.5 -152.5t-80.5 -156.5t-86 -151.5t-92 -135.5q-35 -43 -73.5 -86t-83.5 -77.5t-96.5 -57t-112.5 -26.5q-180 0 -255 91t-75 257 q0 18 1 39.5t3 44.5v22.5t1 16.5t2 19t5 32q-57 -94 -124.5 -186.5t-144.5 -166t-161 -118.5t-172 -45q-80 0 -135 27.5t-89 74.5t-48 109.5t-14 130.5zM195 315.5q2 -32.5 11 -60.5t29.5 -45t57.5 -17q45 0 94 32.5t98.5 86t95.5 121t88 136t75.5 133t58.5 111.5l-2 -2 q23 102 47 212t51 222q4 23 11.5 42.5t11.5 41.5q-41 31 -99 31q-72 0 -145.5 -56.5t-141 -145.5t-127 -199.5t-105.5 -220t-74.5 -206t-32.5 -155.5q-4 -29 -2 -61.5z" />
<glyph unicode="e" horiz-adv-x="1146" d="M-27 498v52t4 54v-2q10 115 41 232.5t79 229.5t111.5 209t140.5 171t164 116t181 42q90 0 161 -39t119 -101.5t72 -141.5q20 -68 19 -137v-24q-12 -115 -82 -211t-168 -169.5t-212 -123t-218 -71.5q-8 -35 -13 -72t-10 -78q-2 -16 -2 -33.5v-33.5q0 -45 7.5 -87t26 -76 t51 -55.5t81.5 -25.5q78 2 147.5 49t130 115.5t111 147.5t89.5 145v-2q49 86 91 168.5t76 150.5q16 31 37 70t37 67q25 10 31 10q18 0 29.5 -11t19.5 -27l-20 -45q-37 -76 -91 -181.5t-120 -218.5q-55 -98 -123 -205.5t-155 -195.5t-198.5 -145.5t-255.5 -57.5 q-106 0 -181 45t-121 120t-66.5 172t-20.5 204zM412 694q70 8 162 45t177 96.5t146 137.5t70 170q1 13 1 26q0 63 -32 129q-31 59 -74 60q-39 0 -85 -37t-92 -96.5t-91 -133t-81 -147.5t-63.5 -140.5t-37.5 -109.5z" />
<glyph unicode="f" horiz-adv-x="976" d="M-399 -1184q0 156 22.5 344.5t60 395t87 424t103.5 431.5t108.5 414.5t103.5 374.5q27 100 54.5 200.5t51 188.5t39 158t21.5 108q4 20 4 37v33v37.5t-2 34.5q-2 16 -3 28.5t1 22.5q6 33 32.5 44t57.5 9q76 -4 125 -28.5t77.5 -64.5t41 -92t12.5 -110q0 -27 -2 -56.5 t-6 -55.5q-6 -39 -22.5 -107.5t-40 -160t-51 -196.5t-58.5 -218q-49 -184 -98.5 -366.5t-83.5 -332.5q20 -33 41.5 -67.5t41 -80.5t39 -110.5t35.5 -156.5q76 49 152 149t146.5 223t134 255t116.5 245q41 84 70.5 149.5t58.5 108.5q31 14 46.5 9t37.5 -33 q-25 -47 -53.5 -110t-63.5 -134q-59 -129 -131.5 -279.5t-154.5 -289t-172.5 -248t-182.5 -158.5q2 -35 3 -74t1 -82q0 -104 -4 -220t-10 -226q-6 -88 -14 -165t-17 -130q-10 -59 -21 -131t-31.5 -145.5t-50.5 -143.5t-75 -123t-107.5 -86t-146.5 -33q-90 0 -151.5 42 t-99.5 120t-55 186.5t-17 241.5zM-23 -1278q0 -119 21.5 -203t75.5 -98q29 0 55.5 38t49 102.5t41 151.5t30.5 183q10 72 18 149.5t13 153.5q10 123 13 237t3 202q0 39 -1 70.5t-3 53.5h-2q-33 4 -78 12.5t-90 43.5q-4 -20 -7 -39t-7 -37q-35 -180 -66 -366.5t-53 -397.5 q-12 -133 -13 -256zM160 2q27 -39 66.5 -75t62.5 -44q-14 109 -39 183.5t-57 107.5z" />
<glyph unicode="g" d="M-256 -1280q0 70 18 141q51 186 139.5 347t201 303.5t243.5 270.5t270 249q16 80 33 157.5t33 143.5l33 139q-57 -88 -123 -171t-138.5 -147.5t-152.5 -104.5t-162 -40q-80 0 -134 27.5t-88 75t-48 109t-14 130.5q0 14 1 31.5t3 34.5q12 102 52 227t102.5 253t144.5 249 t178 214t204.5 149.5t225.5 56.5q90 0 160.5 -43t118 -112t69.5 -154q15 -60 15 -120q0 -26 -3 -51q-4 -29 -9 -55t-15 -55q-4 -6 -24.5 -13.5t-26.5 -7.5q-27 0 -45 23q8 23 11 43t7 43v19q0 42 -7 88q-9 57 -32.5 102t-62.5 74.5t-95 29.5q-72 0 -145.5 -56t-141 -145.5 t-127 -200t-105.5 -220t-74.5 -205.5t-32.5 -156q-4 -29 -2 -61.5t11 -60t29.5 -45t57.5 -17.5q57 0 116.5 47t118 121t111.5 163t96 171q10 23 20.5 51.5t14.5 56.5q2 10 2 19.5v19.5l-8 47q-4 12 -4 21.5v15.5q4 29 26.5 38t53.5 11q68 0 116 -15t78.5 -43t47 -63.5 t22.5 -78.5q-10 -111 -22.5 -222.5t-28.5 -234.5q55 51 111.5 128t110.5 165t103.5 180t90.5 174q0 2 1 2t1 2q23 14 44 15t48 -29q-53 -109 -121 -233t-141.5 -238.5t-150.5 -207.5t-146 -138q-45 -225 -101.5 -449.5t-124 -428.5t-149.5 -379t-179.5 -299t-211.5 -188 q-89 -52 -190 -52q-27 0 -54 4q-117 14 -185.5 112.5t-68.5 245.5zM-143 -1276q0 -53 23.5 -88t78.5 -35q49 6 93 40t85 87q61 78 114.5 187.5t100.5 232.5t87 249t75 236l43 142l12 55l9 25q-143 -113 -275.5 -256.5t-239.5 -305.5q-23 -37 -57.5 -105.5t-68 -150 t-57 -164.5t-23.5 -149z" />
<glyph unicode="h" horiz-adv-x="1423" d="M-45 336q0 20 1 40.5t3 43.5q6 72 26.5 184.5t50.5 247.5t64.5 284.5t69.5 295.5q27 117 53.5 226t46 201.5t32.5 161t17 105.5q2 35 -1 58.5t-7 43.5q-2 10 -3 19.5t-1 17.5q2 29 24.5 38t51.5 9q78 0 126 -25.5t73.5 -65.5t33.5 -91q4 -31 4 -61q0 -20 -2 -41 q-4 -31 -19 -109t-37.5 -181.5t-50.5 -221t-52 -228.5l-72 -319q27 35 49.5 73.5t50.5 79.5q55 86 115 173t125.5 158t138 115t154.5 44q55 0 93 -19.5t58.5 -54.5t27.5 -81q4 -25 4 -52q0 -23 -3 -49q-10 -113 -54 -254t-91 -283q-47 -135 -86 -261t-49 -218q0 -20 1 -48 t5 -52.5t14 -41t27 -16.5q33 0 83 56.5t108.5 142.5t116.5 186.5t107.5 190.5t82 153.5t38.5 73.5l6 14h-2q10 20 19.5 32.5t34.5 12.5q16 0 28.5 -11t20.5 -27l-62 -125q-41 -80 -90 -176.5t-104.5 -192.5t-115.5 -185t-121.5 -158t-126 -111t-126.5 -42q-72 0 -119 20.5 t-76.5 57.5t-42 88t-12.5 113v30.5t2 30.5q10 80 33 170t52.5 184.5t62.5 185.5t63 171q41 111 73 197t36 127q2 37 -18 36q-37 0 -85.5 -39.5t-102.5 -104t-109.5 -144.5t-106.5 -161t-93 -152.5t-71 -118.5v2l-33 -58h2q-35 -82 -58 -190.5t-34 -204.5q-1 -25 -1 -48 q0 -42 4 -75q8 -51 14 -80q6 -18 6 -30q0 -29 -47 -29q-74 0 -122 29.5t-76 78t-39 109.5t-11 125z" />
<glyph unicode="i" horiz-adv-x="763" d="M-35 379q0 25 1 50.5t3 49.5q16 201 69.5 394.5t117.5 388.5l28 94v-2q6 33 6 57q0 23 5 39q8 27 32.5 32t53.5 -3q86 -31 124.5 -68t38.5 -96q0 -29 -7 -63.5t-19 -75.5q-20 -66 -46 -159t-50.5 -196.5t-44 -206t-29.5 -188.5q-2 -20 -3 -44t-1 -40q0 -72 14 -116 t49 -46q29 0 67 35t81 92.5t88 130t90 151.5t86 155.5t74 140.5q27 49 46 87t35 62q20 10 31 10q27 0 51 -40l-22 -43q-41 -82 -92 -185.5t-111.5 -209t-126 -206t-131 -178.5t-131.5 -125t-125 -47q-72 0 -120 29t-77.5 79t-42 116.5t-12.5 144.5zM305 1763q2 33 14.5 67 t31 60.5t44 43t54.5 16.5q27 0 54 -16.5t52 -53.5q23 -41 32 -74.5t7 -62.5q-6 -70 -59.5 -108t-110.5 -38q-49 0 -86 40q-33 36 -33 110v16z" />
<glyph unicode="j" horiz-adv-x="636" d="M-993 -1239q0 70 18 143q49 188 136 349t201 302.5t246 268.5t271 250q18 88 42 206.5t49.5 247.5t50 259.5t44 240t32 189t14.5 108.5q4 35 -1.5 61.5t-9.5 49.5q-4 12 -4 21v16q4 29 26.5 38t53.5 11q68 0 116 -15.5t78.5 -43t47 -63.5t22.5 -79q-8 -104 -19 -209.5 t-28.5 -221.5t-39 -246t-52.5 -284q57 47 116.5 124t116 168t107.5 188.5t94 183.5l8 6q6 0 13 2q14 4 31.5 4t41.5 -22q-53 -109 -121.5 -234t-142 -239.5t-149.5 -206.5t-146 -137q-47 -223 -103 -448.5t-124 -429.5t-149.5 -379t-178 -299t-209.5 -189q-90 -51 -192 -51 q-27 0 -55 4q-57 6 -103.5 35.5t-79 76.5t-51 109.5t-18.5 134.5zM-881 -1233q0 -53 23.5 -89t81.5 -36q47 6 92 41t86 88q59 80 114.5 194.5t103.5 240.5t89 255t74 238q10 33 18.5 62.5t18.5 58.5v-2q8 27 12 39t10 41q-143 -115 -276 -258.5t-238 -305.5 q-23 -37 -58.5 -105.5t-69.5 -149t-57.5 -165t-23.5 -147.5zM117 1847q8 33 23.5 64t37 55.5t48 37.5t55.5 11q27 -4 51 -23.5t45 -60.5h2q16 -41 20 -75.5t0 -63.5q-8 -35 -27.5 -60.5t-45 -41t-55 -21.5t-56.5 -2q-51 6 -84 47q-21 26 -21 73q0 26 7 60z" />
<glyph unicode="k" horiz-adv-x="1200" d="M-43 332q0 23 1 43t3 43q6 72 26.5 184.5t49.5 247.5t64.5 284.5t70.5 295.5q27 117 52.5 226t46 201.5t32.5 161t16 105.5q2 35 -1 59.5t-7 42.5q-2 10 -3 19.5t-1 19.5q4 29 25.5 37t52.5 8q80 0 128 -24.5t73 -64.5q24 -39 30 -91q4 -31 4 -63q0 -21 -2 -42 q-14 -141 -53 -321t-90 -377q80 78 174 121q53 25 103.5 36t93.5 11q102 -1 160 -67q53 -60 54 -162q0 -10 -1 -21q-12 -109 -68.5 -220.5t-140.5 -204.5t-188.5 -159.5t-212.5 -85.5q6 -18 23 -59t42 -91t54.5 -103.5t63.5 -98.5t68.5 -74.5t67.5 -31.5q3 0 5 -1 q25 0 55 34q34 36 73 101.5t84 156t96 194.5q43 92 96.5 201.5t114.5 226.5q23 8 44.5 5t33.5 -36q-59 -119 -109.5 -228t-93.5 -202q-55 -117 -105 -218t-97 -178t-93.5 -124t-91.5 -59q-24 -5 -48 -5q-58 1 -116 29q-80 40 -151.5 108t-124.5 151t-82 153 q-10 -57 -16 -100t-11 -95q-2 -18 -3 -33.5t-1 -31.5q0 -49 7.5 -85t13.5 -56v2q6 -18 6 -31q0 -29 -47 -29q-74 0 -122 32t-76.5 84t-40 116.5t-11.5 132.5zM311 698q80 14 159 85t141.5 161t101.5 183.5t39 152.5q0 63 -45 63h-2q-33 0 -103 -40q-47 -29 -96 -79t-88 -106 q-29 -109 -56.5 -212t-50.5 -208z" />
<glyph unicode="l" horiz-adv-x="931" d="M-12 475v56.5t4 54.5v-2q6 74 24.5 184.5t47 242.5t69.5 275.5t92 282.5t112.5 265t132.5 221t152 151.5t171 56.5q51 0 84.5 -31.5t54 -78t26.5 -100.5q5 -41 5 -76v-21q-12 -137 -70.5 -274.5t-144.5 -267.5t-190.5 -247.5t-211.5 -214.5l-11 -41t-24.5 -106.5 t-28 -147.5t-22.5 -161q-4 -27 -4 -50.5v-46.5q0 -98 26.5 -165.5t94.5 -67.5q84 0 166 75.5t156.5 186.5t138 233.5t110.5 219.5q25 55 45.5 96t32.5 57q8 6 17.5 8t15.5 2q18 0 29.5 -11t19.5 -27l-70 -142h2q-43 -92 -92 -192.5t-103 -196.5t-114.5 -184t-125 -154.5 t-135.5 -105.5t-146 -39q-100 0 -165 43t-103 111.5t-53 154.5t-15 174zM391 1126q43 37 118 123t150.5 198t135 237.5t69.5 242.5q2 27 2 56.5t-5 56t-15.5 44t-24.5 17.5q-33 0 -84 -74.5t-110.5 -204.5t-121 -308.5t-114.5 -387.5z" />
<glyph unicode="m" horiz-adv-x="2103" d="M-63 336q0 20 1 40.5t3 43.5q12 139 43.5 283.5t66.5 277.5q27 111 50.5 211t29.5 174q2 33 -1 57.5t-7 44.5q-2 10 -3 18.5t-1 18.5q4 27 25.5 37t50.5 10q78 0 126 -25.5t73.5 -66.5t32.5 -91q4 -32 4 -64q0 -18 -1 -37q-4 -55 -16.5 -111.5t-26.5 -105.5 q-8 -35 -12 -47.5t-8 -38.5q27 35 52 75.5t54 83.5q55 86 114.5 173t124 157t136.5 114t153 44q57 0 95.5 -21.5t60 -57.5t28.5 -82q5 -36 5 -73v-22q-6 -72 -28.5 -156t-53.5 -170q10 16 19.5 29.5t19.5 30.5q57 88 117.5 178t127 161.5t140.5 117.5t158 46q55 0 92 -19.5 t57.5 -54t27.5 -80.5q4 -29 4 -63q0 -19 -1 -39q-10 -117 -52 -259t-96 -283q-47 -133 -86 -258t-47 -218q-2 -20 -2 -46.5t5 -51t15.5 -41t28.5 -16.5q31 0 77 50t100.5 128t109.5 172t104.5 182t86 159t53.5 101q0 6 6 13l6 12h-2q10 20 19.5 32.5t31.5 12.5 q18 0 30.5 -11t20.5 -28l-61 -123q-41 -82 -90 -177t-104.5 -191.5t-116 -186.5t-122 -158.5t-126 -110.5t-125.5 -42q-139 0 -195.5 77t-56.5 197q0 14 1 32t3 34q8 80 31.5 171t52.5 184t62.5 184.5t64.5 171.5q41 111 73 196.5t36 128.5q4 27 -11 33q-2 0 -4 1t-6 1 q-47 0 -108.5 -58.5t-128 -147.5t-133 -195.5t-123.5 -202.5q-45 -72 -81 -129.5t-65 -95.5l2 2q-33 -94 -54.5 -181.5t-29.5 -160.5q-1 -17 -1 -34q-1 -36 5 -74q8 -54 33 -103q2 -4 3 -9.5t-1 -15.5q-2 -27 -47 -27q-74 0 -124 24t-80.5 66t-44 97t-13.5 119v31.5t2 31.5 q8 82 31.5 174t52.5 186.5t62.5 185.5t64.5 171q43 111 73.5 198t34.5 130q2 37 -18 36q-37 0 -85 -39.5t-101.5 -104t-108.5 -144.5t-106.5 -161t-93.5 -152.5t-70 -118.5v2l-35 -58h2q-31 -82 -55.5 -190.5t-34.5 -204.5q-1 -26 -1 -50q0 -41 4 -73q7 -51 15 -80 q6 -18 6 -33q-6 -27 -49 -26q-74 0 -122 29.5t-75.5 78t-38.5 109.5t-11 125z" />
<glyph unicode="n" horiz-adv-x="1411" d="M-57 336q0 20 1 40.5t3 43.5q6 68 17 141.5t26.5 148t34 146.5t34.5 137q29 111 50.5 207t27.5 166q2 33 -1 57.5t-7 44.5q-2 10 -3 18.5t-1 16.5q2 29 25.5 39t52.5 10q78 0 125 -25.5t72.5 -66.5t32.5 -91q4 -32 4 -64q0 -18 -1 -37q-4 -55 -15.5 -111.5t-25.5 -105.5 q-6 -23 -11 -43.5t-9 -38.5q25 35 48 73.5t52 79.5q55 86 114.5 173t125 158t138.5 115t155 44q57 0 94 -19.5t58.5 -53.5t27.5 -81q4 -28 4 -59q0 -21 -2 -43q-10 -115 -53 -257.5t-97 -285.5q-45 -131 -83.5 -258t-49.5 -215q0 -20 1 -48t5.5 -52.5t14.5 -41t26 -16.5 q29 0 76 50.5t101.5 128t109.5 172t104.5 182.5t86 157.5t53.5 100.5q0 6 6 12l8 16q10 18 18.5 30.5t30.5 12.5q20 0 31.5 -11t19.5 -27q-14 -25 -31.5 -60t-33.5 -69q-41 -80 -89 -175.5t-102.5 -190.5t-114 -184t-122 -159t-125.5 -111t-127 -41q-72 0 -120 21.5 t-76.5 58.5t-42 88.5t-13.5 112.5v28.5t2 30.5q8 80 31.5 170t52.5 184.5t62.5 185.5t64.5 171q41 111 73 197t36 127q2 37 -19 36q-37 0 -85 -39.5t-102 -104t-109.5 -144.5t-106.5 -161t-93 -152.5t-71 -118.5v2l-33 -58h2q-35 -84 -59.5 -191.5t-32.5 -203.5 q-2 -16 -2 -31.5v-31.5q0 -49 6 -84t12 -58q6 -18 7 -28q0 -29 -45 -29q-74 0 -123.5 29.5t-77 78t-38.5 109.5t-11 125z" />
<glyph unicode="o" d="M4 676v60.5t4 54.5q8 98 22.5 182t37.5 143q41 49 95 71.5t111 22.5q33 0 67 -8t62 -22q10 109 36 216t76 193t131 139.5t204 53.5q100 0 171 -42t117 -114t67.5 -170t21.5 -211q0 -61 -6 -117v2q-16 -160 -67.5 -327.5t-129.5 -315.5q80 16 141.5 60.5t112.5 107t93 137 t81 150.5l45 82q10 4 19.5 8t15.5 4q10 0 20.5 -8t16.5 -33q-35 -82 -90.5 -187.5t-131 -199.5t-173 -161.5t-216.5 -73.5q-53 -80 -113.5 -145.5t-130 -112.5t-145 -74t-157.5 -27q-117 0 -195 62.5t-126 159t-67.5 213t-19.5 227.5zM381 641q0 -76 9 -146.5t31.5 -125 t59.5 -87t90 -32.5q70 0 129.5 32.5t116.5 98.5q-102 31 -176 81t-123 117.5t-76.5 149.5t-38.5 176q-6 -33 -9 -67.5t-7 -69.5q-6 -66 -6 -127zM631 1065q0 -86 10 -180t40 -175t82 -139.5t138 -74.5q39 63 73 140t60.5 157.5t44 165.5t23.5 165q4 29 4 54.5v52.5 q0 88 -15.5 166t-47 135t-82 91t-117.5 34q-47 0 -83 -34t-60.5 -91t-39 -133t-22.5 -158q-4 -37 -6 -82t-2 -94z" />
<glyph unicode="p" horiz-adv-x="1560" d="M-260 -801q0 31 1 65t5 64q10 94 32.5 234.5t52.5 300.5t63.5 326.5t64.5 318.5q27 131 52.5 258t47 237.5t36 196.5t18.5 135q3 29 3 54q0 12 -1 24q-2 35 -6 64q-2 16 -3.5 29.5t0.5 23.5q2 35 25 47t51 12q63 0 105.5 -23.5t68 -64.5t35.5 -95t10 -116q0 -23 -1 -46 t-3 -46q0 -10 -1 -24.5t-3 -24.5q45 86 99.5 167t119 146.5t136 113.5t151.5 69q23 6 45.5 8t44.5 2q74 0 128 -28t92 -75t61.5 -108.5t36.5 -126.5q12 -68 12 -156q0 -86 -12.5 -182t-37 -194.5t-61.5 -195.5t-86 -188q152 125 292 284t235 339l2 4q27 21 47 21q7 0 14 -3 q23 -10 41 -28q-41 -84 -104.5 -181.5t-144.5 -196.5t-178 -196.5t-206 -179.5q-61 -45 -135 -92t-154.5 -85t-164.5 -62.5t-164 -24.5q-78 0 -157 33t-138 94q-16 -78 -29.5 -149.5t-27.5 -131.5q-23 -109 -41.5 -198.5t-35 -177.5t-29.5 -181.5t-24 -203.5 q-4 -31 -4 -57.5v-51.5q0 -61 5.5 -105.5t9.5 -70.5q2 -14 3 -21.5t1 -19.5q-4 -23 -16.5 -29t-28.5 -6q-72 0 -119 41t-77 108.5t-42 152.5t-12 173zM242 283q20 -35 51 -65t67.5 -49t77.5 -27q18 -3 36 -3q23 0 48 6q68 14 126.5 74t104.5 147t81.5 192.5t59.5 212 t36 207.5t12 179q0 29 -2 53.5t-6 44.5q-4 29 -13.5 61t-28 55.5t-44.5 34.5q-16 6 -35 6q-15 0 -31 -3q-49 -10 -97 -53t-94 -104.5t-87 -136.5t-75 -150.5t-61.5 -146.5t-43.5 -124q-18 -98 -39 -200.5t-43 -210.5z" />
<glyph unicode="q" horiz-adv-x="1243" d="M-164 346v29.5t2 32.5q12 102 52 227t103.5 253t145.5 248.5t178.5 214t205 149.5t225.5 56q90 0 159.5 -43t116.5 -111.5t68 -153.5q17 -66 17 -134q0 -18 -1 -37q-6 -57 -25 -108q-4 -8 -24.5 -15.5t-28.5 -7.5q-10 0 -21.5 6t-21.5 19q8 23 11 42t8 42v18q0 43 -8 89 q-9 57 -32.5 102t-62.5 74.5t-94 29.5q-74 0 -146.5 -56.5t-141 -145.5t-128 -199.5t-105.5 -220t-75 -206t-33 -155.5q-2 -29 -1 -61.5t11.5 -60t31 -45t57.5 -17.5q51 0 106 41t108.5 105.5t104.5 142t92 153.5h-2q20 59 47 110.5t64 92.5v-2l10 22h8q39 29 93 44 q37 10 78 10q17 0 34 -2q29 -4 44 -18.5t9 -41.5q0 -2 -6 -14.5t-14 -26.5q-10 -16 -21.5 -39.5t-21.5 -64.5q-12 -37 -24.5 -97.5t-25 -136.5t-25.5 -164t-28 -182l9 21q72 152 141 299t126.5 269t98.5 209t53 122q29 10 52.5 8t37.5 -51q-18 -45 -71 -162t-127 -273.5 t-159 -338t-167 -355.5q-10 -23 -23.5 -49.5t-23.5 -48.5v2q-14 -92 -28.5 -181t-30 -170t-30.5 -150.5t-30 -123.5q-23 -78 -60.5 -156.5t-91 -141t-121.5 -98.5q-52 -28 -113 -28q-17 0 -34 2q-18 4 -28 12.5t-4 24.5q2 4 6 12.5t12 22.5q18 29 45 80t51 127 q35 123 57.5 229.5t39.5 204.5l36 281q16 111 33 233.5t35 241.5q4 35 7 62.5t14 82.5q-53 -74 -110.5 -138t-120 -111.5t-130 -75t-139.5 -27.5q-82 0 -136.5 27.5t-87 76t-47 110.5t-14.5 132z" />
<glyph unicode="r" horiz-adv-x="989" d="M-111 1464q8 66 38 135.5t76 127t107.5 94.5t135.5 37q92 0 130 -54q33 -46 33 -131q0 -13 -1 -28q-6 -57 -22.5 -121t-35 -120t-36 -101.5t-25.5 -67.5q49 -12 95 -14t87 -2q43 0 77 -2.5t57.5 -15.5t33.5 -39q7 -19 7 -50q0 -12 -1 -27q-4 -35 -12 -69l-21 -84 q-18 -74 -37.5 -156t-37 -163t-31.5 -154.5t-21 -128.5q-1 -15 -1 -29q0 -47 10 -81q14 -44 36 -48q37 14 85.5 64.5t98.5 122t103 156.5t101.5 170t89.5 164t71 136l6 14h-2q10 20 19.5 32.5t32.5 12.5q27 0 51 -40l-23 -43q-29 -57 -66.5 -133t-81.5 -160t-94.5 -170 t-100.5 -164t-102 -142.5t-100 -103.5q-41 -35 -97 -57.5t-113 -22.5q-53 0 -90 30t-61 80t-34 115.5t-10 137.5q0 23 1 46t3 46q4 51 20.5 137t39 179t47 179t47.5 142l-140 6q-35 -72 -71.5 -145.5t-71.5 -143.5l-86 21l141 280q-70 6 -120 38t-81.5 80t-45.5 108 q-9 41 -9 83q0 18 2 37zM129 1352q-1 -9 -1 -17q0 -29 10 -49q14 -26 55 -35q8 18 25.5 58.5t34.5 90.5t31.5 101t18.5 92q2 43 -6 43q-16 0 -43 -27.5t-53.5 -70.5t-47 -93t-24.5 -93z" />
<glyph unicode="s" horiz-adv-x="933" d="M-289 121q4 29 30 58.5t58 29.5q25 0 29 -22.5t2 -47.5q0 -33 15.5 -53t41 -30.5t56 -13.5t61.5 -1q164 6 237.5 104.5t80.5 268.5q0 55 -15.5 123.5t-40 142.5t-57.5 145.5t-72 130.5l-90 -202l-74 26l109 256q-72 92 -117 215t-45 250q0 98 34 190t118 160 q37 33 87 49.5t101 16.5q35 0 67.5 -8t57.5 -26.5t40 -48.5t15 -71q0 -63 -28.5 -145t-67.5 -174q-18 -47 -37.5 -94t-36.5 -97q80 -119 152 -239.5t127 -233t88 -211t35 -170.5q47 70 92 146t87 150.5t77 142t59 118.5q0 2 4 7q2 2 2 4l17 32h-2q10 20 19 32.5t32 12.5 q37 0 53 -40l-12 -25l-6 -6q-31 -59 -71 -139t-87 -168t-100.5 -178.5t-108.5 -172.5t-112.5 -148.5t-110.5 -107.5q-49 -35 -109.5 -61.5t-124 -45t-128 -28.5t-122.5 -10q-68 0 -126 12.5t-100 38t-64 64.5q-19 33 -20 76q0 8 1 16zM182 1454q0 -66 25 -121l20 49 q18 45 40 99.5t38.5 103.5t24.5 89t0 57h2q-12 25 -27 26q-18 2 -39.5 -23.5t-40 -69.5t-31 -99.5t-12.5 -110.5z" />
<glyph unicode="t" horiz-adv-x="880" d="M-409.5 1756q-2.5 13 2 22.5t15.5 12.5t30 -9l-3 2q61 -27 134 -37t151 -10q74 0 158 7t164 15q29 129 49 226.5t24 140.5q2 35 -1 58.5t-7 43.5q-2 10 -3 19.5t-1 17.5q4 29 25.5 38t50.5 9q80 0 128 -24.5t73.5 -64.5t31.5 -91q4 -31 4 -62q0 -21 -2 -42 q-4 -53 -15 -115t-26 -131q90 0 173 -10.5t154 -39t126 -78.5t90 -128h-2q8 -16 -6 -34.5t-39 -8.5q-86 86 -210 115.5t-267 29.5h-51q-20 -92 -44 -184t-48 -189l-39 -155l-7 -27q-14 -53 -36.5 -144t-44 -196.5t-37 -212t-15.5 -192.5q0 -59 9.5 -103.5t33.5 -60.5 q18 -14 59.5 -2t100.5 55q63 51 123.5 130t115 169t100.5 181t81 165h-2q29 57 52.5 101.5t45.5 72.5q2 2 23 2q33 0 47 -39l-74 -153h2q-66 -137 -143.5 -288.5t-166.5 -278.5t-189.5 -210t-211.5 -83q-182 0 -253.5 90t-71.5 252q0 23 1 45t3 47q6 70 28.5 190.5t53.5 265 t67.5 303t71.5 306.5l29 117q-70 -6 -133.5 -10.5t-122.5 -4.5q-125 0 -219.5 31t-132.5 115q-4 10 -6.5 23z" />
<glyph unicode="u" horiz-adv-x="1454" d="M-66 256q0 20 1.5 40.5t3.5 43.5q6 68 20 146.5t33.5 160.5t42 165t43.5 159q35 123 62.5 233.5t33.5 177.5q4 33 -1 54.5t-9 38.5v-2q-4 10 -4 16v14q2 29 24.5 39t51.5 10q41 0 83 -12t60 -22q59 -37 79 -110q16 -56 16 -117q0 -18 -1 -36q-8 -90 -32.5 -179 t-47.5 -150q-18 -59 -43.5 -141.5t-48 -169.5t-42 -171t-26.5 -145q-1 -12 -1 -23q0 -31 4 -55q6 -33 24 -33q27 0 69 39t92 102.5t102 141.5t102.5 158t93.5 151.5t74 120.5l-2 -2q20 61 37.5 115.5t31.5 107t24.5 106.5t14.5 115q2 16 0 34t-6 34q-2 6 -2 21q0 6 -2 10 q4 41 32.5 56t98.5 15q49 0 79.5 -19t48.5 -51q16 -32 22 -75q3 -23 3 -46q0 -21 -2 -42q-10 -113 -47 -253t-77 -275q-37 -123 -68 -229.5t-35 -180.5q-2 -20 -2 -48t5 -52.5t15.5 -42t26.5 -17.5q33 0 83 56.5t108.5 142.5t118 186.5t108.5 190.5t82 153.5t39 73.5l6 14 h-2q10 20 19.5 32.5t31.5 12.5q20 0 31.5 -11t19.5 -27q-14 -25 -32.5 -60t-34.5 -69q-41 -80 -88 -175.5t-101.5 -190.5t-114 -184t-122 -159t-126 -111t-126.5 -41q-72 0 -120 19.5t-77.5 55.5t-42 85t-12.5 109v59q2 31 7 64.5t13 68.5q-4 -4 -5 -8t-5 -8 q-53 -84 -110.5 -166t-121 -148.5t-136 -107.5t-154.5 -41q-106 0 -148.5 70.5t-42.5 187.5z" />
<glyph unicode="v" horiz-adv-x="1404" d="M49 479q0 80 6 166t15.5 169t19.5 162t21 146q14 88 22 152q6 52 6 82v14q-2 29 -9 49.5t-13 36.5q-4 8 -6 13.5t-2 15.5q-4 29 16 41t49 16q25 4 51 4q17 0 35 -2q45 -4 64 -12q66 -33 98.5 -101.5t36.5 -146.5q1 -16 0 -33q0 -26 -1 -53q-3 -45 -7.5 -89t-11.5 -83 t-13 -70q-8 -45 -17.5 -102t-18.5 -120.5t-16 -129t-12 -123.5q0 -4 -1 -10t-1 -10q0 -18 -1 -42t-1 -48q0 -31 3.5 -60.5t11.5 -54.5t23.5 -41t41.5 -18q6 -1 12 0q26 0 50 13q30 17 58 44t50.5 58.5t38.5 60.5q41 66 88 150.5t103 195.5q-55 72 -82 181.5t-27 232.5 q0 137 31 279t87 256t136 182q74 63 161 63h15q88 -6 124 -60.5t36 -142.5q0 -70 -19.5 -155t-51 -179t-73.5 -192.5t-85 -194.5l-115 -237q66 -55 135 -56q12 0 26.5 2t30.5 7q51 12 100.5 41.5t92.5 69.5t79 88t60 102l2 4q25 16 43.5 12t44.5 -29q-31 -72 -77 -136 t-103 -116.5t-124.5 -88.5t-141.5 -48q-22 -3 -46 -3q-33 0 -67 6q-60 11 -115 42q-45 -90 -90 -170t-82 -143q-37 -61 -82 -122.5t-100 -111.5q-55 -48 -123 -78q-59 -26 -130 -26h-19q-70 2 -116 40t-73.5 103.5t-39 152.5t-11.5 185zM877 997q0 -115 20 -161l84 157 q37 76 80 171.5t80 191.5t60.5 185t23.5 151q0 102 -66 116q-9 2 -18 2q-31 0 -60 -26q-37 -34 -68.5 -99t-56 -151t-43 -180t-27.5 -187.5t-9 -169.5z" />
<glyph unicode="w" horiz-adv-x="2043" d="M-59 266q0 20 1 41t3 43q6 70 19 149t32.5 159.5t41 162.5t44.5 162q35 129 62.5 235.5t33.5 174.5q4 33 0 54t-8 38v-2q-4 10 -4 33q4 27 24.5 37t51.5 10q39 0 82 -12.5t59 -22.5q59 -41 81 -113q17 -56 16 -117q0 -17 -1 -34q-8 -90 -33.5 -177.5t-48.5 -150.5 q-18 -59 -42.5 -141t-47 -169t-42 -171t-25.5 -146q-1 -13 -1 -25q0 -30 4 -52q5 -32 23 -33q27 0 69 38.5t91 102t102.5 141.5t103.5 158t93 151.5t72 120.5l-2 -2q20 61 38.5 115.5t32 107t23.5 106.5t14 116q2 16 0 33.5t-6 33.5q-2 6 -2 21q0 6 -2 10q4 41 32.5 56.5 t98.5 15.5q51 0 83 -18.5t49.5 -51.5t22.5 -75q3 -23 3 -49q0 -20 -2 -42q-4 -35 -18.5 -105.5t-37.5 -162.5q-18 -78 -37.5 -166t-36 -174t-28.5 -166t-14 -143q-1 -17 -1 -31q-1 -65 21 -93q20 -26 50 -26q9 0 18 2q53 12 101 56.5t91 104.5t79 129t67 130l39 78 q-57 72 -83 181.5t-26 232.5q0 137 30.5 279t87 255t135.5 181q73 63 161 63h16q88 -6 125 -62.5t37 -144.5q0 -66 -17.5 -145.5t-45 -163.5t-62.5 -170t-70 -164l-22 -43l2 2l-17 -33l-57 -121l-57 -116q66 -55 135 -56q12 0 26.5 2t30.5 7q51 12 100.5 41.5t92.5 69.5 t78.5 88t60.5 102l2 4q25 16 43.5 12t42.5 -29q-31 -72 -76 -136t-102 -116.5t-125 -88.5t-141 -48q-22 -3 -46 -3q-32 0 -68 6q-62 11 -116 42q-23 -39 -40 -72.5t-35 -74.5q-43 -86 -92.5 -176t-113 -165t-143.5 -122t-184 -47q-98 0 -152.5 41t-79 105.5t-27.5 145.5 t-3 158q0 27 1 35t-1 33l-25 -39q-55 -84 -112.5 -166t-121 -148.5t-135 -107.5t-155.5 -41q-106 0 -147 71t-41 187zM1511 997q0 -53 5.5 -94t15.5 -65l12 24q16 33 35.5 66t36.5 65q37 76 80 171.5t79.5 191.5t60.5 185t24 151q0 102 -66 116q-9 2 -18 2q-31 0 -60 -26 q-37 -34 -68.5 -99t-56 -151t-43 -180t-28 -187.5t-9.5 -169.5z" />
<glyph unicode="x" horiz-adv-x="1562" d="M33 920l37 79q23 51 55.5 123t73.5 148t90 150.5t104.5 134t114.5 96.5t125 39h9q90 0 144 -39q58 -41 90.5 -112t44 -165t15.5 -200l307 466q14 2 29.5 2t27 -5t18.5 -18t7 -38l-49 -78l-336 -512q2 -33 3 -62.5t5 -62.5q10 -125 25.5 -241.5t40 -201.5t59.5 -127 q22 -26 49 -26q16 0 35 9q57 39 120.5 116.5t122 166.5t110 177t83.5 150l27 53q20 37 43 78t45 82q31 12 55.5 10t30.5 -45q-31 -53 -58.5 -101t-49.5 -96l-54 -92q-78 -141 -163 -284.5t-193 -266.5q-61 -68 -130 -117t-145 -65q-25 -5 -47 -5q-47 0 -87 22 q-58 34 -102 102.5t-77 164t-55 199.5l-354 -536l-33 -51q-12 4 -13 4l-20 -4t-20.5 2t-19.5 15t-13 34l446 680q-18 117 -29.5 231.5t-21.5 214.5t-17.5 176t-21.5 109q-23 49 -47 49q-27 0 -58.5 -30.5t-64.5 -79t-64.5 -106.5t-58 -114.5t-48 -104.5t-32.5 -75l-10 -20 q-31 -18 -47 -16.5t-33 12.5q-4 0 -11 1t-9 1z" />
<glyph unicode="y" horiz-adv-x="1347" d="M-291 -1251q0 70 19 143q51 188 138 349t199.5 302.5t244.5 269.5t272 248q23 109 48 235t58 288l-26 -39q-66 -104 -134.5 -202.5t-140.5 -175.5t-146.5 -123t-152.5 -46q-106 0 -149 70.5t-43 187.5q0 20 1 40.5t3 43.5q6 68 21.5 146.5t34.5 160.5t41.5 165t43.5 159 q35 123 62.5 233.5t33.5 177.5q4 33 0 54.5t-8 38.5q-2 8 -3 13t-1 15q2 29 23.5 39t50.5 10q41 0 83 -12t60 -22q59 -41 80 -113q17 -56 17 -116q0 -17 -1 -34q-6 -80 -26.5 -155.5t-40.5 -134.5l-13 -39q-18 -59 -43.5 -142.5t-49 -170.5t-43 -170t-25.5 -144 q-1 -13 -1 -25q0 -29 4 -53q5 -33 23 -33q25 0 63 34t82 89.5t91 127t94 146t90 146.5t76 129v-2q8 12 16 24.5t15 24.5l-2 -2q31 158 47 265.5t18 142.5q4 35 0 61.5t-8 48.5q-4 12 -4 21.5v15.5q4 29 25.5 38t54.5 11q135 0 193.5 -58t68.5 -142q-8 -104 -19.5 -210 t-28 -220.5t-38 -244.5t-51.5 -284q57 45 115.5 123t114.5 168t107.5 187.5t94.5 183.5l8 6q6 0 12 2q14 4 32.5 4t41.5 -23q-53 -109 -121 -233.5t-141.5 -239t-150.5 -207t-146 -137.5q-47 -223 -102.5 -448t-124 -429t-149.5 -379t-178 -299t-211 -189q-91 -51 -195 -51 q-26 0 -52 3q-115 14 -183.5 112.5t-68.5 244.5zM-178 -1245q0 -53 23.5 -89t78.5 -36q47 6 92 41t86 88q59 80 113.5 190.5t102 234.5t88 250t75.5 234q12 37 21.5 73t19.5 66v-2l21 80q-143 -113 -275.5 -256t-238.5 -305q-23 -37 -57.5 -106.5t-68.5 -150.5t-57.5 -165 t-23.5 -147z" />
<glyph unicode="z" horiz-adv-x="1685" d="M10 836l361 684q0 14 5 45.5t14 63.5t22.5 54.5t31.5 20.5q14 -4 18.5 -14.5t8.5 -26.5l8 -21q12 -20 42 -34.5t73 -22.5t96 -12t111 -4q82 0 165 5t156 9q104 6 162 6q55 0 110.5 -15t97.5 -46t64 -78q14 -30 13 -68q0 -21 -4 -45q-2 -12 -8.5 -22t-20.5 -10t-27 10 l-4 2q-147 -78 -302.5 -199t-305 -261t-286 -287.5t-246.5 -280.5q20 -10 94 -10q43 0 98 4t117 8q74 4 150.5 9t148.5 5q78 0 142.5 -8t103.5 -33q29 -18 53 -37.5t43 -50.5q10 18 21.5 40t30.5 57.5t51 91t82 144.5t123 215t173 302l4 4q35 20 53.5 10t30.5 -32l-530 -959 q0 -10 -1 -26.5t-3 -26.5q-10 -33 -33 -33q-59 57 -155.5 76.5t-213.5 19.5q-78 0 -158.5 -5t-160.5 -11q-74 -6 -143.5 -11t-129.5 -5q-51 0 -94 5t-76 15q-98 27 -98 121q0 39 19.5 86t64.5 104q66 82 153 170t185 175.5t201.5 172.5t201 159.5t182.5 138t148 110.5l86 66 q-25 6 -72 6q-35 0 -84 -3t-98 -7q-66 -6 -141.5 -11.5t-147.5 -5.5q-111 0 -208 18.5t-160 71.5l-316 -606q-25 -8 -48 -6t-44 29z" />
<glyph unicode="{" horiz-adv-x="655" d="M29.5 158.5q11.5 140.5 33.5 300.5q14 96 26.5 195.5t21.5 205.5q4 39 7 67.5t-5 59.5q-6 29 -12.5 47.5t-22.5 30.5q-14 12 -15 25q-10 14 19 20q16 8 25.5 11t21.5 18q23 18 37 47q33 80 58.5 179t48 208.5t48 222.5t62.5 219q31 94 73 178t98 148.5t131 104.5t173 48 q53 4 110.5 -8t123.5 -35l-5 -2q16 -10 21.5 -28.5t0.5 -36t-20.5 -27.5t-35.5 -4q-53 18 -101.5 22.5t-83.5 -12.5q-53 -23 -94 -66.5t-71.5 -104t-54 -133t-42.5 -152.5q-31 -129 -53.5 -266.5t-51 -257t-69 -207.5t-108.5 -119q37 -45 50 -119t10 -165t-17.5 -194.5 t-30.5 -207.5q-18 -111 -34.5 -216.5t-19.5 -192.5t11 -149.5t57 -86.5q35 -18 78 -27.5t102 -5.5q25 2 34 -11.5t8 -31t-13 -33.5t-31 -23l2 -2q-139 -16 -235 13q-121 35 -180.5 112.5t-78 189t-7 252z" />
<glyph unicode="|" horiz-adv-x="434" d="M14 243.5q-4 73.5 0 152.5t14.5 151t14.5 115q37 313 61.5 525t41 349t24.5 208t12 101q12 72 21.5 152t5.5 160q2 39 -7 66.5t-12 35.5q-2 18 10.5 25.5t28.5 1.5q29 -8 53.5 -13.5t43 -13.5t33 -21.5t24.5 -35.5q25 -43 33 -111t7 -140.5t-7 -138t-10 -104.5 q-41 -303 -69 -516t-45.5 -353.5t-27.5 -218t-14 -112.5q-12 -82 -23.5 -172t-7.5 -182q-2 -43 6 -75t8 -42q2 -20 -9 -28.5t-27 -2.5q-55 18 -97.5 42t-58.5 75q-23 47 -27 120.5z" />
<glyph unicode="}" horiz-adv-x="1009" d="M-38 -320.5q5 17.5 18.5 27.5t35.5 4q55 -14 99.5 -13t85.5 13q51 14 87 71.5t63.5 143.5t49 190.5t43.5 215.5q20 104 43 206.5t52.5 191.5t68.5 157.5t92 105.5q-55 43 -63 135.5t7 212t43 257t44 268.5q10 80 13.5 154.5t-6 139t-33 114.5t-66.5 81q-29 23 -76 28 t-106 -3q-23 -2 -33 10t-10 30.5t11 36t32 23.5l-2 2q143 23 239 -2q92 -25 150.5 -78t90.5 -125.5t43 -160.5t7 -187q-4 -109 -19.5 -223.5t-31.5 -224t-27.5 -211t-7.5 -183.5q6 -33 19 -51q6 -16 13 -21t21 -16q25 -12 13 -24q-4 -4 -8.5 -10.5t-14.5 -10.5 q-20 -10 -32.5 -25.5t-30.5 -41.5q-18 -29 -24.5 -57.5t-16.5 -67.5q-31 -104 -54.5 -202.5t-42.5 -192.5q-37 -160 -74.5 -297.5t-95 -241.5t-143.5 -167.5t-217 -76.5q-106 -10 -227 31l2 2q-16 8 -22.5 26.5t-1.5 36z" />
<glyph unicode="~" horiz-adv-x="1030" d="M49 2198.5q0 15.5 3 25.5t7 13.5t13 -9.5q43 -47 104.5 -61.5t132 -9t148.5 21.5t152.5 28.5t141 14.5t118 -22.5t81 -82t29.5 -163.5q-2 -12 -4 -27.5t-6 -26t-9.5 -12.5t-11.5 13q-45 59 -103.5 82.5t-126 24.5t-140 -12.5t-142 -26.5t-134 -18t-116 12t-87.5 65.5 t-48 142.5q-2 12 -2 27.5z" />
<glyph unicode="&#xa1;" horiz-adv-x="466" d="M-104.5 293q4.5 55 13.5 105.5t15 78.5q55 229 93 391t62.5 268.5t37 166t18.5 86.5q20 61 34.5 129.5t14.5 138.5q4 33 -4 57.5t-10 30.5q0 16 13.5 22.5t29.5 1.5q59 -14 103 -31.5t61 -58.5q23 -37 24.5 -92t-7.5 -114.5t-22.5 -113.5t-19.5 -87q-53 -238 -88 -399.5 t-57.5 -265t-33.5 -158t-15 -76.5q-16 -53 -29.5 -114.5t-9.5 -121.5q-4 -29 5 -50t7 -28q4 -14 -10.5 -19t-30.5 -1q-63 12 -103 20.5t-59 42.5q-25 33 -31 84.5t-1.5 106.5zM254 2152q6 33 23.5 58.5t42 43t53 27t55.5 9.5q47 0 78 -35t16 -123q-6 -33 -20.5 -64.5 t-33.5 -57t-44 -42t-51 -16.5q-25 0 -48 15t-46 52q-39 74 -25 133z" />
<glyph unicode="&#xa2;" horiz-adv-x="1146" d="M-16 498v52t4 54v-2q14 164 69.5 334t144.5 311.5t204.5 237.5t248.5 112q0 23 2 31q10 82 16.5 171t2.5 179q-2 45 -11.5 77t-9.5 42q-4 20 8.5 26.5t30.5 0.5q119 -33 162 -129q25 -41 36 -99.5t14 -121t1 -125t-6 -113.5q45 -33 79 -79t55.5 -100t30.5 -112.5 t5 -118.5q-2 -18 -5 -40.5t-10 -43t-22.5 -34t-42.5 -13.5q-10 2 -19 6.5t-22 16.5q8 29 13.5 54.5t7.5 47.5q2 39 -1 79t-14.5 72t-28 54.5t-40.5 26.5l-96 -1088q68 72 124 158t99 158v-2q49 86 91 168.5t77 150.5q16 31 36.5 70t36.5 67q25 10 31 10q18 0 29.5 -11 t19.5 -27l-20 -45q-37 -76 -91.5 -181.5t-119.5 -218.5q-61 -113 -140 -233.5t-186 -212.5l-10 -115q-2 -18 -3 -40.5t-2 -60.5t-4 -97.5t-7 -153.5q4 -43 15 -74t7 -43q4 -20 -7 -26.5t-28 -0.5q-61 18 -100 51t-61 78q-35 66 -45.5 159t-8.5 185q-35 -10 -72.5 -15 t-78.5 -5q-106 0 -181 45t-121 120t-66.5 172t-20.5 204zM362 365q0 -49 8.5 -92.5t27 -77t49 -53t77.5 -19.5h8l5 31l77 946q-43 -70 -82.5 -152t-72.5 -169t-56.5 -174t-35.5 -169q-2 -16 -3.5 -35.5t-1.5 -35.5z" />
<glyph unicode="&#xa3;" horiz-adv-x="1869" d="M-590 -143q0 86 34 161.5t90 132t129 89t149 32.5q51 0 101 -15t97 -50q14 -10 32.5 -28.5t35.5 -37.5q29 -35 44 -78t15 -90q0 -43 -20.5 -101t-53.5 -108q43 14 95.5 24.5t101.5 18.5l10 25l15 31q76 188 129 397t102 426l8 41q-55 10 -106 17.5t-103 7.5 q-57 0 -110 -10.5t-105 -34.5h2q-20 -14 -29.5 -11.5t-11.5 15t2.5 29t10.5 30.5q53 98 132 134t177 36q43 0 89 -5t93 -13l27 106q20 84 56 194.5t88 226.5t120 227.5t151 199.5t180 141.5t210 53.5q74 0 137 -21q117 -41 209 -159.5t117 -315.5q-4 -25 -12.5 -43.5 t-20.5 -26.5t-31.5 -3t-44.5 30q-41 184 -95 262t-116 80q-74 2 -142.5 -54.5t-130 -145.5t-112.5 -198.5t-91 -212t-66.5 -185.5t-36.5 -122q-10 -31 -17.5 -55t-13.5 -51q33 -4 62.5 -6t62.5 -2q111 0 213 35.5t188 134.5l2 2q12 8 20.5 4t13.5 -13.5t6 -21.5t-5 -22 q-49 -92 -104.5 -152.5t-117 -97.5t-128 -51.5t-135.5 -14.5q-35 0 -65 2t-64 6q-57 -211 -119 -427t-131 -400q35 6 72.5 8t76.5 2q125 0 249 -22.5t251 -49.5q125 -29 247 -51t240 -22q45 0 99 6q117 14 221 65.5t190 165.5q6 10 16.5 24.5t23 28t25.5 22.5t25 7 q27 -8 31 -49t-2 -82q-29 -188 -124 -282.5t-234 -122.5q-90 -18 -183 -19q-141 0 -296.5 33t-307.5 74q-150 41 -298 72.5t-283 31.5q-29 0 -58.5 -2t-58.5 -6q-47 -61 -105.5 -123.5t-111.5 -103.5q-66 -53 -139.5 -86t-149.5 -33q-18 0 -35.5 2t-36.5 6q-88 4 -176 39 t-159 94q-117 98 -172.5 203.5t-55.5 200.5zM-373 -207q0 -72 34 -142.5t108 -123.5l32 -21l9 -4q37 -14 75 -14q43 0 85 15.5t82 42t76 59.5t67 69v2q-117 -4 -189.5 -32.5t-109.5 -59.5q-14 -10 -30 -13t-30 11q-6 23 -6 35t23 25h-3q84 59 122 132.5t38 145.5 q0 80 -49 133q-51 51 -111 51q-43 0 -82.5 -26.5t-71.5 -69.5t-50.5 -99t-18.5 -116z" />
<glyph unicode="&#xa4;" horiz-adv-x="1380" d="M-23 465q4 2 17.5 7t23.5 17q35 55 67 95.5t38 54.5l49 92q-61 72 -83.5 165t-22.5 183q0 29 1 57.5t5 51.5q8 57 30.5 124.5t60.5 136.5t90 133.5t118 115.5q-16 20 -27.5 40.5t-17.5 35.5l-97 180q-6 14 -18 33.5t-47 74.5q-10 12 -23.5 17.5t-17.5 7.5q-6 6 1 11t17 9 q43 16 74 19.5t59 -0.5q27 -6 49.5 -22.5t40 -38t30 -42t20.5 -34.5q25 -47 48 -93.5t48 -89.5q2 -8 10 -24q41 16 87.5 25.5t97.5 9.5q113 0 186.5 -26t120.5 -69q20 35 38.5 72t39.5 76q8 14 20 34.5t29.5 42t39 38t50.5 22.5q29 4 59.5 1t73.5 -19q10 -4 17 -9.5t1 -11.5 q-4 -2 -17 -7t-24 -17q-35 -55 -47 -75t-18 -34l-96 -180q-10 -18 -29 -50t-47 -57q12 -59 12 -121q0 -39 -3 -78.5t-7 -74.5q-12 -96 -55 -208t-121 -212q18 -23 29.5 -43t19.5 -35l96 -180q6 -14 18.5 -33.5t47.5 -75.5q10 -12 23.5 -17t17.5 -7q6 -6 -1.5 -11.5 t-17.5 -9.5q-43 -16 -73.5 -19t-59.5 1q-29 6 -50.5 22.5t-38.5 38t-29.5 42t-20.5 34.5q-23 43 -44.5 84t-43.5 82q-68 -51 -153 -82t-187 -31q-80 0 -137 19q-4 -8 -8.5 -14.5t-8.5 -14.5q-8 -14 -26.5 -41.5t-43 -56.5t-53 -51.5t-55.5 -28.5q-29 -4 -59.5 -1t-73.5 19 q-10 4 -17.5 9.5t-1.5 11.5zM358 936q0 -41 5.5 -84t20.5 -77t43 -55.5t71 -21.5q70 0 132 62.5t111.5 160t83 213t45.5 222.5q4 27 5.5 54.5t1.5 49.5q0 123 -39 198t-121 75q-51 0 -95 -41t-82 -104.5t-69 -141.5t-52.5 -151.5t-34.5 -134t-17 -91.5q-4 -23 -6.5 -58.5 t-2.5 -74.5z" />
<glyph unicode="&#xa5;" horiz-adv-x="3280" d="M18 1880q0 98 31 195q43 147 138.5 275t230.5 222t304 147.5t359 53.5q193 2 371 -53.5t299 -151.5q102 -84 173 -182t114 -209t62.5 -228.5t19.5 -240.5q0 -96 -8.5 -194.5t-22.5 -192.5q-16 -119 -46 -253t-63 -263q-25 -100 -47 -198.5t-39 -192.5l-6 -29 q-8 -41 -17 -95t-9 -100q0 -31 6 -52t20 -29q27 -8 77 26.5t112 102.5q59 61 127.5 146t141.5 183.5t146.5 204t142 207.5t129 198.5t105.5 176.5l-2 -2q18 106 30.5 195t12.5 151q0 27 -7 49t-13 41q-4 10 -6 13t-2 18q0 27 24.5 37t59.5 12q88 2 146 -17.5t94 -54.5 t51.5 -79t15.5 -89q-8 -164 -37 -363.5t-72 -415.5t-96 -441.5t-108.5 -441.5t-111 -413.5t-102.5 -359.5l-47 -154h80q25 4 40 14.5t22 10.5q23 4 18 -29q-4 -51 -16.5 -82.5t-34.5 -54.5q-29 -29 -77 -41t-95 -16q-20 -55 -41 -111.5t-43 -111.5h2h22.5h34t53 1t82.5 1 q23 4 39.5 14t22.5 10q10 4 14 -5t2 -23q-4 -51 -16 -83t-35 -55q-25 -25 -61.5 -37t-76.5 -17t-77 -4t-61 1q-8 0 -14.5 1t-12.5 1q-53 -113 -110.5 -210t-121 -172t-133 -122t-145.5 -55q-16 -2 -34.5 -3t-35.5 -1q-123 0 -201.5 52t-125.5 142q-37 72 -51.5 143.5 t-14.5 143.5q0 135 45 264q39 113 103.5 223.5t146.5 217t175 206t187.5 189.5t184.5 170t168 147q88 324 157.5 632t137.5 620q-199 -301 -361 -523.5t-280 -363.5q-158 -174 -282 -262t-228 -88q-76 0 -154 32q-66 29 -89.5 94.5t-23.5 143.5q0 61 9.5 124.5t19.5 115.5 l35 129q27 102 54.5 212.5t53 223.5t47 225.5t37.5 218.5q10 94 19.5 200.5t9.5 217.5q0 156 -25.5 312.5t-94 288.5t-189.5 225.5t-313 123.5h2q-115 10 -228.5 -37t-207 -132t-158 -200.5t-78.5 -242.5v2q-10 -115 19.5 -226.5t85 -199.5t130 -142.5t154.5 -56.5 q80 -8 154.5 31t136 102.5t105.5 138.5t67 140q0 6 2 12t2 13q4 27 16.5 48t55.5 21q31 0 40 -16.5t9 -38.5q0 -27 -4 -46.5t-9 -33.5q-6 -10 -6 -20q-35 -98 -99.5 -190.5t-151.5 -164t-196.5 -115.5t-234.5 -44q-43 0 -87 5t-91 17q-113 37 -197.5 97.5t-142 138 t-87.5 170t-30 190.5zM1638 -1634q0 -16 2 -34t7 -36q16 -102 54 -149.5t85 -47.5q53 -2 113.5 53.5t109.5 155.5l59 131q-47 0 -81 -8q-23 -4 -39.5 -13t-22.5 -11q-20 -2 -16 30q6 98 51 138q29 33 81 44t103 15q20 53 40 108.5t38 112.5h-8q-47 2 -96.5 4t-96.5 -8 q-23 -4 -39 -13t-22 -12q-20 -2 -16 31q6 98 51 137q25 25 61.5 37.5t76.5 17.5t77 4t61 -1h17q41 129 77.5 253t69.5 228q-98 -90 -212 -201.5t-218 -234.5t-191.5 -253t-134.5 -257q-16 -57 -28.5 -113.5t-12.5 -107.5z" />
<glyph unicode="&#xa6;" horiz-adv-x="688" d="M24 140.5q-4 35.5 1.5 73.5t15.5 71.5t14 56.5q37 152 61.5 255t40 170t23.5 101.5t13 49.5q10 35 19 73.5t5 77.5q2 18 -7 31.5t-11 17.5q0 18 41 15q59 -8 96 -14.5t53 -28.5q27 -20 35 -53t8 -69t-6 -68t-10 -50q-41 -147 -69 -250.5t-46 -172.5t-27.5 -106.5 t-15.5 -54.5q-10 -39 -21.5 -82t-7.5 -90q-2 -20 6.5 -35.5t8.5 -19.5q2 -10 -10.5 -14.5t-28.5 0.5q-53 8 -95 19t-59 36q-23 25 -27 60.5zM247.5 1297.5q-3.5 35.5 1.5 73.5t14.5 72.5t15.5 57.5q37 152 61.5 255.5t39.5 170t22.5 100t11.5 48.5q12 35 21 74.5t5 78.5 q2 18 -7 31.5t-11 15.5q0 20 41 15q57 -8 94 -13.5t55 -27.5q27 -20 35 -53t7 -69t-7 -67.5t-8 -50.5q-41 -147 -68.5 -250.5t-46 -172t-28 -106.5t-15.5 -55q-10 -41 -21 -84t-7 -90q-2 -18 6 -34.5t8 -20.5q2 -10 -10.5 -14t-28.5 0q-53 8 -95 19t-59 38 q-23 23 -26.5 58.5z" />
<glyph unicode="&#xa7;" horiz-adv-x="1316" d="M39 399q2 18 8 48t18.5 57.5t29 48t38.5 20.5q27 0 21 -30l-9 -15q0 -2 -1 -3t-1 -3q-4 -6 -6 -13t-2 -17q0 -18 8 -46q12 -51 39 -87.5t66 -60.5t85 -35t97 -11q45 0 93 9t89 26q33 14 72 36.5t73 50t56.5 58.5t22.5 66q0 18 -7 34q-12 25 -40.5 43.5t-63.5 30.5 l-143 31q-4 0 -8.5 2t-8.5 2l-24 4q-72 12 -141.5 27.5t-130 45.5t-106.5 76t-69 117q-8 27 -13 60.5t-5 62.5q0 199 78.5 352.5t263.5 249.5q29 14 58.5 24.5t58.5 20.5q-90 29 -159 79t-100 147q-8 27 -13 60.5t-5 62.5q0 53 12.5 117.5t36.5 136.5q29 86 76 163.5 t107.5 140t129 104.5t140.5 56q23 8 43 10.5t41 2.5q86 0 166 -45t140 -119t97 -168t37 -193v-25.5t-2 -29.5q-10 -66 -42 -121t-76 -97t-96 -65.5t-101 -23.5q-51 0 -98.5 36t-69.5 101q-14 35 4 53q25 14 37 3t22 -33q16 -41 40 -60.5t48 -19.5q27 0 53.5 19.5t47 54 t34 79.5t15.5 99q-6 76 -36 154.5t-75 143t-102.5 106.5t-118.5 42q-68 0 -117 -34.5t-81.5 -93t-50 -132.5t-19.5 -149q0 -6 -1 -12.5t-1 -10.5v-22q0 -104 32 -183q16 -43 47 -76.5t69 -60.5t79 -46.5t80 -33.5q2 -2 8 -4t10 -2l19 -8q23 -10 42 -18.5t42 -22.5h-2 q53 -29 97 -75t66 -114v2q14 -43 15 -96q0 -63 -21.5 -121.5t-58.5 -108.5t-87 -90t-106 -67q-80 -37 -182 -37q-94 0 -182 35t-150 94q6 -84 33 -145q16 -43 47 -77t69 -60.5t79 -46t80 -33.5q2 -2 8 -4t10 -2l18 -9q23 -10 42.5 -18t41.5 -22h-2q53 -29 97.5 -75 t66.5 -114v2q14 -43 15 -96q0 -63 -21.5 -121.5t-58.5 -109t-87.5 -90.5t-105.5 -66q-80 -37 -182 -37q-82 0 -160 27.5t-139.5 74.5t-96 113t-30.5 143zM348 1378q37 -68 107.5 -99.5t156.5 -31.5q45 0 93.5 9.5t89.5 25.5q33 14 71.5 36.5t72.5 50.5t56.5 58.5t22.5 65.5 q0 19 -6 35q-20 39 -80 59.5t-133.5 23.5t-148.5 -11.5t-124 -40.5q-59 -35 -105 -79t-73 -102z" />
<glyph unicode="&#xa8;" horiz-adv-x="733" d="M33 2075q0 33 8 64.5t24.5 57t38 42t50.5 16.5q25 0 51 -15.5t55 -52.5q27 -39 38 -71.5t11 -61.5q0 -66 -48 -101.5t-103 -35.5q-47 0 -86 35t-39 123zM406 2075q0 33 8 64.5t24.5 57t38 42t49.5 16.5q25 0 51.5 -15.5t55.5 -52.5q27 -39 38 -71.5t11 -61.5 q0 -66 -48 -101.5t-104 -35.5q-47 0 -85.5 35t-38.5 123z" />
<glyph unicode="&#xa9;" horiz-adv-x="1724" d="M19 1167q-1 84 10 156q10 78 47 170t97 185.5t144 181.5t188.5 154.5t231 107.5t271.5 41q231 0 380.5 -69t226.5 -180.5t87 -254.5t-36 -294t-141 -294t-230.5 -254.5t-304.5 -180.5t-361 -69q-143 0 -246.5 36t-174.5 96.5t-111 138t-58.5 161.5t-19.5 168zM243 1103 q1 -128 48 -227.5t143 -161t250 -61.5q117 0 228.5 61.5t209 161t173 227.5t119.5 261t50 261t-37 227.5t-141 161t-262 61.5q-135 0 -255 -61.5t-217 -161t-167 -227.5t-106.5 -261t-35.5 -261zM522 1217v26t2 25v-2q8 86 41 174t85 159.5t121 116.5t149 45q51 0 91 -21.5 t66.5 -55t38.5 -76.5t8 -88q-2 -20 -10 -47t-43 -27l-12 4t-21 12q4 18 8.5 31.5t6.5 22.5q4 39 -7.5 71.5t-35.5 32.5q-31 0 -71 -43t-79 -107.5t-69.5 -141.5t-42.5 -144v-15q0 -4 -1.5 -9t-1.5 -11q0 -41 17.5 -73t58.5 -32q39 0 76 23t69.5 54.5t60.5 69.5t50 69 q23 31 37 57t25 47q6 12 14 24.5t14 24.5h-2l31 53v-2l12 19q25 10 23 10q25 0 37 -33l-17 -26l2 2q-16 -37 -45.5 -87.5t-68.5 -109.5q-29 -49 -66 -101.5t-84 -95.5t-108.5 -71.5t-139.5 -28.5q-59 0 -101 22.5t-68.5 60.5t-38 88t-11.5 104z" />
<glyph unicode="&#xaa;" horiz-adv-x="7135" d="M29 186q2 47 18 128t37 167l18 80q12 55 21.5 96t11.5 58q2 10 0 19t-4 16v8q0 12 9.5 17t19.5 5q53 0 67.5 -29.5t10.5 -64.5q-4 -47 -20.5 -111.5t-33.5 -130.5q31 37 67 64t75 27q51 0 70.5 -32t19.5 -77v-20q-4 -43 -25.5 -98.5t-54.5 -108.5q74 63 131 147l8 29 q10 37 18.5 70.5t10.5 54.5q2 6 0 13t-4 13v4q0 14 9 19.5t19 5.5q12 0 26.5 -4t18.5 -8q20 -14 27.5 -37t5.5 -47q-6 -49 -20 -88q-4 -8 -4 -13q-12 -35 -27.5 -91t-19.5 -91q0 -25 2 -24q8 0 24.5 18t34.5 45t36.5 58.5t35.5 56.5l10 14l2 2h2h2q8 47 12 79t4 42 q4 16 2 27.5t-4 19.5v4q0 14 9.5 18.5t21.5 4.5q45 0 63.5 -19.5t22.5 -46.5q-4 -31 -6 -59.5t-6 -59t-10.5 -66.5t-14.5 -81q29 33 57.5 84t51.5 92l10 10h2l4 2q4 0 11.5 -1t19.5 -11q-16 -33 -36.5 -69.5t-43.5 -71.5t-46.5 -63.5t-43.5 -45.5q-20 -100 -48 -197.5 t-65 -174t-85 -120.5t-107 -36q-39 4 -60.5 34.5t-21.5 75.5q0 4 1 16.5t5 28.5q29 106 100.5 191.5t153.5 155.5l22 116q-37 -57 -77.5 -101t-85.5 -44q-35 0 -50.5 22.5t-15.5 61.5v10t4 16q2 10 4 21.5t2 28.5q-37 -43 -84 -83t-102 -65h2q-23 -12 -54.5 -21.5 t-64.5 -9.5q-23 0 -31 2q-35 10 -58 42t-19 81zM121 164q0 -31 12 -31q6 0 14 4q29 14 55.5 50t48 78t35 83t15.5 64q2 16 -2 32.5t-20 16.5q-14 0 -32 -15.5t-35 -38t-32.5 -48t-27.5 -48.5q-4 -8 -5 -12q-8 -29 -17 -67.5t-9 -67.5zM422 -281q0 -29 24 -28v-2q27 2 48 35 q37 47 64.5 124.5t47.5 143.5l12 41l3 4q-80 -63 -136 -154q-6 -10 -17 -30.5t-21.5 -44t-17.5 -47.5t-7 -42zM942 258q2 23 14.5 43.5t30.5 20.5q19 0 37 -25q12 -23 10 -47q-4 -23 -20.5 -34t-34.5 -11q-14 0 -27.5 12t-9.5 41zM963 422q2 23 13 43t32 20q18 1 36 -24 q12 -23 11 -47q-4 -20 -20.5 -32.5t-35.5 -12.5q-16 0 -28.5 12t-7.5 41zM1335 49q2 88 47 167t123 110q31 8 49 8q59 0 84 -46t25 -108q0 -27 -1 -43t-3 -28q-10 -18 -21.5 -17.5t-15.5 4.5q-2 0 -2 4q-2 2 -2 13v47q0 35 -7 64.5t-36 31.5q-23 2 -44.5 -16.5t-39.5 -49 t-32.5 -69.5t-20.5 -78v2q-2 -16 -2 -26.5v-16.5q0 -37 9 -70.5t26.5 -59.5t40 -42t49.5 -18q51 8 92 46t70.5 92t50 116.5t30.5 121.5q4 23 8.5 45.5t6.5 45.5q-27 -16 -47.5 -37t-30.5 -49q-6 -8 -17.5 -7.5t-11.5 7.5q8 63 39 106t72 63v66q0 2 1 4t1 4v29q0 4 1 8t1 8 q0 18 2 37t4 49q-20 -10 -51 -16t-60 -6q-23 0 -43 12t-26 39q0 4 -1 3t-1 3v8q0 25 13 47.5t35.5 41t49.5 30.5t55 16q-12 0 -8 3h21q61 0 108 -41q59 16 127 30.5t133 28.5q43 8 96.5 20.5t106.5 26.5t103.5 27.5t91.5 25.5q16 6 38.5 15.5t26.5 19.5l-2 -2v10q0 4 2 9.5 t16 9.5q6 0 17 -13q8 -14 1 -28.5t-19.5 -27.5t-26 -23.5t-21.5 -14.5q-51 -31 -116.5 -55.5t-134 -46t-137 -38.5t-126.5 -30l-30 -8l-23 -6l-80 -19v-6q0 -6 1 -16t1 -27q0 -23 -1 -58.5t-5 -107.5h6l-2 -2q55 10 109.5 26.5t83.5 49.5q12 16 19 5t7 -23 q-4 -31 -22.5 -52.5t-46 -36t-60.5 -23.5t-67 -15l-17 -4q-4 -2 -16 -2v-15q-6 -63 -17.5 -131.5t-33 -135.5t-57 -125t-87.5 -101q-35 -25 -82 -41.5t-94 -16.5h-26q-109 16 -167.5 96.5t-58.5 192.5zM1653 1395q0 49 16.5 100t47 92t74.5 67.5t99 26.5q57 0 92 -33.5 t35 -84.5q0 -14 -4 -35q51 33 116.5 53.5t119.5 20.5q16 0 34.5 -2.5t34.5 -6.5q76 119 134.5 249t93.5 257q4 12 14 17q10 10 29 10q57 0 75.5 -34t18.5 -81v-31q-8 -72 -27.5 -164t-42.5 -192q-4 -23 -10 -42t-10 -42q63 2 127 64q6 25 10 45t6 37q2 8 0 15t-4 15l-2 -2v4 q6 31 33 31q51 0 65.5 -29.5t10.5 -62.5t-9 -49v-2l9 12q16 27 33.5 52.5t38 47t43 34.5t48.5 13q37 0 50.5 -25.5t11.5 -56.5l-4 -24t-6 -27q31 47 68.5 88t84.5 41q35 0 48.5 -24.5t11.5 -59.5q-4 -35 -16.5 -79t-28.5 -85q-14 -39 -25.5 -75.5t-13.5 -63.5 q-2 -10 0 -24.5t8 -14.5t18.5 13.5t26.5 35t29.5 48t29.5 51.5v-2q16 45 43 93t60.5 87t72.5 63.5t82 24.5q57 0 87 -49t28 -105q-2 -8 -4 -17t-8 -24h-15q20 -12 25 -38q2 -16 -3 -36t-9 -40q-2 -2 -2 -6q0 -2 -1 -3t-1 -6q-2 -10 -3.5 -23t-1.5 -25.5t1 -19.5t8 -3v-2 q25 27 57.5 80t54.5 100l21 41v-2q4 14 9 20t9 15q-45 6 -61.5 37.5t-12.5 70.5q4 45 36 85t79 40q55 0 51 -72q-4 -31 -12 -59.5t-14 -48.5q-2 -2 -2 -4v-2h51q2 0 4 1t6 1q8 0 18.5 -2t20.5 -6q20 -6 21 -37q0 -33 -16.5 -77t-31.5 -73q-2 -6 -5 -12t-5 -12l-6 -19 q-23 -61 -43 -125.5t-31 -122.5l4 -4v2q10 -10 14.5 -12t12.5 -12q4 31 24.5 54.5t45.5 33.5q14 6 25.5 8t21.5 2q47 0 73.5 -32.5t26.5 -75.5q0 -45 -38 -88.5t-116 -59.5q-10 -2 -20 -2h-20q-66 0 -113 43t-51 129q-86 23 -189 23q-43 0 -93 -4.5t-101 -12.5 q-68 -12 -136.5 -32.5t-128 -52.5t-106.5 -72.5t-74 -92.5q0 -2 -1 -3t-1 -3q-4 -10 -10 -22.5t-20 -12.5t-24.5 15.5t-14.5 34.5q-4 10 -6.5 22t-2.5 21q0 53 32 101t73 83q33 25 80 44t101 34.5t110.5 26t109.5 16.5q41 4 69 5t48 1q78 0 155.5 -12.5t141.5 -40.5 q20 111 48 192.5t56 142.5l15 43q-2 0 -5 1.5t-5 1.5h-19q-4 -6 -5 -14.5t-5 -12.5l-6 -14q-12 -27 -30.5 -64t-41 -75t-46.5 -71.5t-44 -52.5q-12 -10 -30.5 -16t-37.5 -6q-20 0 -33.5 11t-20.5 29.5t-9 40t-2 40.5q-33 -49 -74 -86t-92 -37q-47 0 -68.5 24.5t-25.5 65.5 q-27 -41 -54.5 -65.5t-58.5 -24.5q-47 0 -65.5 23.5t-18.5 62.5v4q8 59 27.5 120.5t38.5 108.5q12 33 22 59.5t10 35.5v4h-2q-12 -2 -29.5 -19.5t-36 -43t-36.5 -56.5t-35 -60l-43 -65v2q-10 -29 -16 -53.5t-8 -46.5q-4 -33 10 -68q0 -14 -21 -14q-47 0 -66.5 27.5 t-19.5 68.5v2q8 61 27.5 122.5t38.5 108.5q14 31 22.5 56.5t8.5 38.5v4q-14 0 -36 -25.5t-45.5 -59.5t-44 -70t-32.5 -56l-10 -15v3q-10 -25 -17.5 -58t-9.5 -59q-2 -20 0 -35.5t4 -24.5v2q2 -4 2 -14q0 -12 -20 -12q-49 0 -65.5 33.5t-16.5 72.5v4q4 45 10 84t14 68 q-29 -18 -57.5 -26.5t-63.5 -12.5q-8 -41 -10 -89t-2 -95q0 -55 7.5 -107.5t23.5 -93.5t44 -65.5t71 -24.5q41 0 86 20q25 -10 24 -20q0 -12 -10 -27q-78 -33 -141 -32q-66 0 -110 32.5t-71.5 86t-40 123t-12.5 143.5q0 35 2 74.5t8 80.5q-27 6 -53 12.5t-55 16.5 q-53 -84 -114.5 -158t-127.5 -131q-43 -37 -92 -66.5t-115 -29.5q-47 0 -90 17.5t-75.5 50t-53 78.5t-20.5 104zM1718 635q4 0 23.5 4t36.5 8l6 4l14 4l-2 -2q25 6 27 4v5q-2 18 -11.5 26t-19.5 8q-23 0 -45.5 -18.5t-28.5 -42.5zM1776 1339.5q4 -36.5 19 -69.5t43 -54.5 t67 -21.5q20 0 37.5 5t37.5 13h-2q68 37 151 125t159 205q-35 8 -70 8q-72 0 -134.5 -34.5t-117.5 -94.5q-4 -4 -10 -6t-10 -2q-10 0 -19.5 7t-5.5 20q23 25 38 58.5t11 66.5q-8 23 -23.5 33t-27.5 12q-23 0 -44.5 -17.5t-42 -46t-34.5 -65.5t-20 -74q-6 -31 -2 -67.5z M2193 520q6 43 36 83t77 40q59 0 53 -70q-4 -29 -13 -58.5t-17 -49.5q0 -6 -2 -8q10 -2 22 -1t25 1q29 0 45 -7.5t12 -41.5q0 -6 -4 -23l-6 -25q-10 -43 -21.5 -94t-15.5 -80q-4 -39 6 -43q18 12 46 51t54 85v-3q14 45 41 95.5t61 90.5t73.5 66.5t82.5 26.5q57 0 87 -49 t28 -105q-2 -8 -4 -17t-8 -24h-15q20 -12 25 -36q2 -16 -1 -32t-7 -32q-4 -12 -4 -22q-2 -6 -4 -20.5t-3 -30t1 -23.5t8 -2v-2q12 12 27.5 34.5t32 49t31.5 54.5t28 50l6 14v-2l6 23l-2 -2q0 4 1 3t1 3q18 70 22 105h-2q0 4 -1 9t-1 9v10q-2 4 -2 10q0 14 10.5 19.5 t20.5 5.5q49 0 63.5 -29.5t12.5 -62.5q-4 -33 -8 -49v-4l8 16q35 51 73.5 98t88.5 47q39 0 51 -23.5t8 -58.5t-15.5 -78.5t-27.5 -84.5q0 -4 -2 -7.5t-2 -7.5q-10 -35 -20.5 -68.5t-14.5 -54.5q-2 -10 0 -24t8 -14q8 0 25.5 22.5t37 54t39 65.5t33.5 56l13 23v-2 q29 82 80 141t116 59q27 0 49.5 -13t37 -34.5t21.5 -48.5t5 -53q0 -12 -4 -28.5t-25 -16.5q-8 0 -18 10l6 35q2 23 -4 43t-19 20q-16 0 -38.5 -25.5t-44 -65.5t-39 -87t-23.5 -90v-18q0 -27 8 -46.5t33 -19.5q23 0 43 13.5t37.5 33t32 43t26.5 41.5q12 20 23.5 42t21.5 40 l6 12l7 13v-2q4 20 10 38.5t10 38.5l6 19l10 29l-2 -3v15q0 4 1 4t1 4q8 23 37 18q53 -23 54 -53q0 -10 -1 -15t-4 -16q0 -8 -4 -16v2q-6 -18 -13 -46t-15 -58.5t-14.5 -60t-8.5 -54.5q0 -4 -1 -7t-1 -7v-11q0 -39 14 -38q8 0 22.5 16t32 41.5t34 56.5t32.5 60v-2l29 69 q-20 29 -33.5 67t-13.5 72q0 31 11 58.5t38 50.5v-2q12 12 28.5 18.5t32.5 6.5q20 0 39 -11.5t19 -40.5q0 -18 -7.5 -40.5t-17.5 -45.5q-4 -8 -4 -12l-18 -51q41 -63 74.5 -129t39.5 -109q27 41 46.5 81t35.5 69q0 2 2 5t2 5q8 20 25 20q16 0 20 -18l-4 -14 q-14 -27 -33.5 -66t-43 -79t-50 -74.5t-51.5 -53.5q-29 -20 -69.5 -31.5t-77.5 -11.5q-41 0 -71 16.5t-26 51.5v2q-18 -18 -36.5 -29.5t-34.5 -11.5q-47 0 -64.5 34t-17.5 81q0 4 1 8t1 8v14q-16 -29 -35.5 -57.5t-45.5 -51t-58.5 -37.5t-73.5 -15q-68 0 -95.5 49t-27.5 114 v5l-2 -3q-35 -59 -72 -103t-77 -44q-47 0 -64.5 24.5t-17.5 65.5v2q10 57 27.5 118.5t35.5 109.5v2q12 31 22.5 57.5t10.5 32.5h-2v4q-14 0 -33.5 -22.5t-41 -53.5t-42 -64.5t-35.5 -56.5l-8 -12l-8 -17v3q-12 -27 -18.5 -58t-10.5 -57v-21q0 -10 2 -20t4 -19q0 -2 1 -4 t1 -6q0 -16 -18 -16q-49 0 -66.5 34.5t-17.5 73.5v13q0 2 1 5t1 7l4 12q-23 -35 -46.5 -67.5t-41.5 -49.5q-12 -10 -30.5 -17t-37.5 -7q-20 0 -32.5 12t-19.5 29.5t-9 38t-2 37.5q-35 -47 -77 -83t-89 -36t-67.5 24.5t-24.5 63.5q-29 -43 -51 -62q-12 -10 -30.5 -17 t-37.5 -7q-35 0 -49 35t-14 82v4q2 18 6 45.5t10 56.5t13.5 55.5t13.5 45.5q-8 0 -13.5 1t-13.5 1l-10 -27v2l-31 -61l-41 10l43 82q-41 8 -59.5 39.5t-14.5 66.5zM2279 487q-4 -12 9 -20q6 14 16 44t12 48h-2v2q-10 -8 -21.5 -32t-13.5 -42zM2292 1540l2 2h-2v-2z M2370 1575q25 -8 46 -13.5t44 -11.5q23 104 42 192.5t31 155.5q-35 -76 -75.5 -158.5t-87.5 -164.5zM2589 201q-2 -14 2 -29.5t20 -15.5q18 0 38 17t38 44t34.5 54.5t26.5 50.5q0 8 7 14q0 4 1 7t1 13l2 -2q-2 25 4 25q33 -4 49 -8q4 12 4 20q0 2 1 4t1 4q2 29 -10 58.5 t-41 29.5q-31 0 -61.5 -34.5t-56.5 -81.5t-42 -95.5t-18 -74.5zM3371 233q2 1 2 3v-5q-2 -4 -2 2zM3391 1395q-2 -16 2.5 -31.5t20.5 -15.5q18 0 36.5 18t37 44t35 54.5t28.5 48.5q0 8 6 15q2 4 4.5 10t-2.5 21q1 14 9 14q33 -4 49 -8l8 30q-2 29 -14.5 57.5t-38.5 28.5 q-31 0 -62.5 -34.5t-57.5 -81.5t-42 -95.5t-19 -74.5zM3807 586q4 29 18.5 57.5t32.5 28.5q21 0 39 -25q6 -10 8.5 -21.5t2.5 -21.5q-4 -25 -20.5 -38t-35.5 -13q-18 0 -31.5 8t-13.5 25zM3817 1681q-4 -16 13 -18q6 16 15 43t11 49q0 4 4 4q-8 0 -24.5 -27.5t-18.5 -50.5z M3850 1110q6 -29 23.5 -54.5t50.5 -21.5h-2q49 8 73.5 40t24.5 67q0 16 -8 29.5t-25 13.5q-8 0 -12 -2q-20 -6 -36.5 -27.5t-16.5 -50.5q0 -18 6 -33q14 -14 -8 -24q-21 -8 -25 12q-4 10 -14 23.5t-31 27.5zM3885 156q2 2 8 2q10 0 12.5 -9.5t2.5 -19.5q-2 -16 13 -19.5 t32 -3.5v-2q47 2 66.5 30t23.5 75q-2 29 -13.5 65.5t-31.5 71.5q-23 -43 -52.5 -96t-60.5 -94zM3967 1393v8q8 72 24.5 136.5t34.5 119.5l9 29l-2 -3q0 2 1 5.5t1 9.5v8q8 23 36 18q51 -23 52 -53q0 -10 -1 -15t-3 -16q0 -8 -5 -16v2q-6 -18 -13 -46t-14 -58.5t-13.5 -60 t-8.5 -54.5v-27q0 -39 13 -39q10 0 25.5 18.5t32.5 47.5t35.5 60.5t33.5 60.5v-2l8 16q0 -2 2 -2h2q12 61 32.5 135t50 136.5t66.5 105.5t82 43q16 0 27.5 -10.5t17.5 -25.5t8.5 -31.5t2.5 -30.5q-4 -41 -21.5 -82t-44.5 -81t-58.5 -77t-62.5 -66q-2 -6 -10 -46t-12 -87 q-2 -10 -2 -24q0 -27 7 -44.5t23 -17.5q23 0 46.5 21.5t45 52.5t40 65.5t32.5 63.5q0 -2 1 -3t1 1q12 66 32.5 150t51.5 157.5t71 124.5t89 51q16 0 27.5 -11t18.5 -28.5t10 -36t3 -32.5q-4 -41 -23.5 -86t-47 -89t-59 -84t-62.5 -71q-2 -8 -11.5 -52t-13.5 -91 q-2 -10 -2 -18.5v-12.5q0 -29 6 -48.5t27 -19.5q23 0 44 19.5t40.5 49.5t38 65.5t35.5 68.5q4 20 7 39t11 35q25 31 66 31q16 0 32 -9q4 33 12.5 65t24 56.5t40 40t61.5 15.5q63 0 89.5 -48.5t26.5 -117.5v-35q-4 -43 -18 -92t-33 -88q35 16 59.5 52t47.5 75l14 26l8 4t8 2 t9.5 -3t9.5 -17q-10 -25 -27.5 -56.5t-41 -60t-52.5 -49t-64 -25.5q-33 -47 -75.5 -77.5t-89.5 -30.5q-33 0 -55.5 14.5t-38 39t-23.5 54t-10 60.5q-18 -33 -38 -63.5t-41.5 -55.5t-45 -39t-47.5 -14q-33 0 -54.5 13t-35 35.5t-18.5 51.5t-5 58q-35 -66 -77 -112t-93 -46 q-31 0 -51.5 13t-32.5 34.5t-17.5 48.5t-5.5 53v9q-35 -59 -74.5 -106.5t-74.5 -47.5q-47 0 -65.5 33.5t-18.5 83.5zM4011 507q-1 -3 3 -9q10 27 22.5 58.5t8.5 41.5v-2q-2 4 -6 6q-10 -6 -18.5 -32.5t-8.5 -53.5q0 -6 -1 -9zM4071 1804q2 23 14.5 43.5t33.5 20.5 q18 0 36 -25q8 -12 10.5 -23.5t2.5 -21.5q-2 -25 -20.5 -38t-37.5 -13q-16 0 -28.5 14.5t-10.5 42.5zM4340 1634q14 14 34.5 39t39 54.5t31.5 63.5t18 67q4 12 1.5 25t-8.5 13q-18 0 -51 -71.5t-65 -190.5zM4520 6q0 12 5 31.5t13.5 38t19.5 32t27 13.5t11 -25l-8 -12h2 q-6 -10 -7 -21q0 -6 7 -26q18 -66 74.5 -97.5t127.5 -31.5q35 0 70 6t63 16q20 10 48 24.5t51.5 33t40 39t16.5 41.5q0 14 -4 22q-8 16 -29.5 29.5t-44.5 21.5q-25 6 -55.5 12.5t-58.5 10.5q-4 0 -9.5 1t-7.5 1q-49 8 -98 19.5t-92 31t-76 49t-49 76.5q-6 20 -10.5 42 t-4.5 38q0 63 37 166q20 55 54 105t77 91t91.5 70t97.5 39q41 10 59 10q55 0 105.5 -24.5t91.5 -65.5t69.5 -93t38.5 -110q25 0 41.5 1t30.5 3q6 0 0 1t0 1q8 33 13 62t8 39q2 8 -0.5 17t-4.5 20q0 2 -1 -4.5t-1 -1.5q4 23 12.5 27.5t18.5 4.5q51 0 65.5 -29.5t10.5 -64.5 q-2 -16 -4 -32.5t-6 -32.5q51 2 90 -11.5t67 -54.5q10 0 22.5 -4t20.5 -8q16 -14 23.5 -37t3.5 -47q-2 -29 -8 -55.5t-13 -45.5q-12 -35 -28.5 -91t-20.5 -91q0 -25 2 -24q10 0 31 23.5t42.5 57t43 67.5t35.5 56q10 37 19.5 67t13.5 62h-2q0 2 -1 4.5t-1 4.5v14q2 35 43 35 q33 0 44 -23.5t9 -52.5q-4 -33 -14.5 -72t-20.5 -76q-4 -8 -4 -10l-4 -12q-10 -35 -17.5 -63.5t-9.5 -45.5q-2 -10 -1 -24t9 -14t22.5 17t32 43t35 55.5t33.5 56.5v-3q16 43 42 84t57.5 75t67.5 54.5t75 20.5q16 0 28.5 -2t24.5 -12l4 12q12 59 21.5 103t11.5 61q2 10 0 17 t-4 13l-2 -2v7q6 31 33 30q51 0 65.5 -29.5t9.5 -64.5q-2 -29 -17 -95.5t-32 -133.5q-2 -12 -5 -25.5t-5 -25.5q0 -4 -2 -8.5t-2 -8.5q-14 -49 -27.5 -110.5t-13.5 -98.5v-20q2 -16 16 -17q14 0 32 11.5t28 23.5q27 31 51.5 77t42.5 81l6 12v-2l10 21q6 23 13.5 48t17.5 48 l8 29l-2 -3q0 2 1 5.5t1 9.5v8q8 23 37 18q51 -23 51 -53q0 -10 -1 -15t-3 -13q0 -10 -4 -19v2q-6 -18 -13 -46t-14.5 -58.5t-13.5 -60t-8 -54.5q0 -4 -1 -7t-1 -7v-11q0 -39 12 -38q10 0 27.5 20t36 49t37 62.5t34.5 62.5q2 23 6.5 42.5t10.5 37.5q25 31 65 31q16 0 33 -9 q4 33 12.5 65t23.5 56.5t39.5 40t61.5 15.5q61 0 89 -48.5t28 -117.5v-19.5t-2 -17.5q-4 -43 -18.5 -90t-32.5 -88q35 16 60.5 53t47.5 74l15 26q4 2 7 4t7 2q10 0 16 -20q-10 -23 -25.5 -53.5t-38 -59t-52 -50t-64.5 -25.5q-33 -47 -76 -78t-90 -31q-33 0 -55.5 14.5 t-37.5 38t-23.5 53t-10.5 60.5q-35 -63 -77.5 -114.5t-77.5 -51.5q-47 0 -65.5 34t-18.5 81v22q-10 -18 -21.5 -35.5t-21.5 -33.5q-23 -29 -49.5 -50.5t-67.5 -25.5q-57 0 -80.5 28.5t-23.5 81.5v17q-35 -49 -77 -87t-91 -38t-70 29.5t-23 70.5q-29 -41 -57.5 -66.5 t-56.5 -25.5q-47 0 -65.5 23.5t-18.5 62.5v21q-29 -45 -62.5 -79t-81.5 -34q-35 0 -49 22.5t-14 61.5v12q0 4 1 6t1 6v9.5t4 17.5q-35 -55 -73 -97t-83 -42q-59 0 -82.5 28.5t-23.5 79.5v11q2 27 10 65.5t17.5 83.5t20.5 93t22 91l6 25q-12 -2 -25.5 -2h-25.5q0 -20 -3 -31 q-6 -43 -28.5 -78.5t-54 -63.5t-67.5 -43.5t-71 -15.5t-68.5 25t-47.5 66q-4 10 -4.5 20t8.5 16q14 10 19 2t15 -20q10 -29 29 -42t39 -13q37 0 69.5 46t32.5 118h2q-2 51 -22.5 103t-52 94t-72.5 68.5t-86 26.5q-49 0 -85 -22.5t-59.5 -60t-34.5 -86t-14 -99.5v-31 q0 -70 21 -118q27 -59 83 -91t112 -53v2q2 0 2 -2t4 -2l24 -10q8 -4 20.5 -10t23 -10.5t15.5 -6.5t1 2q39 -16 67.5 -45.5t42.5 -74.5q10 -35 10 -62q0 -41 -15 -80t-41.5 -71.5t-61.5 -59t-74 -45.5q-55 -25 -129 -24q-57 0 -112.5 18t-98.5 50t-67.5 75t-20.5 94z M4622 1671q14 14 34 40t38 57.5t33.5 66.5t21.5 68q0 12 -2 31.5t-6 19.5q-18 0 -51 -77t-68 -206zM4887 1470q0 -43 9 -75.5t38 -32.5q35 0 61 27q-47 18 -72.5 49.5t-35.5 72.5v-41zM4958 1595q0 -49 13.5 -98t58.5 -61q23 37 38 85t19 97v29q0 47 -17.5 82.5t-53.5 35.5 q-27 0 -39.5 -35.5t-16.5 -80.5v-23q0 -8 -1 -15.5t-1 -15.5zM5356 184q0 -29 10 -43q10 0 37 17q18 14 35.5 37.5t34 49t29.5 52.5t24 49v-2l6 16q4 8 8 15.5t8 13.5q10 33 16.5 61.5t10.5 47.5l-2 -2q0 16 -2 22q-4 8 -5 12q-25 20 -56.5 26.5t-65.5 6.5h-11l-26 -106 l-13 -47q0 -2 -1 -4.5t-1 -4.5q-4 -16 -10 -42.5t-12 -57.5t-10 -61.5t-4 -55.5zM6023 199q-2 -14 2.5 -30.5t20.5 -16.5q18 0 38.5 20.5t40 48t37 57t27.5 50.5v2l31 129l-2 -2q0 2 1 4t1 4l4 12q-12 6 -21 6q-31 0 -62.5 -34.5t-57 -82t-42 -94.5t-18.5 -73zM6531 600 q4 25 17.5 48.5t31.5 23.5q21 0 39 -25q8 -10 10 -21.5t2 -21.5q-2 -25 -20 -38t-37 -13q-18 0 -30.5 11t-12.5 36zM6793 276q0 -43 10 -74.5t39 -31.5q35 0 62 27q-47 16 -72.5 47.5t-36.5 74.5v-4q0 -6 -1 -11t-1 -9v-19zM6867 401q0 -25 3 -50t10 -47.5t21.5 -39 t37.5 -22.5q23 39 37 86t18 96v29q0 47 -16.5 82.5t-53.5 35.5q-27 0 -39 -35.5t-16 -80.5v-23q0 -8 -1 -15.5t-1 -15.5z" />
<glyph unicode="&#xab;" horiz-adv-x="1603" d="M20 784q4 2 4.5 4.5t2.5 4.5q0 23 14 32q27 41 83 104.5t127 134.5t147.5 145.5t147 139t125 113.5t79.5 72q12 10 39.5 42t59.5 66.5t58.5 62.5t34.5 28q20 0 36.5 -13.5t28 -33t15.5 -42t2 -38.5q-8 -45 -60.5 -113t-128 -146.5t-168 -163.5t-181.5 -165t-164.5 -149.5 t-120.5 -116.5q74 -43 168 -95.5t183 -106.5t158.5 -106.5t92.5 -95.5q6 -12 10 -31.5t4 -40t-4 -37t-14 -22.5q-4 -2 -26.5 12.5t-49.5 33t-50.5 35.5t-31.5 21q-20 8 -60 30t-92.5 50.5t-112 63.5t-115.5 69.5t-105.5 68.5t-79.5 61q-16 6 -26.5 20t-17.5 32.5t-10.5 37 t-1.5 32.5zM635 784q4 2 4 4.5t2 4.5q0 23 14 32q27 41 83.5 104.5t127 134.5t147.5 145.5t147.5 139t124.5 113.5t79 72q12 10 40 42t59.5 66.5t58 62.5t34.5 28q20 0 37 -13.5t28 -33t15 -42t2 -38.5q-8 -45 -60 -113t-128 -146.5t-168 -163.5t-181 -165t-165 -149.5 t-121 -116.5q74 -43 168 -95.5t183 -106.5t158.5 -106.5t92.5 -95.5q6 -12 10.5 -31.5t4.5 -40t-4.5 -37t-14.5 -22.5q-4 -2 -26.5 12.5t-49 33t-50 35.5t-32.5 21q-20 8 -60 30t-92 50.5t-111.5 63.5t-116 69.5t-105.5 68.5t-80 61q-16 6 -26.5 20t-17.5 32.5t-10 37 t-1 32.5z" />
<glyph unicode="&#xac;" horiz-adv-x="1974" d="M41 1331q6 59 17.5 104.5t52.5 69.5q35 31 94 44.5t122.5 18.5t123 5t96.5 2q209 2 355.5 4t246.5 4t167.5 4t121 2t102.5 -1t115 -3q68 12 125 11t94 -25.5t49 -77.5t-10 -145q-35 -147 -59.5 -252t-40 -173.5t-23.5 -106.5t-12 -54q-12 -41 -19.5 -85t-1.5 -87 q-2 -23 8.5 -37t12.5 -18q2 -8 -12.5 -13.5t-30.5 -5.5q-59 2 -106.5 8t-69.5 27q-27 20 -33 54t-3 72t10 72.5t11 57.5q27 129 45.5 222t31.5 158.5t21.5 106.5t12.5 64q-59 -10 -114.5 -12.5t-88.5 -2.5q-252 2 -429 2.5t-294 -1t-181.5 -1.5h-92.5q-68 4 -142.5 2 t-148.5 -16q-35 -4 -59.5 -17.5t-32.5 -15.5q-16 -4 -25.5 7.5t-5.5 27.5z" />
<glyph unicode="&#xad;" horiz-adv-x="997" d="M35 942q6 98 51 137q23 25 60.5 37t77.5 17.5t77 4.5t61 -1q86 -4 163 -7.5t155 -7.5h22.5h33t53 1t81.5 1q25 4 41.5 14.5t22.5 10.5q10 4 14 -5t2 -24q-4 -51 -16 -82.5t-35 -54.5q-25 -25 -61.5 -37t-76.5 -17t-77 -4t-61 1q-86 4 -164 7t-154 7q-47 2 -96 4t-96 -8 q-23 -4 -40.5 -13.5t-21.5 -11.5q-20 -2 -16 31z" />
<glyph unicode="&#xae;" horiz-adv-x="1724" d="M19 1167q-1 84 10 156q10 78 47 170t97 185.5t144 181.5t188.5 154.5t231 107.5t271.5 41q231 0 380.5 -69t226.5 -180.5t87 -254.5t-36 -294t-141 -294t-230.5 -254.5t-304.5 -180.5t-361 -69q-143 0 -246.5 36t-174.5 96.5t-111 138t-58.5 161.5t-19.5 168zM244 1156.5 q-8 -140.5 35 -252t142 -181.5t263 -70q104 0 205.5 49.5t193.5 135.5q-59 16 -103 49t-78 76t-57.5 92t-39.5 98q-31 -86 -83 -143.5t-140 -57.5q-25 0 -52.5 5.5t-52.5 15.5q-20 23 -20 41t30 28q12 -4 22.5 -5t27.5 -1q27 0 48 15.5t38.5 38t30 51t22.5 55.5 q25 90 40 197.5t23 189.5q0 10 -6 16l-2 23q0 16 11.5 22.5t27.5 6.5q63 4 82.5 -24t19.5 -64q2 -53 -6 -113.5t-18 -126.5q0 -4 1 -1t-1 -1q72 10 110.5 82t38.5 158q0 43 -12 82.5t-38.5 72.5t-67.5 52.5t-97 19.5q-25 0 -64.5 -7t-80.5 -18h2q-37 -16 -74 -41.5 t-67.5 -57.5t-53 -70t-34.5 -76q-2 -10 -3 -20.5t-1 -14.5q0 -47 22.5 -83t65.5 -36h18q20 4 39 22q0 4 1 5.5t1 3.5q12 12 18 39q20 16 37 18t25 -35q0 -23 -25 -74q-31 -39 -84 -55h2q-31 -12 -63 -12q-74 0 -114 47t-48 115q-49 -141 -57 -281.5zM473 1759 q33 27 65.5 47.5t67.5 38.5q57 29 122 45.5t122 16.5q53 0 105.5 -12.5t95.5 -41.5q66 -45 96.5 -111.5t30.5 -139.5q0 -59 -20.5 -119t-57.5 -110t-87 -86t-112 -48l21 -39q47 -86 103 -168t134 -117q90 102 158.5 228.5t106.5 255.5t40 251t-43 216t-142 151.5t-255 57.5 q-166 0 -306 -89.5t-245 -226.5z" />
<glyph unicode="&#xb0;" horiz-adv-x="530" d="M8 1964q2 39 23.5 89t59.5 94t92 74t122 30q80 0 123 -23.5t62.5 -59.5t20.5 -80t-1 -85q-4 -43 -22.5 -95.5t-54.5 -96.5t-91 -74.5t-131 -30.5q-70 0 -111 26.5t-62.5 65.5t-27.5 84t-2 82zM180 1881.5q0 -23.5 4 -46.5t14.5 -39t32.5 -16q27 0 49.5 24.5t40 61.5 t28.5 82t16 88q4 59 -8.5 99t-49.5 40q-29 0 -51.5 -34t-37.5 -78t-24.5 -86t-11.5 -58q-2 -14 -2 -37.5z" />
<glyph unicode="&#xb1;" horiz-adv-x="1294" d="M10 1442q6 47 27.5 77.5t50.5 51.5q33 20 83 30.5t103.5 14.5t102.5 3t80 -1h61l19 137q10 66 17 138.5t1 142.5q-2 35 -13.5 56.5t-15.5 29.5q0 16 13.5 23t35.5 7q70 2 114 -13t69 -44q33 -31 45 -85t14 -112.5t-3 -113.5t-9 -90l-12 -88q23 -2 44 -2h44q14 0 30.5 -1 t44 -1t71.5 1t112 1q31 4 51 12t29 6q18 6 23 -2t3 -21q-8 -45 -26.5 -74.5t-47.5 -51.5q-35 -20 -86 -30.5t-104 -15t-102.5 -3.5t-79.5 1h-31l-27 -200q-2 -16 -4 -33.5t-3 -48.5t-4 -78t-9 -121q4 -35 16.5 -55.5t12.5 -30.5q4 -16 -10.5 -23.5t-34.5 -7.5 q-72 -2 -114 13.5t-71 44.5q-31 33 -44 86t-14 111.5t4 112.5t9 89l19 152l-121 6q-63 0 -126 4t-134 -6q-27 -4 -48.5 -11.5t-29.5 -11.5q-16 -2 -19.5 6.5t-5.5 18.5zM123 530q6 98 51 138q23 25 60.5 37t77.5 17t77 4t62 -1q86 -4 162.5 -7t154.5 -7h22.5h33t53 1t81.5 1 q25 4 41.5 14t22.5 10q10 4 14 -5t2 -23q-4 -51 -16 -83t-35 -55q-25 -25 -61.5 -37t-76.5 -17t-77 -4t-61 1q-86 4 -164 7t-154 7q-47 2 -96 4.5t-96 -8.5q-23 -4 -40.5 -13t-21.5 -11q-20 -2 -16 30z" />
<glyph unicode="&#xb2;" horiz-adv-x="7135" d="M29 186q2 47 18 128t37 167l18 80q12 55 21.5 96t11.5 58q2 10 0 19t-4 16v8q0 12 9.5 17t19.5 5q53 0 67.5 -29.5t10.5 -64.5q-4 -47 -20.5 -111.5t-33.5 -130.5q31 37 67 64t75 27q51 0 70.5 -32t19.5 -77v-20q-4 -43 -25.5 -98.5t-54.5 -108.5q74 63 131 147l8 29 q10 37 18.5 70.5t10.5 54.5q2 6 0 13t-4 13v4q0 14 9 19.5t19 5.5q12 0 26.5 -4t18.5 -8q20 -14 27.5 -37t5.5 -47q-6 -49 -20 -88q-4 -8 -4 -13q-12 -35 -27.5 -91t-19.5 -91q0 -25 2 -24q8 0 24.5 18t34.5 45t36.5 58.5t35.5 56.5l10 14l2 2h2h2q8 47 12 79t4 42 q4 16 2 27.5t-4 19.5v4q0 14 9.5 18.5t21.5 4.5q45 0 63.5 -19.5t22.5 -46.5q-4 -31 -6 -59.5t-6 -59t-10.5 -66.5t-14.5 -81q29 33 57.5 84t51.5 92l10 10h2l4 2q4 0 11.5 -1t19.5 -11q-16 -33 -36.5 -69.5t-43.5 -71.5t-46.5 -63.5t-43.5 -45.5q-20 -100 -48 -197.5 t-65 -174t-85 -120.5t-107 -36q-39 4 -60.5 34.5t-21.5 75.5q0 4 1 16.5t5 28.5q29 106 100.5 191.5t153.5 155.5l22 116q-37 -57 -77.5 -101t-85.5 -44q-35 0 -50.5 22.5t-15.5 61.5v10t4 16q2 10 4 21.5t2 28.5q-37 -43 -84 -83t-102 -65h2q-23 -12 -54.5 -21.5 t-64.5 -9.5q-23 0 -31 2q-35 10 -58 42t-19 81zM121 164q0 -31 12 -31q6 0 14 4q29 14 55.5 50t48 78t35 83t15.5 64q2 16 -2 32.5t-20 16.5q-14 0 -32 -15.5t-35 -38t-32.5 -48t-27.5 -48.5q-4 -8 -5 -12q-8 -29 -17 -67.5t-9 -67.5zM422 -281q0 -29 24 -28v-2q27 2 48 35 q37 47 64.5 124.5t47.5 143.5l12 41l3 4q-80 -63 -136 -154q-6 -10 -17 -30.5t-21.5 -44t-17.5 -47.5t-7 -42zM942 258q2 23 14.5 43.5t30.5 20.5q19 0 37 -25q12 -23 10 -47q-4 -23 -20.5 -34t-34.5 -11q-14 0 -27.5 12t-9.5 41zM963 422q2 23 13 43t32 20q18 1 36 -24 q12 -23 11 -47q-4 -20 -20.5 -32.5t-35.5 -12.5q-16 0 -28.5 12t-7.5 41zM1335 49q2 88 47 167t123 110q31 8 49 8q59 0 84 -46t25 -108q0 -27 -1 -43t-3 -28q-10 -18 -21.5 -17.5t-15.5 4.5q-2 0 -2 4q-2 2 -2 13v47q0 35 -7 64.5t-36 31.5q-23 2 -44.5 -16.5t-39.5 -49 t-32.5 -69.5t-20.5 -78v2q-2 -16 -2 -26.5v-16.5q0 -37 9 -70.5t26.5 -59.5t40 -42t49.5 -18q51 8 92 46t70.5 92t50 116.5t30.5 121.5q4 23 8.5 45.5t6.5 45.5q-27 -16 -47.5 -37t-30.5 -49q-6 -8 -17.5 -7.5t-11.5 7.5q8 63 39 106t72 63v66q0 2 1 4t1 4v29q0 4 1 8t1 8 q0 18 2 37t4 49q-20 -10 -51 -16t-60 -6q-23 0 -43 12t-26 39q0 4 -1 3t-1 3v8q0 25 13 47.5t35.5 41t49.5 30.5t55 16q-12 0 -8 3h21q61 0 108 -41q59 16 127 30.5t133 28.5q43 8 96.5 20.5t106.5 26.5t103.5 27.5t91.5 25.5q16 6 38.5 15.5t26.5 19.5l-2 -2v10q0 4 2 9.5 t16 9.5q6 0 17 -13q8 -14 1 -28.5t-19.5 -27.5t-26 -23.5t-21.5 -14.5q-51 -31 -116.5 -55.5t-134 -46t-137 -38.5t-126.5 -30l-30 -8l-23 -6l-80 -19v-6q0 -6 1 -16t1 -27q0 -23 -1 -58.5t-5 -107.5h6l-2 -2q55 10 109.5 26.5t83.5 49.5q12 16 19 5t7 -23 q-4 -31 -22.5 -52.5t-46 -36t-60.5 -23.5t-67 -15l-17 -4q-4 -2 -16 -2v-15q-6 -63 -17.5 -131.5t-33 -135.5t-57 -125t-87.5 -101q-35 -25 -82 -41.5t-94 -16.5h-26q-109 16 -167.5 96.5t-58.5 192.5zM1653 1395q0 49 16.5 100t47 92t74.5 67.5t99 26.5q57 0 92 -33.5 t35 -84.5q0 -14 -4 -35q51 33 116.5 53.5t119.5 20.5q16 0 34.5 -2.5t34.5 -6.5q76 119 134.5 249t93.5 257q4 12 14 17q10 10 29 10q57 0 75.5 -34t18.5 -81v-31q-8 -72 -27.5 -164t-42.5 -192q-4 -23 -10 -42t-10 -42q63 2 127 64q6 25 10 45t6 37q2 8 0 15t-4 15l-2 -2v4 q6 31 33 31q51 0 65.5 -29.5t10.5 -62.5t-9 -49v-2l9 12q16 27 33.5 52.5t38 47t43 34.5t48.5 13q37 0 50.5 -25.5t11.5 -56.5l-4 -24t-6 -27q31 47 68.5 88t84.5 41q35 0 48.5 -24.5t11.5 -59.5q-4 -35 -16.5 -79t-28.5 -85q-14 -39 -25.5 -75.5t-13.5 -63.5 q-2 -10 0 -24.5t8 -14.5t18.5 13.5t26.5 35t29.5 48t29.5 51.5v-2q16 45 43 93t60.5 87t72.5 63.5t82 24.5q57 0 87 -49t28 -105q-2 -8 -4 -17t-8 -24h-15q20 -12 25 -38q2 -16 -3 -36t-9 -40q-2 -2 -2 -6q0 -2 -1 -3t-1 -6q-2 -10 -3.5 -23t-1.5 -25.5t1 -19.5t8 -3v-2 q25 27 57.5 80t54.5 100l21 41v-2q4 14 9 20t9 15q-45 6 -61.5 37.5t-12.5 70.5q4 45 36 85t79 40q55 0 51 -72q-4 -31 -12 -59.5t-14 -48.5q-2 -2 -2 -4v-2h51q2 0 4 1t6 1q8 0 18.5 -2t20.5 -6q20 -6 21 -37q0 -33 -16.5 -77t-31.5 -73q-2 -6 -5 -12t-5 -12l-6 -19 q-23 -61 -43 -125.5t-31 -122.5l4 -4v2q10 -10 14.5 -12t12.5 -12q4 31 24.5 54.5t45.5 33.5q14 6 25.5 8t21.5 2q47 0 73.5 -32.5t26.5 -75.5q0 -45 -38 -88.5t-116 -59.5q-10 -2 -20 -2h-20q-66 0 -113 43t-51 129q-86 23 -189 23q-43 0 -93 -4.5t-101 -12.5 q-68 -12 -136.5 -32.5t-128 -52.5t-106.5 -72.5t-74 -92.5q0 -2 -1 -3t-1 -3q-4 -10 -10 -22.5t-20 -12.5t-24.5 15.5t-14.5 34.5q-4 10 -6.5 22t-2.5 21q0 53 32 101t73 83q33 25 80 44t101 34.5t110.5 26t109.5 16.5q41 4 69 5t48 1q78 0 155.5 -12.5t141.5 -40.5 q20 111 48 192.5t56 142.5l15 43q-2 0 -5 1.5t-5 1.5h-19q-4 -6 -5 -14.5t-5 -12.5l-6 -14q-12 -27 -30.5 -64t-41 -75t-46.5 -71.5t-44 -52.5q-12 -10 -30.5 -16t-37.5 -6q-20 0 -33.5 11t-20.5 29.5t-9 40t-2 40.5q-33 -49 -74 -86t-92 -37q-47 0 -68.5 24.5t-25.5 65.5 q-27 -41 -54.5 -65.5t-58.5 -24.5q-47 0 -65.5 23.5t-18.5 62.5v4q8 59 27.5 120.5t38.5 108.5q12 33 22 59.5t10 35.5v4h-2q-12 -2 -29.5 -19.5t-36 -43t-36.5 -56.5t-35 -60l-43 -65v2q-10 -29 -16 -53.5t-8 -46.5q-4 -33 10 -68q0 -14 -21 -14q-47 0 -66.5 27.5 t-19.5 68.5v2q8 61 27.5 122.5t38.5 108.5q14 31 22.5 56.5t8.5 38.5v4q-14 0 -36 -25.5t-45.5 -59.5t-44 -70t-32.5 -56l-10 -15v3q-10 -25 -17.5 -58t-9.5 -59q-2 -20 0 -35.5t4 -24.5v2q2 -4 2 -14q0 -12 -20 -12q-49 0 -65.5 33.5t-16.5 72.5v4q4 45 10 84t14 68 q-29 -18 -57.5 -26.5t-63.5 -12.5q-8 -41 -10 -89t-2 -95q0 -55 7.5 -107.5t23.5 -93.5t44 -65.5t71 -24.5q41 0 86 20q25 -10 24 -20q0 -12 -10 -27q-78 -33 -141 -32q-66 0 -110 32.5t-71.5 86t-40 123t-12.5 143.5q0 35 2 74.5t8 80.5q-27 6 -53 12.5t-55 16.5 q-53 -84 -114.5 -158t-127.5 -131q-43 -37 -92 -66.5t-115 -29.5q-47 0 -90 17.5t-75.5 50t-53 78.5t-20.5 104zM1718 635q4 0 23.5 4t36.5 8l6 4l14 4l-2 -2q25 6 27 4v5q-2 18 -11.5 26t-19.5 8q-23 0 -45.5 -18.5t-28.5 -42.5zM1776 1339.5q4 -36.5 19 -69.5t43 -54.5 t67 -21.5q20 0 37.5 5t37.5 13h-2q68 37 151 125t159 205q-35 8 -70 8q-72 0 -134.5 -34.5t-117.5 -94.5q-4 -4 -10 -6t-10 -2q-10 0 -19.5 7t-5.5 20q23 25 38 58.5t11 66.5q-8 23 -23.5 33t-27.5 12q-23 0 -44.5 -17.5t-42 -46t-34.5 -65.5t-20 -74q-6 -31 -2 -67.5z M2193 520q6 43 36 83t77 40q59 0 53 -70q-4 -29 -13 -58.5t-17 -49.5q0 -6 -2 -8q10 -2 22 -1t25 1q29 0 45 -7.5t12 -41.5q0 -6 -4 -23l-6 -25q-10 -43 -21.5 -94t-15.5 -80q-4 -39 6 -43q18 12 46 51t54 85v-3q14 45 41 95.5t61 90.5t73.5 66.5t82.5 26.5q57 0 87 -49 t28 -105q-2 -8 -4 -17t-8 -24h-15q20 -12 25 -36q2 -16 -1 -32t-7 -32q-4 -12 -4 -22q-2 -6 -4 -20.5t-3 -30t1 -23.5t8 -2v-2q12 12 27.5 34.5t32 49t31.5 54.5t28 50l6 14v-2l6 23l-2 -2q0 4 1 3t1 3q18 70 22 105h-2q0 4 -1 9t-1 9v10q-2 4 -2 10q0 14 10.5 19.5 t20.5 5.5q49 0 63.5 -29.5t12.5 -62.5q-4 -33 -8 -49v-4l8 16q35 51 73.5 98t88.5 47q39 0 51 -23.5t8 -58.5t-15.5 -78.5t-27.5 -84.5q0 -4 -2 -7.5t-2 -7.5q-10 -35 -20.5 -68.5t-14.5 -54.5q-2 -10 0 -24t8 -14q8 0 25.5 22.5t37 54t39 65.5t33.5 56l13 23v-2 q29 82 80 141t116 59q27 0 49.5 -13t37 -34.5t21.5 -48.5t5 -53q0 -12 -4 -28.5t-25 -16.5q-8 0 -18 10l6 35q2 23 -4 43t-19 20q-16 0 -38.5 -25.5t-44 -65.5t-39 -87t-23.5 -90v-18q0 -27 8 -46.5t33 -19.5q23 0 43 13.5t37.5 33t32 43t26.5 41.5q12 20 23.5 42t21.5 40 l6 12l7 13v-2q4 20 10 38.5t10 38.5l6 19l10 29l-2 -3v15q0 4 1 4t1 4q8 23 37 18q53 -23 54 -53q0 -10 -1 -15t-4 -16q0 -8 -4 -16v2q-6 -18 -13 -46t-15 -58.5t-14.5 -60t-8.5 -54.5q0 -4 -1 -7t-1 -7v-11q0 -39 14 -38q8 0 22.5 16t32 41.5t34 56.5t32.5 60v-2l29 69 q-20 29 -33.5 67t-13.5 72q0 31 11 58.5t38 50.5v-2q12 12 28.5 18.5t32.5 6.5q20 0 39 -11.5t19 -40.5q0 -18 -7.5 -40.5t-17.5 -45.5q-4 -8 -4 -12l-18 -51q41 -63 74.5 -129t39.5 -109q27 41 46.5 81t35.5 69q0 2 2 5t2 5q8 20 25 20q16 0 20 -18l-4 -14 q-14 -27 -33.5 -66t-43 -79t-50 -74.5t-51.5 -53.5q-29 -20 -69.5 -31.5t-77.5 -11.5q-41 0 -71 16.5t-26 51.5v2q-18 -18 -36.5 -29.5t-34.5 -11.5q-47 0 -64.5 34t-17.5 81q0 4 1 8t1 8v14q-16 -29 -35.5 -57.5t-45.5 -51t-58.5 -37.5t-73.5 -15q-68 0 -95.5 49t-27.5 114 v5l-2 -3q-35 -59 -72 -103t-77 -44q-47 0 -64.5 24.5t-17.5 65.5v2q10 57 27.5 118.5t35.5 109.5v2q12 31 22.5 57.5t10.5 32.5h-2v4q-14 0 -33.5 -22.5t-41 -53.5t-42 -64.5t-35.5 -56.5l-8 -12l-8 -17v3q-12 -27 -18.5 -58t-10.5 -57v-21q0 -10 2 -20t4 -19q0 -2 1 -4 t1 -6q0 -16 -18 -16q-49 0 -66.5 34.5t-17.5 73.5v13q0 2 1 5t1 7l4 12q-23 -35 -46.5 -67.5t-41.5 -49.5q-12 -10 -30.5 -17t-37.5 -7q-20 0 -32.5 12t-19.5 29.5t-9 38t-2 37.5q-35 -47 -77 -83t-89 -36t-67.5 24.5t-24.5 63.5q-29 -43 -51 -62q-12 -10 -30.5 -17 t-37.5 -7q-35 0 -49 35t-14 82v4q2 18 6 45.5t10 56.5t13.5 55.5t13.5 45.5q-8 0 -13.5 1t-13.5 1l-10 -27v2l-31 -61l-41 10l43 82q-41 8 -59.5 39.5t-14.5 66.5zM2279 487q-4 -12 9 -20q6 14 16 44t12 48h-2v2q-10 -8 -21.5 -32t-13.5 -42zM2292 1540l2 2h-2v-2z M2370 1575q25 -8 46 -13.5t44 -11.5q23 104 42 192.5t31 155.5q-35 -76 -75.5 -158.5t-87.5 -164.5zM2589 201q-2 -14 2 -29.5t20 -15.5q18 0 38 17t38 44t34.5 54.5t26.5 50.5q0 8 7 14q0 4 1 7t1 13l2 -2q-2 25 4 25q33 -4 49 -8q4 12 4 20q0 2 1 4t1 4q2 29 -10 58.5 t-41 29.5q-31 0 -61.5 -34.5t-56.5 -81.5t-42 -95.5t-18 -74.5zM3371 233q2 1 2 3v-5q-2 -4 -2 2zM3391 1395q-2 -16 2.5 -31.5t20.5 -15.5q18 0 36.5 18t37 44t35 54.5t28.5 48.5q0 8 6 15q2 4 4.5 10t-2.5 21q1 14 9 14q33 -4 49 -8l8 30q-2 29 -14.5 57.5t-38.5 28.5 q-31 0 -62.5 -34.5t-57.5 -81.5t-42 -95.5t-19 -74.5zM3807 586q4 29 18.5 57.5t32.5 28.5q21 0 39 -25q6 -10 8.5 -21.5t2.5 -21.5q-4 -25 -20.5 -38t-35.5 -13q-18 0 -31.5 8t-13.5 25zM3817 1681q-4 -16 13 -18q6 16 15 43t11 49q0 4 4 4q-8 0 -24.5 -27.5t-18.5 -50.5z M3850 1110q6 -29 23.5 -54.5t50.5 -21.5h-2q49 8 73.5 40t24.5 67q0 16 -8 29.5t-25 13.5q-8 0 -12 -2q-20 -6 -36.5 -27.5t-16.5 -50.5q0 -18 6 -33q14 -14 -8 -24q-21 -8 -25 12q-4 10 -14 23.5t-31 27.5zM3885 156q2 2 8 2q10 0 12.5 -9.5t2.5 -19.5q-2 -16 13 -19.5 t32 -3.5v-2q47 2 66.5 30t23.5 75q-2 29 -13.5 65.5t-31.5 71.5q-23 -43 -52.5 -96t-60.5 -94zM3967 1393v8q8 72 24.5 136.5t34.5 119.5l9 29l-2 -3q0 2 1 5.5t1 9.5v8q8 23 36 18q51 -23 52 -53q0 -10 -1 -15t-3 -16q0 -8 -5 -16v2q-6 -18 -13 -46t-14 -58.5t-13.5 -60 t-8.5 -54.5v-27q0 -39 13 -39q10 0 25.5 18.5t32.5 47.5t35.5 60.5t33.5 60.5v-2l8 16q0 -2 2 -2h2q12 61 32.5 135t50 136.5t66.5 105.5t82 43q16 0 27.5 -10.5t17.5 -25.5t8.5 -31.5t2.5 -30.5q-4 -41 -21.5 -82t-44.5 -81t-58.5 -77t-62.5 -66q-2 -6 -10 -46t-12 -87 q-2 -10 -2 -24q0 -27 7 -44.5t23 -17.5q23 0 46.5 21.5t45 52.5t40 65.5t32.5 63.5q0 -2 1 -3t1 1q12 66 32.5 150t51.5 157.5t71 124.5t89 51q16 0 27.5 -11t18.5 -28.5t10 -36t3 -32.5q-4 -41 -23.5 -86t-47 -89t-59 -84t-62.5 -71q-2 -8 -11.5 -52t-13.5 -91 q-2 -10 -2 -18.5v-12.5q0 -29 6 -48.5t27 -19.5q23 0 44 19.5t40.5 49.5t38 65.5t35.5 68.5q4 20 7 39t11 35q25 31 66 31q16 0 32 -9q4 33 12.5 65t24 56.5t40 40t61.5 15.5q63 0 89.5 -48.5t26.5 -117.5v-35q-4 -43 -18 -92t-33 -88q35 16 59.5 52t47.5 75l14 26l8 4t8 2 t9.5 -3t9.5 -17q-10 -25 -27.5 -56.5t-41 -60t-52.5 -49t-64 -25.5q-33 -47 -75.5 -77.5t-89.5 -30.5q-33 0 -55.5 14.5t-38 39t-23.5 54t-10 60.5q-18 -33 -38 -63.5t-41.5 -55.5t-45 -39t-47.5 -14q-33 0 -54.5 13t-35 35.5t-18.5 51.5t-5 58q-35 -66 -77 -112t-93 -46 q-31 0 -51.5 13t-32.5 34.5t-17.5 48.5t-5.5 53v9q-35 -59 -74.5 -106.5t-74.5 -47.5q-47 0 -65.5 33.5t-18.5 83.5zM4011 507q-1 -3 3 -9q10 27 22.5 58.5t8.5 41.5v-2q-2 4 -6 6q-10 -6 -18.5 -32.5t-8.5 -53.5q0 -6 -1 -9zM4071 1804q2 23 14.5 43.5t33.5 20.5 q18 0 36 -25q8 -12 10.5 -23.5t2.5 -21.5q-2 -25 -20.5 -38t-37.5 -13q-16 0 -28.5 14.5t-10.5 42.5zM4340 1634q14 14 34.5 39t39 54.5t31.5 63.5t18 67q4 12 1.5 25t-8.5 13q-18 0 -51 -71.5t-65 -190.5zM4520 6q0 12 5 31.5t13.5 38t19.5 32t27 13.5t11 -25l-8 -12h2 q-6 -10 -7 -21q0 -6 7 -26q18 -66 74.5 -97.5t127.5 -31.5q35 0 70 6t63 16q20 10 48 24.5t51.5 33t40 39t16.5 41.5q0 14 -4 22q-8 16 -29.5 29.5t-44.5 21.5q-25 6 -55.5 12.5t-58.5 10.5q-4 0 -9.5 1t-7.5 1q-49 8 -98 19.5t-92 31t-76 49t-49 76.5q-6 20 -10.5 42 t-4.5 38q0 63 37 166q20 55 54 105t77 91t91.5 70t97.5 39q41 10 59 10q55 0 105.5 -24.5t91.5 -65.5t69.5 -93t38.5 -110q25 0 41.5 1t30.5 3q6 0 0 1t0 1q8 33 13 62t8 39q2 8 -0.5 17t-4.5 20q0 2 -1 -4.5t-1 -1.5q4 23 12.5 27.5t18.5 4.5q51 0 65.5 -29.5t10.5 -64.5 q-2 -16 -4 -32.5t-6 -32.5q51 2 90 -11.5t67 -54.5q10 0 22.5 -4t20.5 -8q16 -14 23.5 -37t3.5 -47q-2 -29 -8 -55.5t-13 -45.5q-12 -35 -28.5 -91t-20.5 -91q0 -25 2 -24q10 0 31 23.5t42.5 57t43 67.5t35.5 56q10 37 19.5 67t13.5 62h-2q0 2 -1 4.5t-1 4.5v14q2 35 43 35 q33 0 44 -23.5t9 -52.5q-4 -33 -14.5 -72t-20.5 -76q-4 -8 -4 -10l-4 -12q-10 -35 -17.5 -63.5t-9.5 -45.5q-2 -10 -1 -24t9 -14t22.5 17t32 43t35 55.5t33.5 56.5v-3q16 43 42 84t57.5 75t67.5 54.5t75 20.5q16 0 28.5 -2t24.5 -12l4 12q12 59 21.5 103t11.5 61q2 10 0 17 t-4 13l-2 -2v7q6 31 33 30q51 0 65.5 -29.5t9.5 -64.5q-2 -29 -17 -95.5t-32 -133.5q-2 -12 -5 -25.5t-5 -25.5q0 -4 -2 -8.5t-2 -8.5q-14 -49 -27.5 -110.5t-13.5 -98.5v-20q2 -16 16 -17q14 0 32 11.5t28 23.5q27 31 51.5 77t42.5 81l6 12v-2l10 21q6 23 13.5 48t17.5 48 l8 29l-2 -3q0 2 1 5.5t1 9.5v8q8 23 37 18q51 -23 51 -53q0 -10 -1 -15t-3 -13q0 -10 -4 -19v2q-6 -18 -13 -46t-14.5 -58.5t-13.5 -60t-8 -54.5q0 -4 -1 -7t-1 -7v-11q0 -39 12 -38q10 0 27.5 20t36 49t37 62.5t34.5 62.5q2 23 6.5 42.5t10.5 37.5q25 31 65 31q16 0 33 -9 q4 33 12.5 65t23.5 56.5t39.5 40t61.5 15.5q61 0 89 -48.5t28 -117.5v-19.5t-2 -17.5q-4 -43 -18.5 -90t-32.5 -88q35 16 60.5 53t47.5 74l15 26q4 2 7 4t7 2q10 0 16 -20q-10 -23 -25.5 -53.5t-38 -59t-52 -50t-64.5 -25.5q-33 -47 -76 -78t-90 -31q-33 0 -55.5 14.5 t-37.5 38t-23.5 53t-10.5 60.5q-35 -63 -77.5 -114.5t-77.5 -51.5q-47 0 -65.5 34t-18.5 81v22q-10 -18 -21.5 -35.5t-21.5 -33.5q-23 -29 -49.5 -50.5t-67.5 -25.5q-57 0 -80.5 28.5t-23.5 81.5v17q-35 -49 -77 -87t-91 -38t-70 29.5t-23 70.5q-29 -41 -57.5 -66.5 t-56.5 -25.5q-47 0 -65.5 23.5t-18.5 62.5v21q-29 -45 -62.5 -79t-81.5 -34q-35 0 -49 22.5t-14 61.5v12q0 4 1 6t1 6v9.5t4 17.5q-35 -55 -73 -97t-83 -42q-59 0 -82.5 28.5t-23.5 79.5v11q2 27 10 65.5t17.5 83.5t20.5 93t22 91l6 25q-12 -2 -25.5 -2h-25.5q0 -20 -3 -31 q-6 -43 -28.5 -78.5t-54 -63.5t-67.5 -43.5t-71 -15.5t-68.5 25t-47.5 66q-4 10 -4.5 20t8.5 16q14 10 19 2t15 -20q10 -29 29 -42t39 -13q37 0 69.5 46t32.5 118h2q-2 51 -22.5 103t-52 94t-72.5 68.5t-86 26.5q-49 0 -85 -22.5t-59.5 -60t-34.5 -86t-14 -99.5v-31 q0 -70 21 -118q27 -59 83 -91t112 -53v2q2 0 2 -2t4 -2l24 -10q8 -4 20.5 -10t23 -10.5t15.5 -6.5t1 2q39 -16 67.5 -45.5t42.5 -74.5q10 -35 10 -62q0 -41 -15 -80t-41.5 -71.5t-61.5 -59t-74 -45.5q-55 -25 -129 -24q-57 0 -112.5 18t-98.5 50t-67.5 75t-20.5 94z M4622 1671q14 14 34 40t38 57.5t33.5 66.5t21.5 68q0 12 -2 31.5t-6 19.5q-18 0 -51 -77t-68 -206zM4887 1470q0 -43 9 -75.5t38 -32.5q35 0 61 27q-47 18 -72.5 49.5t-35.5 72.5v-41zM4958 1595q0 -49 13.5 -98t58.5 -61q23 37 38 85t19 97v29q0 47 -17.5 82.5t-53.5 35.5 q-27 0 -39.5 -35.5t-16.5 -80.5v-23q0 -8 -1 -15.5t-1 -15.5zM5356 184q0 -29 10 -43q10 0 37 17q18 14 35.5 37.5t34 49t29.5 52.5t24 49v-2l6 16q4 8 8 15.5t8 13.5q10 33 16.5 61.5t10.5 47.5l-2 -2q0 16 -2 22q-4 8 -5 12q-25 20 -56.5 26.5t-65.5 6.5h-11l-26 -106 l-13 -47q0 -2 -1 -4.5t-1 -4.5q-4 -16 -10 -42.5t-12 -57.5t-10 -61.5t-4 -55.5zM6023 199q-2 -14 2.5 -30.5t20.5 -16.5q18 0 38.5 20.5t40 48t37 57t27.5 50.5v2l31 129l-2 -2q0 2 1 4t1 4l4 12q-12 6 -21 6q-31 0 -62.5 -34.5t-57 -82t-42 -94.5t-18.5 -73zM6531 600 q4 25 17.5 48.5t31.5 23.5q21 0 39 -25q8 -10 10 -21.5t2 -21.5q-2 -25 -20 -38t-37 -13q-18 0 -30.5 11t-12.5 36zM6793 276q0 -43 10 -74.5t39 -31.5q35 0 62 27q-47 16 -72.5 47.5t-36.5 74.5v-4q0 -6 -1 -11t-1 -9v-19zM6867 401q0 -25 3 -50t10 -47.5t21.5 -39 t37.5 -22.5q23 39 37 86t18 96v29q0 47 -16.5 82.5t-53.5 35.5q-27 0 -39 -35.5t-16 -80.5v-23q0 -8 -1 -15.5t-1 -15.5z" />
<glyph unicode="&#xb3;" horiz-adv-x="7135" d="M29 186q2 47 18 128t37 167l18 80q12 55 21.5 96t11.5 58q2 10 0 19t-4 16v8q0 12 9.5 17t19.5 5q53 0 67.5 -29.5t10.5 -64.5q-4 -47 -20.5 -111.5t-33.5 -130.5q31 37 67 64t75 27q51 0 70.5 -32t19.5 -77v-20q-4 -43 -25.5 -98.5t-54.5 -108.5q74 63 131 147l8 29 q10 37 18.5 70.5t10.5 54.5q2 6 0 13t-4 13v4q0 14 9 19.5t19 5.5q12 0 26.5 -4t18.5 -8q20 -14 27.5 -37t5.5 -47q-6 -49 -20 -88q-4 -8 -4 -13q-12 -35 -27.5 -91t-19.5 -91q0 -25 2 -24q8 0 24.5 18t34.5 45t36.5 58.5t35.5 56.5l10 14l2 2h2h2q8 47 12 79t4 42 q4 16 2 27.5t-4 19.5v4q0 14 9.5 18.5t21.5 4.5q45 0 63.5 -19.5t22.5 -46.5q-4 -31 -6 -59.5t-6 -59t-10.5 -66.5t-14.5 -81q29 33 57.5 84t51.5 92l10 10h2l4 2q4 0 11.5 -1t19.5 -11q-16 -33 -36.5 -69.5t-43.5 -71.5t-46.5 -63.5t-43.5 -45.5q-20 -100 -48 -197.5 t-65 -174t-85 -120.5t-107 -36q-39 4 -60.5 34.5t-21.5 75.5q0 4 1 16.5t5 28.5q29 106 100.5 191.5t153.5 155.5l22 116q-37 -57 -77.5 -101t-85.5 -44q-35 0 -50.5 22.5t-15.5 61.5v10t4 16q2 10 4 21.5t2 28.5q-37 -43 -84 -83t-102 -65h2q-23 -12 -54.5 -21.5 t-64.5 -9.5q-23 0 -31 2q-35 10 -58 42t-19 81zM121 164q0 -31 12 -31q6 0 14 4q29 14 55.5 50t48 78t35 83t15.5 64q2 16 -2 32.5t-20 16.5q-14 0 -32 -15.5t-35 -38t-32.5 -48t-27.5 -48.5q-4 -8 -5 -12q-8 -29 -17 -67.5t-9 -67.5zM422 -281q0 -29 24 -28v-2q27 2 48 35 q37 47 64.5 124.5t47.5 143.5l12 41l3 4q-80 -63 -136 -154q-6 -10 -17 -30.5t-21.5 -44t-17.5 -47.5t-7 -42zM942 258q2 23 14.5 43.5t30.5 20.5q19 0 37 -25q12 -23 10 -47q-4 -23 -20.5 -34t-34.5 -11q-14 0 -27.5 12t-9.5 41zM963 422q2 23 13 43t32 20q18 1 36 -24 q12 -23 11 -47q-4 -20 -20.5 -32.5t-35.5 -12.5q-16 0 -28.5 12t-7.5 41zM1335 49q2 88 47 167t123 110q31 8 49 8q59 0 84 -46t25 -108q0 -27 -1 -43t-3 -28q-10 -18 -21.5 -17.5t-15.5 4.5q-2 0 -2 4q-2 2 -2 13v47q0 35 -7 64.5t-36 31.5q-23 2 -44.5 -16.5t-39.5 -49 t-32.5 -69.5t-20.5 -78v2q-2 -16 -2 -26.5v-16.5q0 -37 9 -70.5t26.5 -59.5t40 -42t49.5 -18q51 8 92 46t70.5 92t50 116.5t30.5 121.5q4 23 8.5 45.5t6.5 45.5q-27 -16 -47.5 -37t-30.5 -49q-6 -8 -17.5 -7.5t-11.5 7.5q8 63 39 106t72 63v66q0 2 1 4t1 4v29q0 4 1 8t1 8 q0 18 2 37t4 49q-20 -10 -51 -16t-60 -6q-23 0 -43 12t-26 39q0 4 -1 3t-1 3v8q0 25 13 47.5t35.5 41t49.5 30.5t55 16q-12 0 -8 3h21q61 0 108 -41q59 16 127 30.5t133 28.5q43 8 96.5 20.5t106.5 26.5t103.5 27.5t91.5 25.5q16 6 38.5 15.5t26.5 19.5l-2 -2v10q0 4 2 9.5 t16 9.5q6 0 17 -13q8 -14 1 -28.5t-19.5 -27.5t-26 -23.5t-21.5 -14.5q-51 -31 -116.5 -55.5t-134 -46t-137 -38.5t-126.5 -30l-30 -8l-23 -6l-80 -19v-6q0 -6 1 -16t1 -27q0 -23 -1 -58.5t-5 -107.5h6l-2 -2q55 10 109.5 26.5t83.5 49.5q12 16 19 5t7 -23 q-4 -31 -22.5 -52.5t-46 -36t-60.5 -23.5t-67 -15l-17 -4q-4 -2 -16 -2v-15q-6 -63 -17.5 -131.5t-33 -135.5t-57 -125t-87.5 -101q-35 -25 -82 -41.5t-94 -16.5h-26q-109 16 -167.5 96.5t-58.5 192.5zM1653 1395q0 49 16.5 100t47 92t74.5 67.5t99 26.5q57 0 92 -33.5 t35 -84.5q0 -14 -4 -35q51 33 116.5 53.5t119.5 20.5q16 0 34.5 -2.5t34.5 -6.5q76 119 134.5 249t93.5 257q4 12 14 17q10 10 29 10q57 0 75.5 -34t18.5 -81v-31q-8 -72 -27.5 -164t-42.5 -192q-4 -23 -10 -42t-10 -42q63 2 127 64q6 25 10 45t6 37q2 8 0 15t-4 15l-2 -2v4 q6 31 33 31q51 0 65.5 -29.5t10.5 -62.5t-9 -49v-2l9 12q16 27 33.5 52.5t38 47t43 34.5t48.5 13q37 0 50.5 -25.5t11.5 -56.5l-4 -24t-6 -27q31 47 68.5 88t84.5 41q35 0 48.5 -24.5t11.5 -59.5q-4 -35 -16.5 -79t-28.5 -85q-14 -39 -25.5 -75.5t-13.5 -63.5 q-2 -10 0 -24.5t8 -14.5t18.5 13.5t26.5 35t29.5 48t29.5 51.5v-2q16 45 43 93t60.5 87t72.5 63.5t82 24.5q57 0 87 -49t28 -105q-2 -8 -4 -17t-8 -24h-15q20 -12 25 -38q2 -16 -3 -36t-9 -40q-2 -2 -2 -6q0 -2 -1 -3t-1 -6q-2 -10 -3.5 -23t-1.5 -25.5t1 -19.5t8 -3v-2 q25 27 57.5 80t54.5 100l21 41v-2q4 14 9 20t9 15q-45 6 -61.5 37.5t-12.5 70.5q4 45 36 85t79 40q55 0 51 -72q-4 -31 -12 -59.5t-14 -48.5q-2 -2 -2 -4v-2h51q2 0 4 1t6 1q8 0 18.5 -2t20.5 -6q20 -6 21 -37q0 -33 -16.5 -77t-31.5 -73q-2 -6 -5 -12t-5 -12l-6 -19 q-23 -61 -43 -125.5t-31 -122.5l4 -4v2q10 -10 14.5 -12t12.5 -12q4 31 24.5 54.5t45.5 33.5q14 6 25.5 8t21.5 2q47 0 73.5 -32.5t26.5 -75.5q0 -45 -38 -88.5t-116 -59.5q-10 -2 -20 -2h-20q-66 0 -113 43t-51 129q-86 23 -189 23q-43 0 -93 -4.5t-101 -12.5 q-68 -12 -136.5 -32.5t-128 -52.5t-106.5 -72.5t-74 -92.5q0 -2 -1 -3t-1 -3q-4 -10 -10 -22.5t-20 -12.5t-24.5 15.5t-14.5 34.5q-4 10 -6.5 22t-2.5 21q0 53 32 101t73 83q33 25 80 44t101 34.5t110.5 26t109.5 16.5q41 4 69 5t48 1q78 0 155.5 -12.5t141.5 -40.5 q20 111 48 192.5t56 142.5l15 43q-2 0 -5 1.5t-5 1.5h-19q-4 -6 -5 -14.5t-5 -12.5l-6 -14q-12 -27 -30.5 -64t-41 -75t-46.5 -71.5t-44 -52.5q-12 -10 -30.5 -16t-37.5 -6q-20 0 -33.5 11t-20.5 29.5t-9 40t-2 40.5q-33 -49 -74 -86t-92 -37q-47 0 -68.5 24.5t-25.5 65.5 q-27 -41 -54.5 -65.5t-58.5 -24.5q-47 0 -65.5 23.5t-18.5 62.5v4q8 59 27.5 120.5t38.5 108.5q12 33 22 59.5t10 35.5v4h-2q-12 -2 -29.5 -19.5t-36 -43t-36.5 -56.5t-35 -60l-43 -65v2q-10 -29 -16 -53.5t-8 -46.5q-4 -33 10 -68q0 -14 -21 -14q-47 0 -66.5 27.5 t-19.5 68.5v2q8 61 27.5 122.5t38.5 108.5q14 31 22.5 56.5t8.5 38.5v4q-14 0 -36 -25.5t-45.5 -59.5t-44 -70t-32.5 -56l-10 -15v3q-10 -25 -17.5 -58t-9.5 -59q-2 -20 0 -35.5t4 -24.5v2q2 -4 2 -14q0 -12 -20 -12q-49 0 -65.5 33.5t-16.5 72.5v4q4 45 10 84t14 68 q-29 -18 -57.5 -26.5t-63.5 -12.5q-8 -41 -10 -89t-2 -95q0 -55 7.5 -107.5t23.5 -93.5t44 -65.5t71 -24.5q41 0 86 20q25 -10 24 -20q0 -12 -10 -27q-78 -33 -141 -32q-66 0 -110 32.5t-71.5 86t-40 123t-12.5 143.5q0 35 2 74.5t8 80.5q-27 6 -53 12.5t-55 16.5 q-53 -84 -114.5 -158t-127.5 -131q-43 -37 -92 -66.5t-115 -29.5q-47 0 -90 17.5t-75.5 50t-53 78.5t-20.5 104zM1718 635q4 0 23.5 4t36.5 8l6 4l14 4l-2 -2q25 6 27 4v5q-2 18 -11.5 26t-19.5 8q-23 0 -45.5 -18.5t-28.5 -42.5zM1776 1339.5q4 -36.5 19 -69.5t43 -54.5 t67 -21.5q20 0 37.5 5t37.5 13h-2q68 37 151 125t159 205q-35 8 -70 8q-72 0 -134.5 -34.5t-117.5 -94.5q-4 -4 -10 -6t-10 -2q-10 0 -19.5 7t-5.5 20q23 25 38 58.5t11 66.5q-8 23 -23.5 33t-27.5 12q-23 0 -44.5 -17.5t-42 -46t-34.5 -65.5t-20 -74q-6 -31 -2 -67.5z M2193 520q6 43 36 83t77 40q59 0 53 -70q-4 -29 -13 -58.5t-17 -49.5q0 -6 -2 -8q10 -2 22 -1t25 1q29 0 45 -7.5t12 -41.5q0 -6 -4 -23l-6 -25q-10 -43 -21.5 -94t-15.5 -80q-4 -39 6 -43q18 12 46 51t54 85v-3q14 45 41 95.5t61 90.5t73.5 66.5t82.5 26.5q57 0 87 -49 t28 -105q-2 -8 -4 -17t-8 -24h-15q20 -12 25 -36q2 -16 -1 -32t-7 -32q-4 -12 -4 -22q-2 -6 -4 -20.5t-3 -30t1 -23.5t8 -2v-2q12 12 27.5 34.5t32 49t31.5 54.5t28 50l6 14v-2l6 23l-2 -2q0 4 1 3t1 3q18 70 22 105h-2q0 4 -1 9t-1 9v10q-2 4 -2 10q0 14 10.5 19.5 t20.5 5.5q49 0 63.5 -29.5t12.5 -62.5q-4 -33 -8 -49v-4l8 16q35 51 73.5 98t88.5 47q39 0 51 -23.5t8 -58.5t-15.5 -78.5t-27.5 -84.5q0 -4 -2 -7.5t-2 -7.5q-10 -35 -20.5 -68.5t-14.5 -54.5q-2 -10 0 -24t8 -14q8 0 25.5 22.5t37 54t39 65.5t33.5 56l13 23v-2 q29 82 80 141t116 59q27 0 49.5 -13t37 -34.5t21.5 -48.5t5 -53q0 -12 -4 -28.5t-25 -16.5q-8 0 -18 10l6 35q2 23 -4 43t-19 20q-16 0 -38.5 -25.5t-44 -65.5t-39 -87t-23.5 -90v-18q0 -27 8 -46.5t33 -19.5q23 0 43 13.5t37.5 33t32 43t26.5 41.5q12 20 23.5 42t21.5 40 l6 12l7 13v-2q4 20 10 38.5t10 38.5l6 19l10 29l-2 -3v15q0 4 1 4t1 4q8 23 37 18q53 -23 54 -53q0 -10 -1 -15t-4 -16q0 -8 -4 -16v2q-6 -18 -13 -46t-15 -58.5t-14.5 -60t-8.5 -54.5q0 -4 -1 -7t-1 -7v-11q0 -39 14 -38q8 0 22.5 16t32 41.5t34 56.5t32.5 60v-2l29 69 q-20 29 -33.5 67t-13.5 72q0 31 11 58.5t38 50.5v-2q12 12 28.5 18.5t32.5 6.5q20 0 39 -11.5t19 -40.5q0 -18 -7.5 -40.5t-17.5 -45.5q-4 -8 -4 -12l-18 -51q41 -63 74.5 -129t39.5 -109q27 41 46.5 81t35.5 69q0 2 2 5t2 5q8 20 25 20q16 0 20 -18l-4 -14 q-14 -27 -33.5 -66t-43 -79t-50 -74.5t-51.5 -53.5q-29 -20 -69.5 -31.5t-77.5 -11.5q-41 0 -71 16.5t-26 51.5v2q-18 -18 -36.5 -29.5t-34.5 -11.5q-47 0 -64.5 34t-17.5 81q0 4 1 8t1 8v14q-16 -29 -35.5 -57.5t-45.5 -51t-58.5 -37.5t-73.5 -15q-68 0 -95.5 49t-27.5 114 v5l-2 -3q-35 -59 -72 -103t-77 -44q-47 0 -64.5 24.5t-17.5 65.5v2q10 57 27.5 118.5t35.5 109.5v2q12 31 22.5 57.5t10.5 32.5h-2v4q-14 0 -33.5 -22.5t-41 -53.5t-42 -64.5t-35.5 -56.5l-8 -12l-8 -17v3q-12 -27 -18.5 -58t-10.5 -57v-21q0 -10 2 -20t4 -19q0 -2 1 -4 t1 -6q0 -16 -18 -16q-49 0 -66.5 34.5t-17.5 73.5v13q0 2 1 5t1 7l4 12q-23 -35 -46.5 -67.5t-41.5 -49.5q-12 -10 -30.5 -17t-37.5 -7q-20 0 -32.5 12t-19.5 29.5t-9 38t-2 37.5q-35 -47 -77 -83t-89 -36t-67.5 24.5t-24.5 63.5q-29 -43 -51 -62q-12 -10 -30.5 -17 t-37.5 -7q-35 0 -49 35t-14 82v4q2 18 6 45.5t10 56.5t13.5 55.5t13.5 45.5q-8 0 -13.5 1t-13.5 1l-10 -27v2l-31 -61l-41 10l43 82q-41 8 -59.5 39.5t-14.5 66.5zM2279 487q-4 -12 9 -20q6 14 16 44t12 48h-2v2q-10 -8 -21.5 -32t-13.5 -42zM2292 1540l2 2h-2v-2z M2370 1575q25 -8 46 -13.5t44 -11.5q23 104 42 192.5t31 155.5q-35 -76 -75.5 -158.5t-87.5 -164.5zM2589 201q-2 -14 2 -29.5t20 -15.5q18 0 38 17t38 44t34.5 54.5t26.5 50.5q0 8 7 14q0 4 1 7t1 13l2 -2q-2 25 4 25q33 -4 49 -8q4 12 4 20q0 2 1 4t1 4q2 29 -10 58.5 t-41 29.5q-31 0 -61.5 -34.5t-56.5 -81.5t-42 -95.5t-18 -74.5zM3371 233q2 1 2 3v-5q-2 -4 -2 2zM3391 1395q-2 -16 2.5 -31.5t20.5 -15.5q18 0 36.5 18t37 44t35 54.5t28.5 48.5q0 8 6 15q2 4 4.5 10t-2.5 21q1 14 9 14q33 -4 49 -8l8 30q-2 29 -14.5 57.5t-38.5 28.5 q-31 0 -62.5 -34.5t-57.5 -81.5t-42 -95.5t-19 -74.5zM3807 586q4 29 18.5 57.5t32.5 28.5q21 0 39 -25q6 -10 8.5 -21.5t2.5 -21.5q-4 -25 -20.5 -38t-35.5 -13q-18 0 -31.5 8t-13.5 25zM3817 1681q-4 -16 13 -18q6 16 15 43t11 49q0 4 4 4q-8 0 -24.5 -27.5t-18.5 -50.5z M3850 1110q6 -29 23.5 -54.5t50.5 -21.5h-2q49 8 73.5 40t24.5 67q0 16 -8 29.5t-25 13.5q-8 0 -12 -2q-20 -6 -36.5 -27.5t-16.5 -50.5q0 -18 6 -33q14 -14 -8 -24q-21 -8 -25 12q-4 10 -14 23.5t-31 27.5zM3885 156q2 2 8 2q10 0 12.5 -9.5t2.5 -19.5q-2 -16 13 -19.5 t32 -3.5v-2q47 2 66.5 30t23.5 75q-2 29 -13.5 65.5t-31.5 71.5q-23 -43 -52.5 -96t-60.5 -94zM3967 1393v8q8 72 24.5 136.5t34.5 119.5l9 29l-2 -3q0 2 1 5.5t1 9.5v8q8 23 36 18q51 -23 52 -53q0 -10 -1 -15t-3 -16q0 -8 -5 -16v2q-6 -18 -13 -46t-14 -58.5t-13.5 -60 t-8.5 -54.5v-27q0 -39 13 -39q10 0 25.5 18.5t32.5 47.5t35.5 60.5t33.5 60.5v-2l8 16q0 -2 2 -2h2q12 61 32.5 135t50 136.5t66.5 105.5t82 43q16 0 27.5 -10.5t17.5 -25.5t8.5 -31.5t2.5 -30.5q-4 -41 -21.5 -82t-44.5 -81t-58.5 -77t-62.5 -66q-2 -6 -10 -46t-12 -87 q-2 -10 -2 -24q0 -27 7 -44.5t23 -17.5q23 0 46.5 21.5t45 52.5t40 65.5t32.5 63.5q0 -2 1 -3t1 1q12 66 32.5 150t51.5 157.5t71 124.5t89 51q16 0 27.5 -11t18.5 -28.5t10 -36t3 -32.5q-4 -41 -23.5 -86t-47 -89t-59 -84t-62.5 -71q-2 -8 -11.5 -52t-13.5 -91 q-2 -10 -2 -18.5v-12.5q0 -29 6 -48.5t27 -19.5q23 0 44 19.5t40.5 49.5t38 65.5t35.5 68.5q4 20 7 39t11 35q25 31 66 31q16 0 32 -9q4 33 12.5 65t24 56.5t40 40t61.5 15.5q63 0 89.5 -48.5t26.5 -117.5v-35q-4 -43 -18 -92t-33 -88q35 16 59.5 52t47.5 75l14 26l8 4t8 2 t9.5 -3t9.5 -17q-10 -25 -27.5 -56.5t-41 -60t-52.5 -49t-64 -25.5q-33 -47 -75.5 -77.5t-89.5 -30.5q-33 0 -55.5 14.5t-38 39t-23.5 54t-10 60.5q-18 -33 -38 -63.5t-41.5 -55.5t-45 -39t-47.5 -14q-33 0 -54.5 13t-35 35.5t-18.5 51.5t-5 58q-35 -66 -77 -112t-93 -46 q-31 0 -51.5 13t-32.5 34.5t-17.5 48.5t-5.5 53v9q-35 -59 -74.5 -106.5t-74.5 -47.5q-47 0 -65.5 33.5t-18.5 83.5zM4011 507q-1 -3 3 -9q10 27 22.5 58.5t8.5 41.5v-2q-2 4 -6 6q-10 -6 -18.5 -32.5t-8.5 -53.5q0 -6 -1 -9zM4071 1804q2 23 14.5 43.5t33.5 20.5 q18 0 36 -25q8 -12 10.5 -23.5t2.5 -21.5q-2 -25 -20.5 -38t-37.5 -13q-16 0 -28.5 14.5t-10.5 42.5zM4340 1634q14 14 34.5 39t39 54.5t31.5 63.5t18 67q4 12 1.5 25t-8.5 13q-18 0 -51 -71.5t-65 -190.5zM4520 6q0 12 5 31.5t13.5 38t19.5 32t27 13.5t11 -25l-8 -12h2 q-6 -10 -7 -21q0 -6 7 -26q18 -66 74.5 -97.5t127.5 -31.5q35 0 70 6t63 16q20 10 48 24.5t51.5 33t40 39t16.5 41.5q0 14 -4 22q-8 16 -29.5 29.5t-44.5 21.5q-25 6 -55.5 12.5t-58.5 10.5q-4 0 -9.5 1t-7.5 1q-49 8 -98 19.5t-92 31t-76 49t-49 76.5q-6 20 -10.5 42 t-4.5 38q0 63 37 166q20 55 54 105t77 91t91.5 70t97.5 39q41 10 59 10q55 0 105.5 -24.5t91.5 -65.5t69.5 -93t38.5 -110q25 0 41.5 1t30.5 3q6 0 0 1t0 1q8 33 13 62t8 39q2 8 -0.5 17t-4.5 20q0 2 -1 -4.5t-1 -1.5q4 23 12.5 27.5t18.5 4.5q51 0 65.5 -29.5t10.5 -64.5 q-2 -16 -4 -32.5t-6 -32.5q51 2 90 -11.5t67 -54.5q10 0 22.5 -4t20.5 -8q16 -14 23.5 -37t3.5 -47q-2 -29 -8 -55.5t-13 -45.5q-12 -35 -28.5 -91t-20.5 -91q0 -25 2 -24q10 0 31 23.5t42.5 57t43 67.5t35.5 56q10 37 19.5 67t13.5 62h-2q0 2 -1 4.5t-1 4.5v14q2 35 43 35 q33 0 44 -23.5t9 -52.5q-4 -33 -14.5 -72t-20.5 -76q-4 -8 -4 -10l-4 -12q-10 -35 -17.5 -63.5t-9.5 -45.5q-2 -10 -1 -24t9 -14t22.5 17t32 43t35 55.5t33.5 56.5v-3q16 43 42 84t57.5 75t67.5 54.5t75 20.5q16 0 28.5 -2t24.5 -12l4 12q12 59 21.5 103t11.5 61q2 10 0 17 t-4 13l-2 -2v7q6 31 33 30q51 0 65.5 -29.5t9.5 -64.5q-2 -29 -17 -95.5t-32 -133.5q-2 -12 -5 -25.5t-5 -25.5q0 -4 -2 -8.5t-2 -8.5q-14 -49 -27.5 -110.5t-13.5 -98.5v-20q2 -16 16 -17q14 0 32 11.5t28 23.5q27 31 51.5 77t42.5 81l6 12v-2l10 21q6 23 13.5 48t17.5 48 l8 29l-2 -3q0 2 1 5.5t1 9.5v8q8 23 37 18q51 -23 51 -53q0 -10 -1 -15t-3 -13q0 -10 -4 -19v2q-6 -18 -13 -46t-14.5 -58.5t-13.5 -60t-8 -54.5q0 -4 -1 -7t-1 -7v-11q0 -39 12 -38q10 0 27.5 20t36 49t37 62.5t34.5 62.5q2 23 6.5 42.5t10.5 37.5q25 31 65 31q16 0 33 -9 q4 33 12.5 65t23.5 56.5t39.5 40t61.5 15.5q61 0 89 -48.5t28 -117.5v-19.5t-2 -17.5q-4 -43 -18.5 -90t-32.5 -88q35 16 60.5 53t47.5 74l15 26q4 2 7 4t7 2q10 0 16 -20q-10 -23 -25.5 -53.5t-38 -59t-52 -50t-64.5 -25.5q-33 -47 -76 -78t-90 -31q-33 0 -55.5 14.5 t-37.5 38t-23.5 53t-10.5 60.5q-35 -63 -77.5 -114.5t-77.5 -51.5q-47 0 -65.5 34t-18.5 81v22q-10 -18 -21.5 -35.5t-21.5 -33.5q-23 -29 -49.5 -50.5t-67.5 -25.5q-57 0 -80.5 28.5t-23.5 81.5v17q-35 -49 -77 -87t-91 -38t-70 29.5t-23 70.5q-29 -41 -57.5 -66.5 t-56.5 -25.5q-47 0 -65.5 23.5t-18.5 62.5v21q-29 -45 -62.5 -79t-81.5 -34q-35 0 -49 22.5t-14 61.5v12q0 4 1 6t1 6v9.5t4 17.5q-35 -55 -73 -97t-83 -42q-59 0 -82.5 28.5t-23.5 79.5v11q2 27 10 65.5t17.5 83.5t20.5 93t22 91l6 25q-12 -2 -25.5 -2h-25.5q0 -20 -3 -31 q-6 -43 -28.5 -78.5t-54 -63.5t-67.5 -43.5t-71 -15.5t-68.5 25t-47.5 66q-4 10 -4.5 20t8.5 16q14 10 19 2t15 -20q10 -29 29 -42t39 -13q37 0 69.5 46t32.5 118h2q-2 51 -22.5 103t-52 94t-72.5 68.5t-86 26.5q-49 0 -85 -22.5t-59.5 -60t-34.5 -86t-14 -99.5v-31 q0 -70 21 -118q27 -59 83 -91t112 -53v2q2 0 2 -2t4 -2l24 -10q8 -4 20.5 -10t23 -10.5t15.5 -6.5t1 2q39 -16 67.5 -45.5t42.5 -74.5q10 -35 10 -62q0 -41 -15 -80t-41.5 -71.5t-61.5 -59t-74 -45.5q-55 -25 -129 -24q-57 0 -112.5 18t-98.5 50t-67.5 75t-20.5 94z M4622 1671q14 14 34 40t38 57.5t33.5 66.5t21.5 68q0 12 -2 31.5t-6 19.5q-18 0 -51 -77t-68 -206zM4887 1470q0 -43 9 -75.5t38 -32.5q35 0 61 27q-47 18 -72.5 49.5t-35.5 72.5v-41zM4958 1595q0 -49 13.5 -98t58.5 -61q23 37 38 85t19 97v29q0 47 -17.5 82.5t-53.5 35.5 q-27 0 -39.5 -35.5t-16.5 -80.5v-23q0 -8 -1 -15.5t-1 -15.5zM5356 184q0 -29 10 -43q10 0 37 17q18 14 35.5 37.5t34 49t29.5 52.5t24 49v-2l6 16q4 8 8 15.5t8 13.5q10 33 16.5 61.5t10.5 47.5l-2 -2q0 16 -2 22q-4 8 -5 12q-25 20 -56.5 26.5t-65.5 6.5h-11l-26 -106 l-13 -47q0 -2 -1 -4.5t-1 -4.5q-4 -16 -10 -42.5t-12 -57.5t-10 -61.5t-4 -55.5zM6023 199q-2 -14 2.5 -30.5t20.5 -16.5q18 0 38.5 20.5t40 48t37 57t27.5 50.5v2l31 129l-2 -2q0 2 1 4t1 4l4 12q-12 6 -21 6q-31 0 -62.5 -34.5t-57 -82t-42 -94.5t-18.5 -73zM6531 600 q4 25 17.5 48.5t31.5 23.5q21 0 39 -25q8 -10 10 -21.5t2 -21.5q-2 -25 -20 -38t-37 -13q-18 0 -30.5 11t-12.5 36zM6793 276q0 -43 10 -74.5t39 -31.5q35 0 62 27q-47 16 -72.5 47.5t-36.5 74.5v-4q0 -6 -1 -11t-1 -9v-19zM6867 401q0 -25 3 -50t10 -47.5t21.5 -39 t37.5 -22.5q23 39 37 86t18 96v29q0 47 -16.5 82.5t-53.5 35.5q-27 0 -39 -35.5t-16 -80.5v-23q0 -8 -1 -15.5t-1 -15.5z" />
<glyph unicode="&#xb4;" horiz-adv-x="608" d="M8 1743q-10 14 6.5 10t40.5 6q68 31 121 94.5t94 137t72 146.5t51 120q25 20 64 16t71.5 -27.5t50 -64.5t-0.5 -94q-18 -49 -62.5 -119t-103 -134.5t-126 -111.5t-130.5 -53q-41 -4 -79 12.5t-69 61.5z" />
<glyph unicode="&#xb5;" horiz-adv-x="7135" d="M29 186q2 47 18 128t37 167l18 80q12 55 21.5 96t11.5 58q2 10 0 19t-4 16v8q0 12 9.5 17t19.5 5q53 0 67.5 -29.5t10.5 -64.5q-4 -47 -20.5 -111.5t-33.5 -130.5q31 37 67 64t75 27q51 0 70.5 -32t19.5 -77v-20q-4 -43 -25.5 -98.5t-54.5 -108.5q74 63 131 147l8 29 q10 37 18.5 70.5t10.5 54.5q2 6 0 13t-4 13v4q0 14 9 19.5t19 5.5q12 0 26.5 -4t18.5 -8q20 -14 27.5 -37t5.5 -47q-6 -49 -20 -88q-4 -8 -4 -13q-12 -35 -27.5 -91t-19.5 -91q0 -25 2 -24q8 0 24.5 18t34.5 45t36.5 58.5t35.5 56.5l10 14l2 2h2h2q8 47 12 79t4 42 q4 16 2 27.5t-4 19.5v4q0 14 9.5 18.5t21.5 4.5q45 0 63.5 -19.5t22.5 -46.5q-4 -31 -6 -59.5t-6 -59t-10.5 -66.5t-14.5 -81q29 33 57.5 84t51.5 92l10 10h2l4 2q4 0 11.5 -1t19.5 -11q-16 -33 -36.5 -69.5t-43.5 -71.5t-46.5 -63.5t-43.5 -45.5q-20 -100 -48 -197.5 t-65 -174t-85 -120.5t-107 -36q-39 4 -60.5 34.5t-21.5 75.5q0 4 1 16.5t5 28.5q29 106 100.5 191.5t153.5 155.5l22 116q-37 -57 -77.5 -101t-85.5 -44q-35 0 -50.5 22.5t-15.5 61.5v10t4 16q2 10 4 21.5t2 28.5q-37 -43 -84 -83t-102 -65h2q-23 -12 -54.5 -21.5 t-64.5 -9.5q-23 0 -31 2q-35 10 -58 42t-19 81zM121 164q0 -31 12 -31q6 0 14 4q29 14 55.5 50t48 78t35 83t15.5 64q2 16 -2 32.5t-20 16.5q-14 0 -32 -15.5t-35 -38t-32.5 -48t-27.5 -48.5q-4 -8 -5 -12q-8 -29 -17 -67.5t-9 -67.5zM422 -281q0 -29 24 -28v-2q27 2 48 35 q37 47 64.5 124.5t47.5 143.5l12 41l3 4q-80 -63 -136 -154q-6 -10 -17 -30.5t-21.5 -44t-17.5 -47.5t-7 -42zM942 258q2 23 14.5 43.5t30.5 20.5q19 0 37 -25q12 -23 10 -47q-4 -23 -20.5 -34t-34.5 -11q-14 0 -27.5 12t-9.5 41zM963 422q2 23 13 43t32 20q18 1 36 -24 q12 -23 11 -47q-4 -20 -20.5 -32.5t-35.5 -12.5q-16 0 -28.5 12t-7.5 41zM1335 49q2 88 47 167t123 110q31 8 49 8q59 0 84 -46t25 -108q0 -27 -1 -43t-3 -28q-10 -18 -21.5 -17.5t-15.5 4.5q-2 0 -2 4q-2 2 -2 13v47q0 35 -7 64.5t-36 31.5q-23 2 -44.5 -16.5t-39.5 -49 t-32.5 -69.5t-20.5 -78v2q-2 -16 -2 -26.5v-16.5q0 -37 9 -70.5t26.5 -59.5t40 -42t49.5 -18q51 8 92 46t70.5 92t50 116.5t30.5 121.5q4 23 8.5 45.5t6.5 45.5q-27 -16 -47.5 -37t-30.5 -49q-6 -8 -17.5 -7.5t-11.5 7.5q8 63 39 106t72 63v66q0 2 1 4t1 4v29q0 4 1 8t1 8 q0 18 2 37t4 49q-20 -10 -51 -16t-60 -6q-23 0 -43 12t-26 39q0 4 -1 3t-1 3v8q0 25 13 47.5t35.5 41t49.5 30.5t55 16q-12 0 -8 3h21q61 0 108 -41q59 16 127 30.5t133 28.5q43 8 96.5 20.5t106.5 26.5t103.5 27.5t91.5 25.5q16 6 38.5 15.5t26.5 19.5l-2 -2v10q0 4 2 9.5 t16 9.5q6 0 17 -13q8 -14 1 -28.5t-19.5 -27.5t-26 -23.5t-21.5 -14.5q-51 -31 -116.5 -55.5t-134 -46t-137 -38.5t-126.5 -30l-30 -8l-23 -6l-80 -19v-6q0 -6 1 -16t1 -27q0 -23 -1 -58.5t-5 -107.5h6l-2 -2q55 10 109.5 26.5t83.5 49.5q12 16 19 5t7 -23 q-4 -31 -22.5 -52.5t-46 -36t-60.5 -23.5t-67 -15l-17 -4q-4 -2 -16 -2v-15q-6 -63 -17.5 -131.5t-33 -135.5t-57 -125t-87.5 -101q-35 -25 -82 -41.5t-94 -16.5h-26q-109 16 -167.5 96.5t-58.5 192.5zM1653 1395q0 49 16.5 100t47 92t74.5 67.5t99 26.5q57 0 92 -33.5 t35 -84.5q0 -14 -4 -35q51 33 116.5 53.5t119.5 20.5q16 0 34.5 -2.5t34.5 -6.5q76 119 134.5 249t93.5 257q4 12 14 17q10 10 29 10q57 0 75.5 -34t18.5 -81v-31q-8 -72 -27.5 -164t-42.5 -192q-4 -23 -10 -42t-10 -42q63 2 127 64q6 25 10 45t6 37q2 8 0 15t-4 15l-2 -2v4 q6 31 33 31q51 0 65.5 -29.5t10.5 -62.5t-9 -49v-2l9 12q16 27 33.5 52.5t38 47t43 34.5t48.5 13q37 0 50.5 -25.5t11.5 -56.5l-4 -24t-6 -27q31 47 68.5 88t84.5 41q35 0 48.5 -24.5t11.5 -59.5q-4 -35 -16.5 -79t-28.5 -85q-14 -39 -25.5 -75.5t-13.5 -63.5 q-2 -10 0 -24.5t8 -14.5t18.5 13.5t26.5 35t29.5 48t29.5 51.5v-2q16 45 43 93t60.5 87t72.5 63.5t82 24.5q57 0 87 -49t28 -105q-2 -8 -4 -17t-8 -24h-15q20 -12 25 -38q2 -16 -3 -36t-9 -40q-2 -2 -2 -6q0 -2 -1 -3t-1 -6q-2 -10 -3.5 -23t-1.5 -25.5t1 -19.5t8 -3v-2 q25 27 57.5 80t54.5 100l21 41v-2q4 14 9 20t9 15q-45 6 -61.5 37.5t-12.5 70.5q4 45 36 85t79 40q55 0 51 -72q-4 -31 -12 -59.5t-14 -48.5q-2 -2 -2 -4v-2h51q2 0 4 1t6 1q8 0 18.5 -2t20.5 -6q20 -6 21 -37q0 -33 -16.5 -77t-31.5 -73q-2 -6 -5 -12t-5 -12l-6 -19 q-23 -61 -43 -125.5t-31 -122.5l4 -4v2q10 -10 14.5 -12t12.5 -12q4 31 24.5 54.5t45.5 33.5q14 6 25.5 8t21.5 2q47 0 73.5 -32.5t26.5 -75.5q0 -45 -38 -88.5t-116 -59.5q-10 -2 -20 -2h-20q-66 0 -113 43t-51 129q-86 23 -189 23q-43 0 -93 -4.5t-101 -12.5 q-68 -12 -136.5 -32.5t-128 -52.5t-106.5 -72.5t-74 -92.5q0 -2 -1 -3t-1 -3q-4 -10 -10 -22.5t-20 -12.5t-24.5 15.5t-14.5 34.5q-4 10 -6.5 22t-2.5 21q0 53 32 101t73 83q33 25 80 44t101 34.5t110.5 26t109.5 16.5q41 4 69 5t48 1q78 0 155.5 -12.5t141.5 -40.5 q20 111 48 192.5t56 142.5l15 43q-2 0 -5 1.5t-5 1.5h-19q-4 -6 -5 -14.5t-5 -12.5l-6 -14q-12 -27 -30.5 -64t-41 -75t-46.5 -71.5t-44 -52.5q-12 -10 -30.5 -16t-37.5 -6q-20 0 -33.5 11t-20.5 29.5t-9 40t-2 40.5q-33 -49 -74 -86t-92 -37q-47 0 -68.5 24.5t-25.5 65.5 q-27 -41 -54.5 -65.5t-58.5 -24.5q-47 0 -65.5 23.5t-18.5 62.5v4q8 59 27.5 120.5t38.5 108.5q12 33 22 59.5t10 35.5v4h-2q-12 -2 -29.5 -19.5t-36 -43t-36.5 -56.5t-35 -60l-43 -65v2q-10 -29 -16 -53.5t-8 -46.5q-4 -33 10 -68q0 -14 -21 -14q-47 0 -66.5 27.5 t-19.5 68.5v2q8 61 27.5 122.5t38.5 108.5q14 31 22.5 56.5t8.5 38.5v4q-14 0 -36 -25.5t-45.5 -59.5t-44 -70t-32.5 -56l-10 -15v3q-10 -25 -17.5 -58t-9.5 -59q-2 -20 0 -35.5t4 -24.5v2q2 -4 2 -14q0 -12 -20 -12q-49 0 -65.5 33.5t-16.5 72.5v4q4 45 10 84t14 68 q-29 -18 -57.5 -26.5t-63.5 -12.5q-8 -41 -10 -89t-2 -95q0 -55 7.5 -107.5t23.5 -93.5t44 -65.5t71 -24.5q41 0 86 20q25 -10 24 -20q0 -12 -10 -27q-78 -33 -141 -32q-66 0 -110 32.5t-71.5 86t-40 123t-12.5 143.5q0 35 2 74.5t8 80.5q-27 6 -53 12.5t-55 16.5 q-53 -84 -114.5 -158t-127.5 -131q-43 -37 -92 -66.5t-115 -29.5q-47 0 -90 17.5t-75.5 50t-53 78.5t-20.5 104zM1718 635q4 0 23.5 4t36.5 8l6 4l14 4l-2 -2q25 6 27 4v5q-2 18 -11.5 26t-19.5 8q-23 0 -45.5 -18.5t-28.5 -42.5zM1776 1339.5q4 -36.5 19 -69.5t43 -54.5 t67 -21.5q20 0 37.5 5t37.5 13h-2q68 37 151 125t159 205q-35 8 -70 8q-72 0 -134.5 -34.5t-117.5 -94.5q-4 -4 -10 -6t-10 -2q-10 0 -19.5 7t-5.5 20q23 25 38 58.5t11 66.5q-8 23 -23.5 33t-27.5 12q-23 0 -44.5 -17.5t-42 -46t-34.5 -65.5t-20 -74q-6 -31 -2 -67.5z M2193 520q6 43 36 83t77 40q59 0 53 -70q-4 -29 -13 -58.5t-17 -49.5q0 -6 -2 -8q10 -2 22 -1t25 1q29 0 45 -7.5t12 -41.5q0 -6 -4 -23l-6 -25q-10 -43 -21.5 -94t-15.5 -80q-4 -39 6 -43q18 12 46 51t54 85v-3q14 45 41 95.5t61 90.5t73.5 66.5t82.5 26.5q57 0 87 -49 t28 -105q-2 -8 -4 -17t-8 -24h-15q20 -12 25 -36q2 -16 -1 -32t-7 -32q-4 -12 -4 -22q-2 -6 -4 -20.5t-3 -30t1 -23.5t8 -2v-2q12 12 27.5 34.5t32 49t31.5 54.5t28 50l6 14v-2l6 23l-2 -2q0 4 1 3t1 3q18 70 22 105h-2q0 4 -1 9t-1 9v10q-2 4 -2 10q0 14 10.5 19.5 t20.5 5.5q49 0 63.5 -29.5t12.5 -62.5q-4 -33 -8 -49v-4l8 16q35 51 73.5 98t88.5 47q39 0 51 -23.5t8 -58.5t-15.5 -78.5t-27.5 -84.5q0 -4 -2 -7.5t-2 -7.5q-10 -35 -20.5 -68.5t-14.5 -54.5q-2 -10 0 -24t8 -14q8 0 25.5 22.5t37 54t39 65.5t33.5 56l13 23v-2 q29 82 80 141t116 59q27 0 49.5 -13t37 -34.5t21.5 -48.5t5 -53q0 -12 -4 -28.5t-25 -16.5q-8 0 -18 10l6 35q2 23 -4 43t-19 20q-16 0 -38.5 -25.5t-44 -65.5t-39 -87t-23.5 -90v-18q0 -27 8 -46.5t33 -19.5q23 0 43 13.5t37.5 33t32 43t26.5 41.5q12 20 23.5 42t21.5 40 l6 12l7 13v-2q4 20 10 38.5t10 38.5l6 19l10 29l-2 -3v15q0 4 1 4t1 4q8 23 37 18q53 -23 54 -53q0 -10 -1 -15t-4 -16q0 -8 -4 -16v2q-6 -18 -13 -46t-15 -58.5t-14.5 -60t-8.5 -54.5q0 -4 -1 -7t-1 -7v-11q0 -39 14 -38q8 0 22.5 16t32 41.5t34 56.5t32.5 60v-2l29 69 q-20 29 -33.5 67t-13.5 72q0 31 11 58.5t38 50.5v-2q12 12 28.5 18.5t32.5 6.5q20 0 39 -11.5t19 -40.5q0 -18 -7.5 -40.5t-17.5 -45.5q-4 -8 -4 -12l-18 -51q41 -63 74.5 -129t39.5 -109q27 41 46.5 81t35.5 69q0 2 2 5t2 5q8 20 25 20q16 0 20 -18l-4 -14 q-14 -27 -33.5 -66t-43 -79t-50 -74.5t-51.5 -53.5q-29 -20 -69.5 -31.5t-77.5 -11.5q-41 0 -71 16.5t-26 51.5v2q-18 -18 -36.5 -29.5t-34.5 -11.5q-47 0 -64.5 34t-17.5 81q0 4 1 8t1 8v14q-16 -29 -35.5 -57.5t-45.5 -51t-58.5 -37.5t-73.5 -15q-68 0 -95.5 49t-27.5 114 v5l-2 -3q-35 -59 -72 -103t-77 -44q-47 0 -64.5 24.5t-17.5 65.5v2q10 57 27.5 118.5t35.5 109.5v2q12 31 22.5 57.5t10.5 32.5h-2v4q-14 0 -33.5 -22.5t-41 -53.5t-42 -64.5t-35.5 -56.5l-8 -12l-8 -17v3q-12 -27 -18.5 -58t-10.5 -57v-21q0 -10 2 -20t4 -19q0 -2 1 -4 t1 -6q0 -16 -18 -16q-49 0 -66.5 34.5t-17.5 73.5v13q0 2 1 5t1 7l4 12q-23 -35 -46.5 -67.5t-41.5 -49.5q-12 -10 -30.5 -17t-37.5 -7q-20 0 -32.5 12t-19.5 29.5t-9 38t-2 37.5q-35 -47 -77 -83t-89 -36t-67.5 24.5t-24.5 63.5q-29 -43 -51 -62q-12 -10 -30.5 -17 t-37.5 -7q-35 0 -49 35t-14 82v4q2 18 6 45.5t10 56.5t13.5 55.5t13.5 45.5q-8 0 -13.5 1t-13.5 1l-10 -27v2l-31 -61l-41 10l43 82q-41 8 -59.5 39.5t-14.5 66.5zM2279 487q-4 -12 9 -20q6 14 16 44t12 48h-2v2q-10 -8 -21.5 -32t-13.5 -42zM2292 1540l2 2h-2v-2z M2370 1575q25 -8 46 -13.5t44 -11.5q23 104 42 192.5t31 155.5q-35 -76 -75.5 -158.5t-87.5 -164.5zM2589 201q-2 -14 2 -29.5t20 -15.5q18 0 38 17t38 44t34.5 54.5t26.5 50.5q0 8 7 14q0 4 1 7t1 13l2 -2q-2 25 4 25q33 -4 49 -8q4 12 4 20q0 2 1 4t1 4q2 29 -10 58.5 t-41 29.5q-31 0 -61.5 -34.5t-56.5 -81.5t-42 -95.5t-18 -74.5zM3371 233q2 1 2 3v-5q-2 -4 -2 2zM3391 1395q-2 -16 2.5 -31.5t20.5 -15.5q18 0 36.5 18t37 44t35 54.5t28.5 48.5q0 8 6 15q2 4 4.5 10t-2.5 21q1 14 9 14q33 -4 49 -8l8 30q-2 29 -14.5 57.5t-38.5 28.5 q-31 0 -62.5 -34.5t-57.5 -81.5t-42 -95.5t-19 -74.5zM3807 586q4 29 18.5 57.5t32.5 28.5q21 0 39 -25q6 -10 8.5 -21.5t2.5 -21.5q-4 -25 -20.5 -38t-35.5 -13q-18 0 -31.5 8t-13.5 25zM3817 1681q-4 -16 13 -18q6 16 15 43t11 49q0 4 4 4q-8 0 -24.5 -27.5t-18.5 -50.5z M3850 1110q6 -29 23.5 -54.5t50.5 -21.5h-2q49 8 73.5 40t24.5 67q0 16 -8 29.5t-25 13.5q-8 0 -12 -2q-20 -6 -36.5 -27.5t-16.5 -50.5q0 -18 6 -33q14 -14 -8 -24q-21 -8 -25 12q-4 10 -14 23.5t-31 27.5zM3885 156q2 2 8 2q10 0 12.5 -9.5t2.5 -19.5q-2 -16 13 -19.5 t32 -3.5v-2q47 2 66.5 30t23.5 75q-2 29 -13.5 65.5t-31.5 71.5q-23 -43 -52.5 -96t-60.5 -94zM3967 1393v8q8 72 24.5 136.5t34.5 119.5l9 29l-2 -3q0 2 1 5.5t1 9.5v8q8 23 36 18q51 -23 52 -53q0 -10 -1 -15t-3 -16q0 -8 -5 -16v2q-6 -18 -13 -46t-14 -58.5t-13.5 -60 t-8.5 -54.5v-27q0 -39 13 -39q10 0 25.5 18.5t32.5 47.5t35.5 60.5t33.5 60.5v-2l8 16q0 -2 2 -2h2q12 61 32.5 135t50 136.5t66.5 105.5t82 43q16 0 27.5 -10.5t17.5 -25.5t8.5 -31.5t2.5 -30.5q-4 -41 -21.5 -82t-44.5 -81t-58.5 -77t-62.5 -66q-2 -6 -10 -46t-12 -87 q-2 -10 -2 -24q0 -27 7 -44.5t23 -17.5q23 0 46.5 21.5t45 52.5t40 65.5t32.5 63.5q0 -2 1 -3t1 1q12 66 32.5 150t51.5 157.5t71 124.5t89 51q16 0 27.5 -11t18.5 -28.5t10 -36t3 -32.5q-4 -41 -23.5 -86t-47 -89t-59 -84t-62.5 -71q-2 -8 -11.5 -52t-13.5 -91 q-2 -10 -2 -18.5v-12.5q0 -29 6 -48.5t27 -19.5q23 0 44 19.5t40.5 49.5t38 65.5t35.5 68.5q4 20 7 39t11 35q25 31 66 31q16 0 32 -9q4 33 12.5 65t24 56.5t40 40t61.5 15.5q63 0 89.5 -48.5t26.5 -117.5v-35q-4 -43 -18 -92t-33 -88q35 16 59.5 52t47.5 75l14 26l8 4t8 2 t9.5 -3t9.5 -17q-10 -25 -27.5 -56.5t-41 -60t-52.5 -49t-64 -25.5q-33 -47 -75.5 -77.5t-89.5 -30.5q-33 0 -55.5 14.5t-38 39t-23.5 54t-10 60.5q-18 -33 -38 -63.5t-41.5 -55.5t-45 -39t-47.5 -14q-33 0 -54.5 13t-35 35.5t-18.5 51.5t-5 58q-35 -66 -77 -112t-93 -46 q-31 0 -51.5 13t-32.5 34.5t-17.5 48.5t-5.5 53v9q-35 -59 -74.5 -106.5t-74.5 -47.5q-47 0 -65.5 33.5t-18.5 83.5zM4011 507q-1 -3 3 -9q10 27 22.5 58.5t8.5 41.5v-2q-2 4 -6 6q-10 -6 -18.5 -32.5t-8.5 -53.5q0 -6 -1 -9zM4071 1804q2 23 14.5 43.5t33.5 20.5 q18 0 36 -25q8 -12 10.5 -23.5t2.5 -21.5q-2 -25 -20.5 -38t-37.5 -13q-16 0 -28.5 14.5t-10.5 42.5zM4340 1634q14 14 34.5 39t39 54.5t31.5 63.5t18 67q4 12 1.5 25t-8.5 13q-18 0 -51 -71.5t-65 -190.5zM4520 6q0 12 5 31.5t13.5 38t19.5 32t27 13.5t11 -25l-8 -12h2 q-6 -10 -7 -21q0 -6 7 -26q18 -66 74.5 -97.5t127.5 -31.5q35 0 70 6t63 16q20 10 48 24.5t51.5 33t40 39t16.5 41.5q0 14 -4 22q-8 16 -29.5 29.5t-44.5 21.5q-25 6 -55.5 12.5t-58.5 10.5q-4 0 -9.5 1t-7.5 1q-49 8 -98 19.5t-92 31t-76 49t-49 76.5q-6 20 -10.5 42 t-4.5 38q0 63 37 166q20 55 54 105t77 91t91.5 70t97.5 39q41 10 59 10q55 0 105.5 -24.5t91.5 -65.5t69.5 -93t38.5 -110q25 0 41.5 1t30.5 3q6 0 0 1t0 1q8 33 13 62t8 39q2 8 -0.5 17t-4.5 20q0 2 -1 -4.5t-1 -1.5q4 23 12.5 27.5t18.5 4.5q51 0 65.5 -29.5t10.5 -64.5 q-2 -16 -4 -32.5t-6 -32.5q51 2 90 -11.5t67 -54.5q10 0 22.5 -4t20.5 -8q16 -14 23.5 -37t3.5 -47q-2 -29 -8 -55.5t-13 -45.5q-12 -35 -28.5 -91t-20.5 -91q0 -25 2 -24q10 0 31 23.5t42.5 57t43 67.5t35.5 56q10 37 19.5 67t13.5 62h-2q0 2 -1 4.5t-1 4.5v14q2 35 43 35 q33 0 44 -23.5t9 -52.5q-4 -33 -14.5 -72t-20.5 -76q-4 -8 -4 -10l-4 -12q-10 -35 -17.5 -63.5t-9.5 -45.5q-2 -10 -1 -24t9 -14t22.5 17t32 43t35 55.5t33.5 56.5v-3q16 43 42 84t57.5 75t67.5 54.5t75 20.5q16 0 28.5 -2t24.5 -12l4 12q12 59 21.5 103t11.5 61q2 10 0 17 t-4 13l-2 -2v7q6 31 33 30q51 0 65.5 -29.5t9.5 -64.5q-2 -29 -17 -95.5t-32 -133.5q-2 -12 -5 -25.5t-5 -25.5q0 -4 -2 -8.5t-2 -8.5q-14 -49 -27.5 -110.5t-13.5 -98.5v-20q2 -16 16 -17q14 0 32 11.5t28 23.5q27 31 51.5 77t42.5 81l6 12v-2l10 21q6 23 13.5 48t17.5 48 l8 29l-2 -3q0 2 1 5.5t1 9.5v8q8 23 37 18q51 -23 51 -53q0 -10 -1 -15t-3 -13q0 -10 -4 -19v2q-6 -18 -13 -46t-14.5 -58.5t-13.5 -60t-8 -54.5q0 -4 -1 -7t-1 -7v-11q0 -39 12 -38q10 0 27.5 20t36 49t37 62.5t34.5 62.5q2 23 6.5 42.5t10.5 37.5q25 31 65 31q16 0 33 -9 q4 33 12.5 65t23.5 56.5t39.5 40t61.5 15.5q61 0 89 -48.5t28 -117.5v-19.5t-2 -17.5q-4 -43 -18.5 -90t-32.5 -88q35 16 60.5 53t47.5 74l15 26q4 2 7 4t7 2q10 0 16 -20q-10 -23 -25.5 -53.5t-38 -59t-52 -50t-64.5 -25.5q-33 -47 -76 -78t-90 -31q-33 0 -55.5 14.5 t-37.5 38t-23.5 53t-10.5 60.5q-35 -63 -77.5 -114.5t-77.5 -51.5q-47 0 -65.5 34t-18.5 81v22q-10 -18 -21.5 -35.5t-21.5 -33.5q-23 -29 -49.5 -50.5t-67.5 -25.5q-57 0 -80.5 28.5t-23.5 81.5v17q-35 -49 -77 -87t-91 -38t-70 29.5t-23 70.5q-29 -41 -57.5 -66.5 t-56.5 -25.5q-47 0 -65.5 23.5t-18.5 62.5v21q-29 -45 -62.5 -79t-81.5 -34q-35 0 -49 22.5t-14 61.5v12q0 4 1 6t1 6v9.5t4 17.5q-35 -55 -73 -97t-83 -42q-59 0 -82.5 28.5t-23.5 79.5v11q2 27 10 65.5t17.5 83.5t20.5 93t22 91l6 25q-12 -2 -25.5 -2h-25.5q0 -20 -3 -31 q-6 -43 -28.5 -78.5t-54 -63.5t-67.5 -43.5t-71 -15.5t-68.5 25t-47.5 66q-4 10 -4.5 20t8.5 16q14 10 19 2t15 -20q10 -29 29 -42t39 -13q37 0 69.5 46t32.5 118h2q-2 51 -22.5 103t-52 94t-72.5 68.5t-86 26.5q-49 0 -85 -22.5t-59.5 -60t-34.5 -86t-14 -99.5v-31 q0 -70 21 -118q27 -59 83 -91t112 -53v2q2 0 2 -2t4 -2l24 -10q8 -4 20.5 -10t23 -10.5t15.5 -6.5t1 2q39 -16 67.5 -45.5t42.5 -74.5q10 -35 10 -62q0 -41 -15 -80t-41.5 -71.5t-61.5 -59t-74 -45.5q-55 -25 -129 -24q-57 0 -112.5 18t-98.5 50t-67.5 75t-20.5 94z M4622 1671q14 14 34 40t38 57.5t33.5 66.5t21.5 68q0 12 -2 31.5t-6 19.5q-18 0 -51 -77t-68 -206zM4887 1470q0 -43 9 -75.5t38 -32.5q35 0 61 27q-47 18 -72.5 49.5t-35.5 72.5v-41zM4958 1595q0 -49 13.5 -98t58.5 -61q23 37 38 85t19 97v29q0 47 -17.5 82.5t-53.5 35.5 q-27 0 -39.5 -35.5t-16.5 -80.5v-23q0 -8 -1 -15.5t-1 -15.5zM5356 184q0 -29 10 -43q10 0 37 17q18 14 35.5 37.5t34 49t29.5 52.5t24 49v-2l6 16q4 8 8 15.5t8 13.5q10 33 16.5 61.5t10.5 47.5l-2 -2q0 16 -2 22q-4 8 -5 12q-25 20 -56.5 26.5t-65.5 6.5h-11l-26 -106 l-13 -47q0 -2 -1 -4.5t-1 -4.5q-4 -16 -10 -42.5t-12 -57.5t-10 -61.5t-4 -55.5zM6023 199q-2 -14 2.5 -30.5t20.5 -16.5q18 0 38.5 20.5t40 48t37 57t27.5 50.5v2l31 129l-2 -2q0 2 1 4t1 4l4 12q-12 6 -21 6q-31 0 -62.5 -34.5t-57 -82t-42 -94.5t-18.5 -73zM6531 600 q4 25 17.5 48.5t31.5 23.5q21 0 39 -25q8 -10 10 -21.5t2 -21.5q-2 -25 -20 -38t-37 -13q-18 0 -30.5 11t-12.5 36zM6793 276q0 -43 10 -74.5t39 -31.5q35 0 62 27q-47 16 -72.5 47.5t-36.5 74.5v-4q0 -6 -1 -11t-1 -9v-19zM6867 401q0 -25 3 -50t10 -47.5t21.5 -39 t37.5 -22.5q23 39 37 86t18 96v29q0 47 -16.5 82.5t-53.5 35.5q-27 0 -39 -35.5t-16 -80.5v-23q0 -8 -1 -15.5t-1 -15.5z" />
<glyph unicode="&#xb6;" horiz-adv-x="7135" d="M29 186q2 47 18 128t37 167l18 80q12 55 21.5 96t11.5 58q2 10 0 19t-4 16v8q0 12 9.5 17t19.5 5q53 0 67.5 -29.5t10.5 -64.5q-4 -47 -20.5 -111.5t-33.5 -130.5q31 37 67 64t75 27q51 0 70.5 -32t19.5 -77v-20q-4 -43 -25.5 -98.5t-54.5 -108.5q74 63 131 147l8 29 q10 37 18.5 70.5t10.5 54.5q2 6 0 13t-4 13v4q0 14 9 19.5t19 5.5q12 0 26.5 -4t18.5 -8q20 -14 27.5 -37t5.5 -47q-6 -49 -20 -88q-4 -8 -4 -13q-12 -35 -27.5 -91t-19.5 -91q0 -25 2 -24q8 0 24.5 18t34.5 45t36.5 58.5t35.5 56.5l10 14l2 2h2h2q8 47 12 79t4 42 q4 16 2 27.5t-4 19.5v4q0 14 9.5 18.5t21.5 4.5q45 0 63.5 -19.5t22.5 -46.5q-4 -31 -6 -59.5t-6 -59t-10.5 -66.5t-14.5 -81q29 33 57.5 84t51.5 92l10 10h2l4 2q4 0 11.5 -1t19.5 -11q-16 -33 -36.5 -69.5t-43.5 -71.5t-46.5 -63.5t-43.5 -45.5q-20 -100 -48 -197.5 t-65 -174t-85 -120.5t-107 -36q-39 4 -60.5 34.5t-21.5 75.5q0 4 1 16.5t5 28.5q29 106 100.5 191.5t153.5 155.5l22 116q-37 -57 -77.5 -101t-85.5 -44q-35 0 -50.5 22.5t-15.5 61.5v10t4 16q2 10 4 21.5t2 28.5q-37 -43 -84 -83t-102 -65h2q-23 -12 -54.5 -21.5 t-64.5 -9.5q-23 0 -31 2q-35 10 -58 42t-19 81zM121 164q0 -31 12 -31q6 0 14 4q29 14 55.5 50t48 78t35 83t15.5 64q2 16 -2 32.5t-20 16.5q-14 0 -32 -15.5t-35 -38t-32.5 -48t-27.5 -48.5q-4 -8 -5 -12q-8 -29 -17 -67.5t-9 -67.5zM422 -281q0 -29 24 -28v-2q27 2 48 35 q37 47 64.5 124.5t47.5 143.5l12 41l3 4q-80 -63 -136 -154q-6 -10 -17 -30.5t-21.5 -44t-17.5 -47.5t-7 -42zM942 258q2 23 14.5 43.5t30.5 20.5q19 0 37 -25q12 -23 10 -47q-4 -23 -20.5 -34t-34.5 -11q-14 0 -27.5 12t-9.5 41zM963 422q2 23 13 43t32 20q18 1 36 -24 q12 -23 11 -47q-4 -20 -20.5 -32.5t-35.5 -12.5q-16 0 -28.5 12t-7.5 41zM1335 49q2 88 47 167t123 110q31 8 49 8q59 0 84 -46t25 -108q0 -27 -1 -43t-3 -28q-10 -18 -21.5 -17.5t-15.5 4.5q-2 0 -2 4q-2 2 -2 13v47q0 35 -7 64.5t-36 31.5q-23 2 -44.5 -16.5t-39.5 -49 t-32.5 -69.5t-20.5 -78v2q-2 -16 -2 -26.5v-16.5q0 -37 9 -70.5t26.5 -59.5t40 -42t49.5 -18q51 8 92 46t70.5 92t50 116.5t30.5 121.5q4 23 8.5 45.5t6.5 45.5q-27 -16 -47.5 -37t-30.5 -49q-6 -8 -17.5 -7.5t-11.5 7.5q8 63 39 106t72 63v66q0 2 1 4t1 4v29q0 4 1 8t1 8 q0 18 2 37t4 49q-20 -10 -51 -16t-60 -6q-23 0 -43 12t-26 39q0 4 -1 3t-1 3v8q0 25 13 47.5t35.5 41t49.5 30.5t55 16q-12 0 -8 3h21q61 0 108 -41q59 16 127 30.5t133 28.5q43 8 96.5 20.5t106.5 26.5t103.5 27.5t91.5 25.5q16 6 38.5 15.5t26.5 19.5l-2 -2v10q0 4 2 9.5 t16 9.5q6 0 17 -13q8 -14 1 -28.5t-19.5 -27.5t-26 -23.5t-21.5 -14.5q-51 -31 -116.5 -55.5t-134 -46t-137 -38.5t-126.5 -30l-30 -8l-23 -6l-80 -19v-6q0 -6 1 -16t1 -27q0 -23 -1 -58.5t-5 -107.5h6l-2 -2q55 10 109.5 26.5t83.5 49.5q12 16 19 5t7 -23 q-4 -31 -22.5 -52.5t-46 -36t-60.5 -23.5t-67 -15l-17 -4q-4 -2 -16 -2v-15q-6 -63 -17.5 -131.5t-33 -135.5t-57 -125t-87.5 -101q-35 -25 -82 -41.5t-94 -16.5h-26q-109 16 -167.5 96.5t-58.5 192.5zM1653 1395q0 49 16.5 100t47 92t74.5 67.5t99 26.5q57 0 92 -33.5 t35 -84.5q0 -14 -4 -35q51 33 116.5 53.5t119.5 20.5q16 0 34.5 -2.5t34.5 -6.5q76 119 134.5 249t93.5 257q4 12 14 17q10 10 29 10q57 0 75.5 -34t18.5 -81v-31q-8 -72 -27.5 -164t-42.5 -192q-4 -23 -10 -42t-10 -42q63 2 127 64q6 25 10 45t6 37q2 8 0 15t-4 15l-2 -2v4 q6 31 33 31q51 0 65.5 -29.5t10.5 -62.5t-9 -49v-2l9 12q16 27 33.5 52.5t38 47t43 34.5t48.5 13q37 0 50.5 -25.5t11.5 -56.5l-4 -24t-6 -27q31 47 68.5 88t84.5 41q35 0 48.5 -24.5t11.5 -59.5q-4 -35 -16.5 -79t-28.5 -85q-14 -39 -25.5 -75.5t-13.5 -63.5 q-2 -10 0 -24.5t8 -14.5t18.5 13.5t26.5 35t29.5 48t29.5 51.5v-2q16 45 43 93t60.5 87t72.5 63.5t82 24.5q57 0 87 -49t28 -105q-2 -8 -4 -17t-8 -24h-15q20 -12 25 -38q2 -16 -3 -36t-9 -40q-2 -2 -2 -6q0 -2 -1 -3t-1 -6q-2 -10 -3.5 -23t-1.5 -25.5t1 -19.5t8 -3v-2 q25 27 57.5 80t54.5 100l21 41v-2q4 14 9 20t9 15q-45 6 -61.5 37.5t-12.5 70.5q4 45 36 85t79 40q55 0 51 -72q-4 -31 -12 -59.5t-14 -48.5q-2 -2 -2 -4v-2h51q2 0 4 1t6 1q8 0 18.5 -2t20.5 -6q20 -6 21 -37q0 -33 -16.5 -77t-31.5 -73q-2 -6 -5 -12t-5 -12l-6 -19 q-23 -61 -43 -125.5t-31 -122.5l4 -4v2q10 -10 14.5 -12t12.5 -12q4 31 24.5 54.5t45.5 33.5q14 6 25.5 8t21.5 2q47 0 73.5 -32.5t26.5 -75.5q0 -45 -38 -88.5t-116 -59.5q-10 -2 -20 -2h-20q-66 0 -113 43t-51 129q-86 23 -189 23q-43 0 -93 -4.5t-101 -12.5 q-68 -12 -136.5 -32.5t-128 -52.5t-106.5 -72.5t-74 -92.5q0 -2 -1 -3t-1 -3q-4 -10 -10 -22.5t-20 -12.5t-24.5 15.5t-14.5 34.5q-4 10 -6.5 22t-2.5 21q0 53 32 101t73 83q33 25 80 44t101 34.5t110.5 26t109.5 16.5q41 4 69 5t48 1q78 0 155.5 -12.5t141.5 -40.5 q20 111 48 192.5t56 142.5l15 43q-2 0 -5 1.5t-5 1.5h-19q-4 -6 -5 -14.5t-5 -12.5l-6 -14q-12 -27 -30.5 -64t-41 -75t-46.5 -71.5t-44 -52.5q-12 -10 -30.5 -16t-37.5 -6q-20 0 -33.5 11t-20.5 29.5t-9 40t-2 40.5q-33 -49 -74 -86t-92 -37q-47 0 -68.5 24.5t-25.5 65.5 q-27 -41 -54.5 -65.5t-58.5 -24.5q-47 0 -65.5 23.5t-18.5 62.5v4q8 59 27.5 120.5t38.5 108.5q12 33 22 59.5t10 35.5v4h-2q-12 -2 -29.5 -19.5t-36 -43t-36.5 -56.5t-35 -60l-43 -65v2q-10 -29 -16 -53.5t-8 -46.5q-4 -33 10 -68q0 -14 -21 -14q-47 0 -66.5 27.5 t-19.5 68.5v2q8 61 27.5 122.5t38.5 108.5q14 31 22.5 56.5t8.5 38.5v4q-14 0 -36 -25.5t-45.5 -59.5t-44 -70t-32.5 -56l-10 -15v3q-10 -25 -17.5 -58t-9.5 -59q-2 -20 0 -35.5t4 -24.5v2q2 -4 2 -14q0 -12 -20 -12q-49 0 -65.5 33.5t-16.5 72.5v4q4 45 10 84t14 68 q-29 -18 -57.5 -26.5t-63.5 -12.5q-8 -41 -10 -89t-2 -95q0 -55 7.5 -107.5t23.5 -93.5t44 -65.5t71 -24.5q41 0 86 20q25 -10 24 -20q0 -12 -10 -27q-78 -33 -141 -32q-66 0 -110 32.5t-71.5 86t-40 123t-12.5 143.5q0 35 2 74.5t8 80.5q-27 6 -53 12.5t-55 16.5 q-53 -84 -114.5 -158t-127.5 -131q-43 -37 -92 -66.5t-115 -29.5q-47 0 -90 17.5t-75.5 50t-53 78.5t-20.5 104zM1718 635q4 0 23.5 4t36.5 8l6 4l14 4l-2 -2q25 6 27 4v5q-2 18 -11.5 26t-19.5 8q-23 0 -45.5 -18.5t-28.5 -42.5zM1776 1339.5q4 -36.5 19 -69.5t43 -54.5 t67 -21.5q20 0 37.5 5t37.5 13h-2q68 37 151 125t159 205q-35 8 -70 8q-72 0 -134.5 -34.5t-117.5 -94.5q-4 -4 -10 -6t-10 -2q-10 0 -19.5 7t-5.5 20q23 25 38 58.5t11 66.5q-8 23 -23.5 33t-27.5 12q-23 0 -44.5 -17.5t-42 -46t-34.5 -65.5t-20 -74q-6 -31 -2 -67.5z M2193 520q6 43 36 83t77 40q59 0 53 -70q-4 -29 -13 -58.5t-17 -49.5q0 -6 -2 -8q10 -2 22 -1t25 1q29 0 45 -7.5t12 -41.5q0 -6 -4 -23l-6 -25q-10 -43 -21.5 -94t-15.5 -80q-4 -39 6 -43q18 12 46 51t54 85v-3q14 45 41 95.5t61 90.5t73.5 66.5t82.5 26.5q57 0 87 -49 t28 -105q-2 -8 -4 -17t-8 -24h-15q20 -12 25 -36q2 -16 -1 -32t-7 -32q-4 -12 -4 -22q-2 -6 -4 -20.5t-3 -30t1 -23.5t8 -2v-2q12 12 27.5 34.5t32 49t31.5 54.5t28 50l6 14v-2l6 23l-2 -2q0 4 1 3t1 3q18 70 22 105h-2q0 4 -1 9t-1 9v10q-2 4 -2 10q0 14 10.5 19.5 t20.5 5.5q49 0 63.5 -29.5t12.5 -62.5q-4 -33 -8 -49v-4l8 16q35 51 73.5 98t88.5 47q39 0 51 -23.5t8 -58.5t-15.5 -78.5t-27.5 -84.5q0 -4 -2 -7.5t-2 -7.5q-10 -35 -20.5 -68.5t-14.5 -54.5q-2 -10 0 -24t8 -14q8 0 25.5 22.5t37 54t39 65.5t33.5 56l13 23v-2 q29 82 80 141t116 59q27 0 49.5 -13t37 -34.5t21.5 -48.5t5 -53q0 -12 -4 -28.5t-25 -16.5q-8 0 -18 10l6 35q2 23 -4 43t-19 20q-16 0 -38.5 -25.5t-44 -65.5t-39 -87t-23.5 -90v-18q0 -27 8 -46.5t33 -19.5q23 0 43 13.5t37.5 33t32 43t26.5 41.5q12 20 23.5 42t21.5 40 l6 12l7 13v-2q4 20 10 38.5t10 38.5l6 19l10 29l-2 -3v15q0 4 1 4t1 4q8 23 37 18q53 -23 54 -53q0 -10 -1 -15t-4 -16q0 -8 -4 -16v2q-6 -18 -13 -46t-15 -58.5t-14.5 -60t-8.5 -54.5q0 -4 -1 -7t-1 -7v-11q0 -39 14 -38q8 0 22.5 16t32 41.5t34 56.5t32.5 60v-2l29 69 q-20 29 -33.5 67t-13.5 72q0 31 11 58.5t38 50.5v-2q12 12 28.5 18.5t32.5 6.5q20 0 39 -11.5t19 -40.5q0 -18 -7.5 -40.5t-17.5 -45.5q-4 -8 -4 -12l-18 -51q41 -63 74.5 -129t39.5 -109q27 41 46.5 81t35.5 69q0 2 2 5t2 5q8 20 25 20q16 0 20 -18l-4 -14 q-14 -27 -33.5 -66t-43 -79t-50 -74.5t-51.5 -53.5q-29 -20 -69.5 -31.5t-77.5 -11.5q-41 0 -71 16.5t-26 51.5v2q-18 -18 -36.5 -29.5t-34.5 -11.5q-47 0 -64.5 34t-17.5 81q0 4 1 8t1 8v14q-16 -29 -35.5 -57.5t-45.5 -51t-58.5 -37.5t-73.5 -15q-68 0 -95.5 49t-27.5 114 v5l-2 -3q-35 -59 -72 -103t-77 -44q-47 0 -64.5 24.5t-17.5 65.5v2q10 57 27.5 118.5t35.5 109.5v2q12 31 22.5 57.5t10.5 32.5h-2v4q-14 0 -33.5 -22.5t-41 -53.5t-42 -64.5t-35.5 -56.5l-8 -12l-8 -17v3q-12 -27 -18.5 -58t-10.5 -57v-21q0 -10 2 -20t4 -19q0 -2 1 -4 t1 -6q0 -16 -18 -16q-49 0 -66.5 34.5t-17.5 73.5v13q0 2 1 5t1 7l4 12q-23 -35 -46.5 -67.5t-41.5 -49.5q-12 -10 -30.5 -17t-37.5 -7q-20 0 -32.5 12t-19.5 29.5t-9 38t-2 37.5q-35 -47 -77 -83t-89 -36t-67.5 24.5t-24.5 63.5q-29 -43 -51 -62q-12 -10 -30.5 -17 t-37.5 -7q-35 0 -49 35t-14 82v4q2 18 6 45.5t10 56.5t13.5 55.5t13.5 45.5q-8 0 -13.5 1t-13.5 1l-10 -27v2l-31 -61l-41 10l43 82q-41 8 -59.5 39.5t-14.5 66.5zM2279 487q-4 -12 9 -20q6 14 16 44t12 48h-2v2q-10 -8 -21.5 -32t-13.5 -42zM2292 1540l2 2h-2v-2z M2370 1575q25 -8 46 -13.5t44 -11.5q23 104 42 192.5t31 155.5q-35 -76 -75.5 -158.5t-87.5 -164.5zM2589 201q-2 -14 2 -29.5t20 -15.5q18 0 38 17t38 44t34.5 54.5t26.5 50.5q0 8 7 14q0 4 1 7t1 13l2 -2q-2 25 4 25q33 -4 49 -8q4 12 4 20q0 2 1 4t1 4q2 29 -10 58.5 t-41 29.5q-31 0 -61.5 -34.5t-56.5 -81.5t-42 -95.5t-18 -74.5zM3371 233q2 1 2 3v-5q-2 -4 -2 2zM3391 1395q-2 -16 2.5 -31.5t20.5 -15.5q18 0 36.5 18t37 44t35 54.5t28.5 48.5q0 8 6 15q2 4 4.5 10t-2.5 21q1 14 9 14q33 -4 49 -8l8 30q-2 29 -14.5 57.5t-38.5 28.5 q-31 0 -62.5 -34.5t-57.5 -81.5t-42 -95.5t-19 -74.5zM3807 586q4 29 18.5 57.5t32.5 28.5q21 0 39 -25q6 -10 8.5 -21.5t2.5 -21.5q-4 -25 -20.5 -38t-35.5 -13q-18 0 -31.5 8t-13.5 25zM3817 1681q-4 -16 13 -18q6 16 15 43t11 49q0 4 4 4q-8 0 -24.5 -27.5t-18.5 -50.5z M3850 1110q6 -29 23.5 -54.5t50.5 -21.5h-2q49 8 73.5 40t24.5 67q0 16 -8 29.5t-25 13.5q-8 0 -12 -2q-20 -6 -36.5 -27.5t-16.5 -50.5q0 -18 6 -33q14 -14 -8 -24q-21 -8 -25 12q-4 10 -14 23.5t-31 27.5zM3885 156q2 2 8 2q10 0 12.5 -9.5t2.5 -19.5q-2 -16 13 -19.5 t32 -3.5v-2q47 2 66.5 30t23.5 75q-2 29 -13.5 65.5t-31.5 71.5q-23 -43 -52.5 -96t-60.5 -94zM3967 1393v8q8 72 24.5 136.5t34.5 119.5l9 29l-2 -3q0 2 1 5.5t1 9.5v8q8 23 36 18q51 -23 52 -53q0 -10 -1 -15t-3 -16q0 -8 -5 -16v2q-6 -18 -13 -46t-14 -58.5t-13.5 -60 t-8.5 -54.5v-27q0 -39 13 -39q10 0 25.5 18.5t32.5 47.5t35.5 60.5t33.5 60.5v-2l8 16q0 -2 2 -2h2q12 61 32.5 135t50 136.5t66.5 105.5t82 43q16 0 27.5 -10.5t17.5 -25.5t8.5 -31.5t2.5 -30.5q-4 -41 -21.5 -82t-44.5 -81t-58.5 -77t-62.5 -66q-2 -6 -10 -46t-12 -87 q-2 -10 -2 -24q0 -27 7 -44.5t23 -17.5q23 0 46.5 21.5t45 52.5t40 65.5t32.5 63.5q0 -2 1 -3t1 1q12 66 32.5 150t51.5 157.5t71 124.5t89 51q16 0 27.5 -11t18.5 -28.5t10 -36t3 -32.5q-4 -41 -23.5 -86t-47 -89t-59 -84t-62.5 -71q-2 -8 -11.5 -52t-13.5 -91 q-2 -10 -2 -18.5v-12.5q0 -29 6 -48.5t27 -19.5q23 0 44 19.5t40.5 49.5t38 65.5t35.5 68.5q4 20 7 39t11 35q25 31 66 31q16 0 32 -9q4 33 12.5 65t24 56.5t40 40t61.5 15.5q63 0 89.5 -48.5t26.5 -117.5v-35q-4 -43 -18 -92t-33 -88q35 16 59.5 52t47.5 75l14 26l8 4t8 2 t9.5 -3t9.5 -17q-10 -25 -27.5 -56.5t-41 -60t-52.5 -49t-64 -25.5q-33 -47 -75.5 -77.5t-89.5 -30.5q-33 0 -55.5 14.5t-38 39t-23.5 54t-10 60.5q-18 -33 -38 -63.5t-41.5 -55.5t-45 -39t-47.5 -14q-33 0 -54.5 13t-35 35.5t-18.5 51.5t-5 58q-35 -66 -77 -112t-93 -46 q-31 0 -51.5 13t-32.5 34.5t-17.5 48.5t-5.5 53v9q-35 -59 -74.5 -106.5t-74.5 -47.5q-47 0 -65.5 33.5t-18.5 83.5zM4011 507q-1 -3 3 -9q10 27 22.5 58.5t8.5 41.5v-2q-2 4 -6 6q-10 -6 -18.5 -32.5t-8.5 -53.5q0 -6 -1 -9zM4071 1804q2 23 14.5 43.5t33.5 20.5 q18 0 36 -25q8 -12 10.5 -23.5t2.5 -21.5q-2 -25 -20.5 -38t-37.5 -13q-16 0 -28.5 14.5t-10.5 42.5zM4340 1634q14 14 34.5 39t39 54.5t31.5 63.5t18 67q4 12 1.5 25t-8.5 13q-18 0 -51 -71.5t-65 -190.5zM4520 6q0 12 5 31.5t13.5 38t19.5 32t27 13.5t11 -25l-8 -12h2 q-6 -10 -7 -21q0 -6 7 -26q18 -66 74.5 -97.5t127.5 -31.5q35 0 70 6t63 16q20 10 48 24.5t51.5 33t40 39t16.5 41.5q0 14 -4 22q-8 16 -29.5 29.5t-44.5 21.5q-25 6 -55.5 12.5t-58.5 10.5q-4 0 -9.5 1t-7.5 1q-49 8 -98 19.5t-92 31t-76 49t-49 76.5q-6 20 -10.5 42 t-4.5 38q0 63 37 166q20 55 54 105t77 91t91.5 70t97.5 39q41 10 59 10q55 0 105.5 -24.5t91.5 -65.5t69.5 -93t38.5 -110q25 0 41.5 1t30.5 3q6 0 0 1t0 1q8 33 13 62t8 39q2 8 -0.5 17t-4.5 20q0 2 -1 -4.5t-1 -1.5q4 23 12.5 27.5t18.5 4.5q51 0 65.5 -29.5t10.5 -64.5 q-2 -16 -4 -32.5t-6 -32.5q51 2 90 -11.5t67 -54.5q10 0 22.5 -4t20.5 -8q16 -14 23.5 -37t3.5 -47q-2 -29 -8 -55.5t-13 -45.5q-12 -35 -28.5 -91t-20.5 -91q0 -25 2 -24q10 0 31 23.5t42.5 57t43 67.5t35.5 56q10 37 19.5 67t13.5 62h-2q0 2 -1 4.5t-1 4.5v14q2 35 43 35 q33 0 44 -23.5t9 -52.5q-4 -33 -14.5 -72t-20.5 -76q-4 -8 -4 -10l-4 -12q-10 -35 -17.5 -63.5t-9.5 -45.5q-2 -10 -1 -24t9 -14t22.5 17t32 43t35 55.5t33.5 56.5v-3q16 43 42 84t57.5 75t67.5 54.5t75 20.5q16 0 28.5 -2t24.5 -12l4 12q12 59 21.5 103t11.5 61q2 10 0 17 t-4 13l-2 -2v7q6 31 33 30q51 0 65.5 -29.5t9.5 -64.5q-2 -29 -17 -95.5t-32 -133.5q-2 -12 -5 -25.5t-5 -25.5q0 -4 -2 -8.5t-2 -8.5q-14 -49 -27.5 -110.5t-13.5 -98.5v-20q2 -16 16 -17q14 0 32 11.5t28 23.5q27 31 51.5 77t42.5 81l6 12v-2l10 21q6 23 13.5 48t17.5 48 l8 29l-2 -3q0 2 1 5.5t1 9.5v8q8 23 37 18q51 -23 51 -53q0 -10 -1 -15t-3 -13q0 -10 -4 -19v2q-6 -18 -13 -46t-14.5 -58.5t-13.5 -60t-8 -54.5q0 -4 -1 -7t-1 -7v-11q0 -39 12 -38q10 0 27.5 20t36 49t37 62.5t34.5 62.5q2 23 6.5 42.5t10.5 37.5q25 31 65 31q16 0 33 -9 q4 33 12.5 65t23.5 56.5t39.5 40t61.5 15.5q61 0 89 -48.5t28 -117.5v-19.5t-2 -17.5q-4 -43 -18.5 -90t-32.5 -88q35 16 60.5 53t47.5 74l15 26q4 2 7 4t7 2q10 0 16 -20q-10 -23 -25.5 -53.5t-38 -59t-52 -50t-64.5 -25.5q-33 -47 -76 -78t-90 -31q-33 0 -55.5 14.5 t-37.5 38t-23.5 53t-10.5 60.5q-35 -63 -77.5 -114.5t-77.5 -51.5q-47 0 -65.5 34t-18.5 81v22q-10 -18 -21.5 -35.5t-21.5 -33.5q-23 -29 -49.5 -50.5t-67.5 -25.5q-57 0 -80.5 28.5t-23.5 81.5v17q-35 -49 -77 -87t-91 -38t-70 29.5t-23 70.5q-29 -41 -57.5 -66.5 t-56.5 -25.5q-47 0 -65.5 23.5t-18.5 62.5v21q-29 -45 -62.5 -79t-81.5 -34q-35 0 -49 22.5t-14 61.5v12q0 4 1 6t1 6v9.5t4 17.5q-35 -55 -73 -97t-83 -42q-59 0 -82.5 28.5t-23.5 79.5v11q2 27 10 65.5t17.5 83.5t20.5 93t22 91l6 25q-12 -2 -25.5 -2h-25.5q0 -20 -3 -31 q-6 -43 -28.5 -78.5t-54 -63.5t-67.5 -43.5t-71 -15.5t-68.5 25t-47.5 66q-4 10 -4.5 20t8.5 16q14 10 19 2t15 -20q10 -29 29 -42t39 -13q37 0 69.5 46t32.5 118h2q-2 51 -22.5 103t-52 94t-72.5 68.5t-86 26.5q-49 0 -85 -22.5t-59.5 -60t-34.5 -86t-14 -99.5v-31 q0 -70 21 -118q27 -59 83 -91t112 -53v2q2 0 2 -2t4 -2l24 -10q8 -4 20.5 -10t23 -10.5t15.5 -6.5t1 2q39 -16 67.5 -45.5t42.5 -74.5q10 -35 10 -62q0 -41 -15 -80t-41.5 -71.5t-61.5 -59t-74 -45.5q-55 -25 -129 -24q-57 0 -112.5 18t-98.5 50t-67.5 75t-20.5 94z M4622 1671q14 14 34 40t38 57.5t33.5 66.5t21.5 68q0 12 -2 31.5t-6 19.5q-18 0 -51 -77t-68 -206zM4887 1470q0 -43 9 -75.5t38 -32.5q35 0 61 27q-47 18 -72.5 49.5t-35.5 72.5v-41zM4958 1595q0 -49 13.5 -98t58.5 -61q23 37 38 85t19 97v29q0 47 -17.5 82.5t-53.5 35.5 q-27 0 -39.5 -35.5t-16.5 -80.5v-23q0 -8 -1 -15.5t-1 -15.5zM5356 184q0 -29 10 -43q10 0 37 17q18 14 35.5 37.5t34 49t29.5 52.5t24 49v-2l6 16q4 8 8 15.5t8 13.5q10 33 16.5 61.5t10.5 47.5l-2 -2q0 16 -2 22q-4 8 -5 12q-25 20 -56.5 26.5t-65.5 6.5h-11l-26 -106 l-13 -47q0 -2 -1 -4.5t-1 -4.5q-4 -16 -10 -42.5t-12 -57.5t-10 -61.5t-4 -55.5zM6023 199q-2 -14 2.5 -30.5t20.5 -16.5q18 0 38.5 20.5t40 48t37 57t27.5 50.5v2l31 129l-2 -2q0 2 1 4t1 4l4 12q-12 6 -21 6q-31 0 -62.5 -34.5t-57 -82t-42 -94.5t-18.5 -73zM6531 600 q4 25 17.5 48.5t31.5 23.5q21 0 39 -25q8 -10 10 -21.5t2 -21.5q-2 -25 -20 -38t-37 -13q-18 0 -30.5 11t-12.5 36zM6793 276q0 -43 10 -74.5t39 -31.5q35 0 62 27q-47 16 -72.5 47.5t-36.5 74.5v-4q0 -6 -1 -11t-1 -9v-19zM6867 401q0 -25 3 -50t10 -47.5t21.5 -39 t37.5 -22.5q23 39 37 86t18 96v29q0 47 -16.5 82.5t-53.5 35.5q-27 0 -39 -35.5t-16 -80.5v-23q0 -8 -1 -15.5t-1 -15.5z" />
<glyph unicode="&#xb7;" horiz-adv-x="436" d="M63 1223q2 33 14.5 64.5t30 57t41 42t52.5 16.5q25 0 50 -15.5t50 -52.5q23 -39 32 -71.5t5 -61.5q-6 -66 -57.5 -101.5t-106.5 -35.5q-47 0 -83 35t-28 123z" />
<glyph unicode="&#xb8;" horiz-adv-x="610" d="M4 -283q-10 16 5.5 16.5t41.5 0.5q96 0 154.5 52t93.5 128t53.5 162.5t36.5 154.5q25 20 67 7t78.5 -46.5t56 -84t1.5 -103.5q-18 -49 -65.5 -109.5t-109 -113.5t-132 -92t-133.5 -45q-41 -4 -79 12t-69 61z" />
</font>
</defs>
</svg>
